<?xml version="1.0" encoding="UTF-8" standalone="no"?><!DOCTYPE svg PUBLIC "-//W3C//DTD SVG 1.1//EN" "http://www.w3.org/Graphics/SVG/1.1/DTD/svg11.dtd"><svg width="100%" height="100%" viewBox="0 0 1024 1024" version="1.1" xmlns="http://www.w3.org/2000/svg" xmlns:xlink="http://www.w3.org/1999/xlink" xml:space="preserve" xmlns:serif="http://www.serif.com/" style="fill-rule:evenodd;clip-rule:evenodd;stroke-linecap:round;stroke-linejoin:round;stroke-miterlimit:1.5;"><g id="Key_Sq"><path d="M862,400l0,350c0,96.585 -78.415,175 -175,175l-350,0c-96.585,0 -175,-78.415 -175,-175l0,-350c0,-96.585 78.415,-175 175,-175l350,0c96.585,0 175,78.415 175,175Z" style="stroke:#000;stroke-width:50px;"/><path d="M862,337l0,350c0,96.585 -78.415,175 -175,175l-350,-0c-96.585,-0 -175,-78.415 -175,-175l0,-350c0,-96.585 78.415,-175 175,-175l350,-0c96.585,-0 175,78.415 175,175Z" style="fill:#232323;stroke:#000;stroke-width:50px;"/><rect x="326.087" y="410.158" width="40.463" height="200.403" style="fill:#b7b7b7;fill-rule:nonzero;"/><path d="M536.879,610.561l-38.412,0l-0,-74.092c-0,-15.675 -0.821,-25.813 -2.461,-30.415c-1.64,-4.603 -4.306,-8.18 -7.997,-10.731c-3.691,-2.552 -8.134,-3.828 -13.328,-3.828c-6.653,-0 -12.622,1.823 -17.908,5.468c-5.286,3.645 -8.908,8.475 -10.868,14.49c-1.959,6.015 -2.939,17.133 -2.939,33.355l0,65.753l-38.413,0l0,-145.176l35.679,0l0,21.325c12.668,-16.404 28.616,-24.606 47.845,-24.606c8.476,0 16.222,1.527 23.239,4.58c7.018,3.053 12.326,6.949 15.926,11.688c3.6,4.739 6.106,10.116 7.519,16.13c1.412,6.015 2.118,14.627 2.118,25.837l0,90.222Z" style="fill:#b7b7b7;fill-rule:nonzero;"/><path d="M562.306,569.141l38.549,-5.878c1.641,7.473 4.967,13.146 9.979,17.019c5.013,3.873 12.03,5.81 21.052,5.81c9.934,-0 17.407,-1.823 22.419,-5.468c3.372,-2.552 5.058,-5.97 5.058,-10.253c0,-2.916 -0.911,-5.331 -2.734,-7.245c-1.914,-1.823 -6.197,-3.509 -12.85,-5.058c-30.985,-6.835 -50.624,-13.078 -58.918,-18.728c-11.482,-7.837 -17.224,-18.728 -17.224,-32.671c0,-12.577 4.967,-23.148 14.9,-31.715c9.934,-8.566 25.336,-12.85 46.205,-12.85c19.867,0 34.631,3.236 44.291,9.706c9.66,6.471 16.313,16.04 19.959,28.707l-36.226,6.698c-1.549,-5.65 -4.488,-9.979 -8.817,-12.986c-4.329,-3.007 -10.503,-4.511 -18.523,-4.511c-10.116,-0 -17.361,1.412 -21.736,4.238c-2.916,2.004 -4.374,4.602 -4.374,7.791c-0,2.734 1.276,5.058 3.828,6.972c3.463,2.552 15.424,6.152 35.883,10.8c20.46,4.647 34.745,10.343 42.856,17.087c8.02,6.835 12.03,16.359 12.03,28.571c-0,13.305 -5.559,24.742 -16.678,34.311c-11.118,9.569 -27.568,14.354 -49.349,14.354c-19.776,-0 -35.428,-4.01 -46.956,-12.03c-11.529,-8.02 -19.07,-18.91 -22.624,-32.671Z" style="fill:#b7b7b7;fill-rule:nonzero;"/></g></svg>