<?xml version="1.0" encoding="UTF-8" standalone="no"?><!DOCTYPE svg PUBLIC "-//W3C//DTD SVG 1.1//EN" "http://www.w3.org/Graphics/SVG/1.1/DTD/svg11.dtd"><svg width="100%" height="100%" viewBox="0 0 1024 1024" version="1.1" xmlns="http://www.w3.org/2000/svg" xmlns:xlink="http://www.w3.org/1999/xlink" xml:space="preserve" xmlns:serif="http://www.serif.com/" style="fill-rule:evenodd;clip-rule:evenodd;stroke-linecap:round;stroke-linejoin:round;stroke-miterlimit:1.5;"><g id="Key_Sq"><path d="M862,400l0,350c0,96.585 -78.415,175 -175,175l-350,0c-96.585,0 -175,-78.415 -175,-175l0,-350c0,-96.585 78.415,-175 175,-175l350,0c96.585,0 175,78.415 175,175Z" style="stroke:#000;stroke-width:50px;"/><path d="M862,337l0,350c0,96.585 -78.415,175 -175,175l-350,-0c-96.585,-0 -175,-78.415 -175,-175l0,-350c0,-96.585 78.415,-175 175,-175l350,-0c96.585,-0 175,78.415 175,175Z" style="fill:#232323;stroke:#000;stroke-width:50px;"/><path d="M297.338,514.717c-0,-45.086 6.743,-82.926 20.228,-113.52c10.064,-22.543 23.801,-42.771 41.212,-60.685c17.41,-17.914 36.481,-31.198 57.213,-39.853c27.575,-11.674 59.377,-17.511 95.405,-17.511c65.214,-0 117.395,20.228 156.543,60.685c39.149,40.457 58.723,96.714 58.723,168.771c0,71.453 -19.423,127.358 -58.27,167.714c-38.846,40.356 -90.776,60.534 -155.788,60.534c-65.818,0 -118.15,-20.077 -156.996,-60.232c-38.847,-40.155 -58.27,-95.456 -58.27,-165.903Zm92.084,-3.019c0,50.118 11.574,88.109 34.721,113.973c23.146,25.864 52.533,38.796 88.159,38.796c35.626,0 64.861,-12.831 87.706,-38.494c22.845,-25.663 34.268,-64.157 34.268,-115.483c-0,-50.721 -11.121,-88.562 -33.362,-113.52c-22.241,-24.958 -51.778,-37.437 -88.612,-37.437c-36.834,-0 -66.522,12.63 -89.065,37.89c-22.543,25.26 -33.815,63.352 -33.815,114.275Z" style="fill:#b7b7b7;fill-rule:nonzero;"/></g></svg>