<?xml version="1.0" encoding="UTF-8" standalone="no"?><!DOCTYPE svg PUBLIC "-//W3C//DTD SVG 1.1//EN" "http://www.w3.org/Graphics/SVG/1.1/DTD/svg11.dtd"><svg width="100%" height="100%" viewBox="0 0 1024 1024" version="1.1" xmlns="http://www.w3.org/2000/svg" xmlns:xlink="http://www.w3.org/1999/xlink" xml:space="preserve" xmlns:serif="http://www.serif.com/" style="fill-rule:evenodd;clip-rule:evenodd;stroke-linecap:round;stroke-linejoin:round;stroke-miterlimit:1.5;"><g id="Key_Sq"><path d="M862,400l0,350c0,96.585 -78.415,175 -175,175l-350,0c-96.585,0 -175,-78.415 -175,-175l0,-350c0,-96.585 78.415,-175 175,-175l350,0c96.585,0 175,78.415 175,175Z" style="stroke:#000;stroke-width:50px;"/><path d="M862,337l0,350c0,96.585 -78.415,175 -175,175l-350,-0c-96.585,-0 -175,-78.415 -175,-175l0,-350c0,-96.585 78.415,-175 175,-175l350,-0c96.585,-0 175,78.415 175,175Z" style="fill:#232323;stroke:#000;stroke-width:50px;"/><path d="M313.038,733.304l-0,-442.608l188.093,-0c47.3,-0 81.668,3.975 103.104,11.925c21.436,7.951 38.595,22.091 51.477,42.42c12.882,20.329 19.322,43.576 19.322,69.742c0,33.211 -9.761,60.635 -29.285,82.272c-19.524,21.637 -48.709,35.274 -87.556,40.91c19.323,11.271 35.274,23.65 47.854,37.135c12.58,13.486 29.537,37.438 50.873,71.856l54.042,86.348l-106.878,0l-64.61,-96.311c-22.945,-34.418 -38.645,-56.106 -47.099,-65.063c-8.453,-8.957 -17.41,-15.096 -26.87,-18.417c-9.46,-3.321 -24.455,-4.981 -44.985,-4.981l-18.115,-0l-0,184.772l-89.367,0Zm89.367,-255.42l66.119,-0c42.872,-0 69.642,-1.812 80.31,-5.435c10.667,-3.623 19.02,-9.863 25.059,-18.719c6.038,-8.856 9.057,-19.926 9.057,-33.21c0,-14.895 -3.975,-26.921 -11.925,-36.079c-7.951,-9.159 -19.172,-14.945 -33.664,-17.361c-7.246,-1.006 -28.984,-1.509 -65.214,-1.509l-69.742,-0l-0,112.313Z" style="fill:#b7b7b7;fill-rule:nonzero;"/></g></svg>