<?xml version="1.0" encoding="UTF-8" standalone="no"?><!DOCTYPE svg PUBLIC "-//W3C//DTD SVG 1.1//EN" "http://www.w3.org/Graphics/SVG/1.1/DTD/svg11.dtd"><svg width="100%" height="100%" viewBox="0 0 1024 1024" version="1.1" xmlns="http://www.w3.org/2000/svg" xmlns:xlink="http://www.w3.org/1999/xlink" xml:space="preserve" xmlns:serif="http://www.serif.com/" style="fill-rule:evenodd;clip-rule:evenodd;stroke-linecap:round;stroke-linejoin:round;stroke-miterlimit:1.5;"><g id="Key_Sq"><path d="M862,400l0,350c0,96.585 -78.415,175 -175,175l-350,0c-96.585,0 -175,-78.415 -175,-175l0,-350c0,-96.585 78.415,-175 175,-175l350,0c96.585,0 175,78.415 175,175Z" style="stroke:#000;stroke-width:50px;"/><path d="M862,337l0,350c0,96.585 -78.415,175 -175,175l-350,-0c-96.585,-0 -175,-78.415 -175,-175l0,-350c0,-96.585 78.415,-175 175,-175l350,-0c96.585,-0 175,78.415 175,175Z" style="fill:#232323;stroke:#000;stroke-width:50px;"/><path d="M332.058,589.139l86.952,-8.453c5.233,29.185 15.851,50.621 31.852,64.308c16.002,13.687 37.589,20.53 64.761,20.53c28.783,0 50.47,-6.088 65.063,-18.266c14.592,-12.177 21.889,-26.417 21.889,-42.721c-0,-10.466 -3.07,-19.373 -9.209,-26.719c-6.139,-7.347 -16.857,-13.738 -32.154,-19.172c-10.466,-3.623 -34.317,-10.064 -71.554,-19.323c-47.904,-11.875 -81.517,-26.468 -100.84,-43.777c-27.172,-24.355 -40.758,-54.043 -40.758,-89.066c-0,-22.543 6.39,-43.626 19.171,-63.251c12.782,-19.624 31.198,-34.569 55.251,-44.834c24.053,-10.266 53.087,-15.398 87.103,-15.398c55.552,-0 97.367,12.177 125.446,36.532c28.078,24.354 42.821,56.861 44.23,97.519l-89.367,3.924c-3.824,-22.744 -12.026,-39.098 -24.606,-49.061c-12.58,-9.963 -31.449,-14.945 -56.609,-14.945c-25.965,0 -46.294,5.334 -60.987,16.002c-9.46,6.843 -14.19,16.001 -14.19,27.474c-0,10.467 4.428,19.423 13.284,26.871c11.272,9.46 38.645,19.322 82.121,29.587c43.476,10.266 75.63,20.883 96.462,31.852c20.833,10.97 37.136,25.965 48.911,44.986c11.774,19.021 17.662,42.52 17.662,70.497c-0,25.361 -7.045,49.112 -21.134,71.252c-14.09,22.141 -34.016,38.595 -59.78,49.364c-25.763,10.768 -57.867,16.152 -96.311,16.152c-55.955,0 -98.927,-12.932 -128.918,-38.796c-29.99,-25.864 -47.904,-63.553 -53.741,-113.068Z" style="fill:#b7b7b7;fill-rule:nonzero;"/></g></svg>