<?xml version="1.0" encoding="UTF-8" standalone="no"?><!DOCTYPE svg PUBLIC "-//W3C//DTD SVG 1.1//EN" "http://www.w3.org/Graphics/SVG/1.1/DTD/svg11.dtd"><svg width="100%" height="100%" viewBox="0 0 1024 1024" version="1.1" xmlns="http://www.w3.org/2000/svg" xmlns:xlink="http://www.w3.org/1999/xlink" xml:space="preserve" xmlns:serif="http://www.serif.com/" style="fill-rule:evenodd;clip-rule:evenodd;stroke-linecap:round;stroke-linejoin:round;stroke-miterlimit:1.5;"><g id="Key_Sq"><path d="M862,400l0,350c0,96.585 -78.415,175 -175,175l-350,0c-96.585,0 -175,-78.415 -175,-175l0,-350c0,-96.585 78.415,-175 175,-175l350,0c96.585,0 175,78.415 175,175Z" style="stroke:#000;stroke-width:50px;"/><path d="M862,337l0,350c0,96.585 -78.415,175 -175,175l-350,-0c-96.585,-0 -175,-78.415 -175,-175l0,-350c0,-96.585 78.415,-175 175,-175l350,-0c96.585,-0 175,78.415 175,175Z" style="fill:#232323;stroke:#000;stroke-width:50px;"/><g transform="matrix(0.687732,0,0,0.687732,-68.2208,4.53034)"><g transform="matrix(325.302,0,0,325.302,449.732,654.26)"><path d="M0.073,-0l-0,-0.716l0.232,0c0.088,0 0.145,0.004 0.172,0.011c0.041,0.011 0.075,0.034 0.103,0.07c0.027,0.036 0.041,0.082 0.041,0.139c0,0.044 -0.008,0.081 -0.024,0.111c-0.016,0.03 -0.036,0.054 -0.061,0.071c-0.024,0.017 -0.049,0.028 -0.075,0.034c-0.034,0.007 -0.084,0.01 -0.149,0.01l-0.095,-0l0,0.27l-0.144,-0Zm0.144,-0.595l0,0.203l0.079,0c0.057,0 0.095,-0.003 0.115,-0.011c0.019,-0.007 0.034,-0.019 0.045,-0.035c0.011,-0.016 0.016,-0.034 0.016,-0.056c0,-0.026 -0.007,-0.047 -0.023,-0.064c-0.015,-0.017 -0.034,-0.028 -0.058,-0.032c-0.017,-0.003 -0.052,-0.005 -0.104,-0.005l-0.07,0Z" style="fill:#b7b7b7;fill-rule:nonzero;"/></g><g transform="matrix(325.302,0,0,325.302,666.706,654.26)"><path d="M0.174,-0.36l-0.124,-0.023c0.014,-0.05 0.038,-0.087 0.072,-0.111c0.034,-0.024 0.085,-0.036 0.152,-0.036c0.062,-0 0.107,0.007 0.137,0.021c0.03,0.015 0.051,0.033 0.063,0.056c0.013,0.022 0.019,0.063 0.019,0.122l-0.002,0.161c0,0.045 0.002,0.079 0.007,0.1c0.004,0.022 0.012,0.045 0.024,0.07l-0.135,-0c-0.004,-0.009 -0.008,-0.023 -0.013,-0.041c-0.003,-0.008 -0.004,-0.013 -0.005,-0.016c-0.024,0.023 -0.049,0.04 -0.076,0.052c-0.026,0.011 -0.055,0.017 -0.085,0.017c-0.053,-0 -0.095,-0.015 -0.126,-0.044c-0.031,-0.029 -0.046,-0.065 -0.046,-0.11c-0,-0.029 0.007,-0.055 0.021,-0.078c0.014,-0.023 0.033,-0.04 0.058,-0.053c0.026,-0.012 0.062,-0.023 0.11,-0.032c0.064,-0.012 0.108,-0.023 0.133,-0.033l-0,-0.014c-0,-0.026 -0.007,-0.045 -0.02,-0.056c-0.013,-0.012 -0.037,-0.017 -0.073,-0.017c-0.025,-0 -0.044,0.005 -0.057,0.014c-0.014,0.01 -0.025,0.027 -0.034,0.051Zm0.184,0.111c-0.018,0.006 -0.045,0.013 -0.084,0.021c-0.038,0.008 -0.063,0.016 -0.074,0.024c-0.018,0.013 -0.027,0.029 -0.027,0.048c-0,0.019 0.007,0.036 0.021,0.05c0.015,0.014 0.033,0.021 0.055,0.021c0.025,0 0.048,-0.008 0.071,-0.024c0.016,-0.013 0.027,-0.028 0.033,-0.046c0.003,-0.012 0.005,-0.034 0.005,-0.067l-0,-0.027Z" style="fill:#b7b7b7;fill-rule:nonzero;"/></g><g transform="matrix(325.302,0,0,325.302,847.624,654.26)"><path d="M0.059,0.034l0.157,0.019c0.002,0.018 0.008,0.031 0.018,0.038c0.013,0.01 0.033,0.014 0.061,0.014c0.036,0 0.063,-0.005 0.081,-0.016c0.012,-0.007 0.021,-0.018 0.027,-0.034c0.005,-0.012 0.007,-0.033 0.007,-0.063l-0,-0.076c-0.041,0.056 -0.093,0.084 -0.156,0.084c-0.069,-0 -0.124,-0.029 -0.165,-0.088c-0.032,-0.047 -0.048,-0.105 -0.048,-0.174c0,-0.087 0.021,-0.154 0.063,-0.199c0.042,-0.046 0.094,-0.069 0.156,-0.069c0.064,-0 0.117,0.028 0.158,0.084l0,-0.073l0.129,0l-0,0.466c-0,0.061 -0.005,0.107 -0.015,0.137c-0.01,0.03 -0.025,0.054 -0.043,0.071c-0.018,0.018 -0.042,0.031 -0.073,0.041c-0.03,0.01 -0.069,0.014 -0.115,0.014c-0.088,0 -0.15,-0.015 -0.187,-0.045c-0.037,-0.03 -0.055,-0.068 -0.055,-0.114c-0,-0.005 -0,-0.01 0,-0.017Zm0.123,-0.304c-0,0.055 0.01,0.095 0.032,0.121c0.021,0.025 0.047,0.038 0.078,0.038c0.034,0 0.062,-0.013 0.085,-0.039c0.024,-0.026 0.035,-0.065 0.035,-0.117c0,-0.053 -0.011,-0.093 -0.033,-0.119c-0.022,-0.026 -0.05,-0.039 -0.084,-0.039c-0.033,-0 -0.06,0.012 -0.081,0.038c-0.022,0.026 -0.032,0.065 -0.032,0.117Z" style="fill:#b7b7b7;fill-rule:nonzero;"/></g><g transform="matrix(325.302,0,0,325.302,1046.33,654.26)"><path d="M0.372,-0.165l0.137,0.023c-0.018,0.05 -0.046,0.088 -0.083,0.114c-0.038,0.027 -0.086,0.04 -0.143,0.04c-0.09,-0 -0.157,-0.03 -0.2,-0.089c-0.034,-0.047 -0.051,-0.106 -0.051,-0.178c-0,-0.086 0.022,-0.154 0.067,-0.202c0.045,-0.049 0.102,-0.073 0.171,-0.073c0.077,-0 0.138,0.025 0.182,0.076c0.045,0.051 0.066,0.129 0.064,0.234l-0.344,0c0.001,0.041 0.012,0.073 0.034,0.095c0.021,0.023 0.047,0.034 0.079,0.034c0.021,0 0.039,-0.006 0.054,-0.017c0.015,-0.012 0.026,-0.031 0.033,-0.057Zm0.008,-0.139c-0.001,-0.039 -0.011,-0.07 -0.031,-0.09c-0.019,-0.021 -0.043,-0.031 -0.071,-0.031c-0.03,-0 -0.055,0.011 -0.074,0.032c-0.02,0.022 -0.03,0.052 -0.029,0.089l0.205,0Z" style="fill:#b7b7b7;fill-rule:nonzero;"/></g><g transform="matrix(325.302,0,0,325.302,395.806,990.204)"><path d="M0.072,-0.716l0.264,0c0.06,0 0.105,0.005 0.137,0.014c0.042,0.012 0.078,0.034 0.108,0.066c0.03,0.031 0.052,0.07 0.068,0.116c0.016,0.045 0.023,0.102 0.023,0.169c0,0.059 -0.007,0.11 -0.022,0.152c-0.018,0.052 -0.043,0.095 -0.076,0.127c-0.025,0.024 -0.059,0.043 -0.102,0.057c-0.032,0.01 -0.074,0.015 -0.128,0.015l-0.272,-0l0,-0.716Zm0.145,0.121l-0,0.474l0.108,0c0.04,0 0.069,-0.002 0.087,-0.006c0.024,-0.006 0.043,-0.016 0.058,-0.03c0.016,-0.014 0.029,-0.037 0.038,-0.069c0.01,-0.032 0.015,-0.076 0.015,-0.131c-0,-0.056 -0.005,-0.098 -0.015,-0.128c-0.009,-0.029 -0.023,-0.053 -0.041,-0.069c-0.017,-0.017 -0.04,-0.028 -0.067,-0.034c-0.02,-0.004 -0.059,-0.007 -0.118,-0.007l-0.065,0Z" style="fill:#b7b7b7;fill-rule:nonzero;"/></g><g transform="matrix(325.302,0,0,325.302,630.729,990.204)"><path d="M0.04,-0.267c0,-0.045 0.011,-0.089 0.034,-0.132c0.022,-0.043 0.054,-0.075 0.095,-0.098c0.041,-0.022 0.087,-0.033 0.138,-0.033c0.079,-0 0.143,0.025 0.193,0.076c0.05,0.051 0.075,0.115 0.075,0.193c0,0.079 -0.025,0.144 -0.076,0.195c-0.05,0.052 -0.114,0.078 -0.191,0.078c-0.047,-0 -0.093,-0.011 -0.136,-0.033c-0.043,-0.021 -0.076,-0.052 -0.098,-0.094c-0.023,-0.041 -0.034,-0.092 -0.034,-0.152Zm0.141,0.008c-0,0.051 0.012,0.091 0.036,0.118c0.025,0.027 0.055,0.041 0.091,0.041c0.035,-0 0.065,-0.014 0.09,-0.041c0.024,-0.027 0.036,-0.067 0.036,-0.119c0,-0.051 -0.012,-0.09 -0.036,-0.117c-0.025,-0.028 -0.055,-0.041 -0.09,-0.041c-0.036,-0 -0.066,0.013 -0.091,0.041c-0.024,0.027 -0.036,0.066 -0.036,0.118Z" style="fill:#b7b7b7;fill-rule:nonzero;"/></g><g transform="matrix(325.302,0,0,325.302,829.437,990.204)"><path d="M0.168,-0l-0.164,-0.519l0.134,0l0.097,0.34l0.089,-0.34l0.133,0l0.086,0.34l0.099,-0.34l0.135,0l-0.166,0.519l-0.132,-0l-0.089,-0.333l-0.088,0.333l-0.134,-0Z" style="fill:#b7b7b7;fill-rule:nonzero;"/></g><g transform="matrix(325.302,0,0,325.302,1082.47,990.204)"><path d="M0.543,-0l-0.137,-0l0,-0.265c0,-0.056 -0.003,-0.092 -0.009,-0.108c-0.005,-0.017 -0.015,-0.03 -0.028,-0.039c-0.013,-0.009 -0.029,-0.013 -0.048,-0.013c-0.023,-0 -0.045,0.006 -0.064,0.019c-0.019,0.013 -0.031,0.031 -0.038,0.052c-0.007,0.021 -0.011,0.061 -0.011,0.119l0,0.235l-0.137,-0l-0,-0.519l0.127,0l0,0.077c0.045,-0.059 0.102,-0.088 0.171,-0.088c0.03,-0 0.058,0.005 0.083,0.016c0.025,0.011 0.044,0.025 0.057,0.042c0.013,0.017 0.022,0.036 0.027,0.057c0.005,0.022 0.007,0.053 0.007,0.093l0,0.322Z" style="fill:#b7b7b7;fill-rule:nonzero;"/></g></g></g></svg>