<?xml version="1.0" encoding="UTF-8" standalone="no"?><!DOCTYPE svg PUBLIC "-//W3C//DTD SVG 1.1//EN" "http://www.w3.org/Graphics/SVG/1.1/DTD/svg11.dtd"><svg width="100%" height="100%" viewBox="0 0 1024 1024" version="1.1" xmlns="http://www.w3.org/2000/svg" xmlns:xlink="http://www.w3.org/1999/xlink" xml:space="preserve" xmlns:serif="http://www.serif.com/" style="fill-rule:evenodd;clip-rule:evenodd;stroke-linecap:round;stroke-linejoin:round;stroke-miterlimit:1.5;"><g id="Key_Sq"><path d="M862,400l0,350c0,96.585 -78.415,175 -175,175l-350,0c-96.585,0 -175,-78.415 -175,-175l0,-350c0,-96.585 78.415,-175 175,-175l350,0c96.585,0 175,78.415 175,175Z" style="stroke:#000;stroke-width:50px;"/><path d="M862,337l0,350c0,96.585 -78.415,175 -175,175l-350,-0c-96.585,-0 -175,-78.415 -175,-175l0,-350c0,-96.585 78.415,-175 175,-175l350,-0c96.585,-0 175,78.415 175,175Z" style="fill:#232323;stroke:#000;stroke-width:50px;"/><path d="M323.182,642.122l-0,-259.183l177.68,-0l-0,43.845l-125.349,0l0,61.349l108.2,-0l-0,43.845l-108.2,-0l0,110.144l-52.331,-0Z" style="fill:#b7b7b7;fill-rule:nonzero;"/><path d="M700.818,595.978l0,46.144l-174.144,-0c1.886,-17.444 7.543,-33.974 16.972,-49.591c9.43,-15.617 28.052,-36.332 55.868,-62.144c22.394,-20.862 36.125,-35.006 41.193,-42.431c6.837,-10.254 10.255,-20.391 10.255,-30.409c-0,-11.079 -2.976,-19.595 -8.929,-25.547c-5.952,-5.952 -14.173,-8.928 -24.663,-8.928c-10.372,-0 -18.622,3.123 -24.751,9.37c-6.129,6.247 -9.665,16.619 -10.608,31.116l-49.503,-4.95c2.947,-27.345 12.199,-46.969 27.757,-58.873c15.558,-11.905 35.006,-17.857 58.343,-17.857c25.576,0 45.672,6.895 60.287,20.685c14.616,13.79 21.923,30.94 21.923,51.448c0,11.668 -2.092,22.777 -6.276,33.326c-4.184,10.549 -10.814,21.599 -19.89,33.149c-6.011,7.661 -16.854,18.682 -32.53,33.061c-15.676,14.379 -25.606,23.926 -29.79,28.641c-4.184,4.715 -7.573,9.311 -10.166,13.79l98.652,0Z" style="fill:#b7b7b7;fill-rule:nonzero;"/></g></svg>