<?xml version="1.0" encoding="UTF-8" standalone="no"?><!DOCTYPE svg PUBLIC "-//W3C//DTD SVG 1.1//EN" "http://www.w3.org/Graphics/SVG/1.1/DTD/svg11.dtd"><svg width="100%" height="100%" viewBox="0 0 1024 1024" version="1.1" xmlns="http://www.w3.org/2000/svg" xmlns:xlink="http://www.w3.org/1999/xlink" xml:space="preserve" xmlns:serif="http://www.serif.com/" style="fill-rule:evenodd;clip-rule:evenodd;stroke-linecap:round;stroke-linejoin:round;stroke-miterlimit:1.5;"><g id="Key_Sq"><path d="M862,400l0,350c0,96.585 -78.415,175 -175,175l-350,0c-96.585,0 -175,-78.415 -175,-175l0,-350c0,-96.585 78.415,-175 175,-175l350,0c96.585,0 175,78.415 175,175Z" style="stroke:#000;stroke-width:50px;"/><path d="M862,337l0,350c0,96.585 -78.415,175 -175,175l-350,-0c-96.585,-0 -175,-78.415 -175,-175l0,-350c0,-96.585 78.415,-175 175,-175l350,-0c96.585,-0 175,78.415 175,175Z" style="fill:#232323;stroke:#000;stroke-width:50px;"/><path id="numlock" d="M220.418,610.561l-0,-200.403l39.369,0l82.021,133.83l-0,-133.83l37.592,0l0,200.403l-40.6,0l-80.79,-130.686l0,130.686l-37.592,0Z" style="fill:#b7b7b7;fill-rule:nonzero;"/><path d="M517.468,610.561l0,-21.735c-5.286,7.746 -12.235,13.852 -20.847,18.318c-8.612,4.465 -17.703,6.698 -27.272,6.698c-9.751,-0 -18.5,-2.142 -26.246,-6.425c-7.746,-4.283 -13.351,-10.298 -16.814,-18.044c-3.463,-7.747 -5.195,-18.455 -5.195,-32.125l0,-91.863l38.413,0l-0,66.71c-0,20.414 0.706,32.922 2.119,37.524c1.412,4.603 3.987,8.248 7.723,10.936c3.737,2.689 8.476,4.033 14.217,4.033c6.562,-0 12.44,-1.8 17.635,-5.4c5.194,-3.599 8.748,-8.065 10.662,-13.396c1.914,-5.332 2.871,-18.387 2.871,-39.165l0,-61.242l38.413,0l-0,145.176l-35.679,0Z" style="fill:#b7b7b7;fill-rule:nonzero;"/><path d="M590.056,465.385l35.405,0l0,19.822c12.668,-15.402 27.751,-23.103 45.248,-23.103c9.296,0 17.361,1.914 24.196,5.742c6.835,3.827 12.44,9.614 16.814,17.361c6.38,-7.747 13.26,-13.534 20.642,-17.361c7.382,-3.828 15.265,-5.742 23.649,-5.742c10.663,0 19.685,2.165 27.067,6.494c7.382,4.328 12.896,10.685 16.541,19.069c2.643,6.197 3.964,16.222 3.964,30.074l0,92.82l-38.413,0l0,-82.977c0,-14.399 -1.321,-23.695 -3.964,-27.887c-3.554,-5.468 -9.022,-8.202 -16.404,-8.202c-5.377,-0 -10.435,1.64 -15.174,4.921c-4.739,3.281 -8.156,8.088 -10.252,14.422c-2.096,6.334 -3.144,16.336 -3.144,30.006l-0,69.717l-38.413,0l-0,-79.56c-0,-14.125 -0.684,-23.239 -2.051,-27.34c-1.367,-4.101 -3.486,-7.154 -6.356,-9.159c-2.871,-2.005 -6.767,-3.007 -11.688,-3.007c-5.924,-0 -11.255,1.595 -15.994,4.784c-4.739,3.19 -8.134,7.792 -10.184,13.807c-2.051,6.015 -3.076,15.994 -3.076,29.938l-0,70.537l-38.413,0l0,-145.176Z" style="fill:#b7b7b7;fill-rule:nonzero;"/></g></svg>