<?xml version="1.0" encoding="UTF-8" standalone="no"?><!DOCTYPE svg PUBLIC "-//W3C//DTD SVG 1.1//EN" "http://www.w3.org/Graphics/SVG/1.1/DTD/svg11.dtd"><svg width="100%" height="100%" viewBox="0 0 1024 1024" version="1.1" xmlns="http://www.w3.org/2000/svg" xmlns:xlink="http://www.w3.org/1999/xlink" xml:space="preserve" xmlns:serif="http://www.serif.com/" style="fill-rule:evenodd;clip-rule:evenodd;stroke-linecap:round;stroke-linejoin:round;stroke-miterlimit:1.5;"><g id="Key_Sq"><path d="M862,400l0,350c0,96.585 -78.415,175 -175,175l-350,0c-96.585,0 -175,-78.415 -175,-175l0,-350c0,-96.585 78.415,-175 175,-175l350,0c96.585,0 175,78.415 175,175Z" style="stroke:#000;stroke-width:50px;"/><path d="M862,337l0,350c0,96.585 -78.415,175 -175,175l-350,-0c-96.585,-0 -175,-78.415 -175,-175l0,-350c0,-96.585 78.415,-175 175,-175l350,-0c96.585,-0 175,78.415 175,175Z" style="fill:#232323;stroke:#000;stroke-width:50px;"/><path d="M321.856,639.912l-0,-259.183l177.68,-0l-0,43.845l-125.348,0l-0,61.349l108.199,-0l-0,43.845l-108.199,-0l-0,110.144l-52.332,-0Z" style="fill:#b7b7b7;fill-rule:nonzero;"/><path d="M529.945,571.138l48.088,-5.834c1.533,12.258 5.658,21.628 12.376,28.111c6.718,6.482 14.851,9.723 24.398,9.723c10.254,0 18.888,-3.889 25.9,-11.668c7.013,-7.779 10.52,-18.269 10.52,-31.47c-0,-12.493 -3.359,-22.394 -10.078,-29.702c-6.718,-7.307 -14.909,-10.961 -24.574,-10.961c-6.365,0 -13.967,1.238 -22.807,3.713l5.481,-40.487c13.436,0.354 23.69,-2.563 30.762,-8.751c7.072,-6.188 10.608,-14.409 10.608,-24.663c0,-8.722 -2.593,-15.676 -7.779,-20.862c-5.186,-5.186 -12.081,-7.779 -20.685,-7.779c-8.486,0 -15.735,2.947 -21.746,8.84c-6.011,5.893 -9.665,14.497 -10.961,25.812l-45.79,-7.779c3.182,-15.676 7.985,-28.199 14.408,-37.569c6.424,-9.37 15.382,-16.737 26.873,-22.1c11.492,-5.362 24.369,-8.044 38.63,-8.044c24.398,0 43.964,7.779 58.697,23.337c12.14,12.73 18.21,27.109 18.21,43.138c-0,22.748 -12.435,40.899 -37.304,54.454c14.85,3.182 26.725,10.313 35.624,21.392c8.899,11.079 13.348,24.457 13.348,40.133c0,22.747 -8.309,42.136 -24.928,58.166c-16.619,16.029 -37.304,24.044 -62.056,24.044c-23.454,-0 -42.902,-6.748 -58.342,-20.243c-15.44,-13.496 -24.398,-31.146 -26.873,-52.951Z" style="fill:#b7b7b7;fill-rule:nonzero;"/></g></svg>