<?xml version="1.0" encoding="UTF-8" standalone="no"?><!DOCTYPE svg PUBLIC "-//W3C//DTD SVG 1.1//EN" "http://www.w3.org/Graphics/SVG/1.1/DTD/svg11.dtd"><svg width="100%" height="100%" viewBox="0 0 1024 1024" version="1.1" xmlns="http://www.w3.org/2000/svg" xmlns:xlink="http://www.w3.org/1999/xlink" xml:space="preserve" xmlns:serif="http://www.serif.com/" style="fill-rule:evenodd;clip-rule:evenodd;stroke-linecap:round;stroke-linejoin:round;stroke-miterlimit:1.5;"><g id="Key_Sq"><path d="M862,400l0,350c0,96.585 -78.415,175 -175,175l-350,0c-96.585,0 -175,-78.415 -175,-175l0,-350c0,-96.585 78.415,-175 175,-175l350,0c96.585,0 175,78.415 175,175Z" style="stroke:#000;stroke-width:50px;"/><path d="M862,337l0,350c0,96.585 -78.415,175 -175,175l-350,-0c-96.585,-0 -175,-78.415 -175,-175l0,-350c0,-96.585 78.415,-175 175,-175l350,-0c96.585,-0 175,78.415 175,175Z" style="fill:#232323;stroke:#000;stroke-width:50px;"/><path d="M512,286.016c42.872,0 76.385,15.297 100.538,45.891c28.783,36.23 43.174,96.311 43.174,180.244c-0,83.731 -14.492,143.913 -43.476,180.546c-23.952,30.191 -57.364,45.287 -100.236,45.287c-43.073,-0 -77.794,-16.555 -104.161,-49.665c-26.367,-33.11 -39.551,-92.135 -39.551,-177.074c0,-83.329 14.492,-143.309 43.476,-179.942c23.952,-30.191 57.364,-45.287 100.236,-45.287Zm0,70.346c-10.265,0 -19.423,3.271 -27.474,9.813c-8.051,6.541 -14.291,18.266 -18.719,35.173c-5.837,21.939 -8.756,58.873 -8.756,110.803c0,51.929 2.617,87.606 7.85,107.029c5.233,19.423 11.825,32.355 19.776,38.796c7.95,6.441 17.058,9.662 27.323,9.662c10.265,-0 19.423,-3.271 27.474,-9.813c8.051,-6.541 14.291,-18.266 18.719,-35.173c5.837,-21.738 8.756,-58.572 8.756,-110.501c-0,-51.93 -2.617,-87.606 -7.85,-107.029c-5.233,-19.423 -11.825,-32.406 -19.776,-38.947c-7.95,-6.542 -17.058,-9.813 -27.323,-9.813Z" style="fill:#b7b7b7;fill-rule:nonzero;"/></g></svg>