<?xml version="1.0" encoding="UTF-8" standalone="no"?><!DOCTYPE svg PUBLIC "-//W3C//DTD SVG 1.1//EN" "http://www.w3.org/Graphics/SVG/1.1/DTD/svg11.dtd"><svg width="100%" height="100%" viewBox="0 0 1024 1024" version="1.1" xmlns="http://www.w3.org/2000/svg" xmlns:xlink="http://www.w3.org/1999/xlink" xml:space="preserve" xmlns:serif="http://www.serif.com/" style="fill-rule:evenodd;clip-rule:evenodd;stroke-linecap:round;stroke-linejoin:round;stroke-miterlimit:1.5;"><g id="Key_Sq"><path d="M862,400l0,350c0,96.585 -78.415,175 -175,175l-350,0c-96.585,0 -175,-78.415 -175,-175l0,-350c0,-96.585 78.415,-175 175,-175l350,0c96.585,0 175,78.415 175,175Z" style="stroke:#000;stroke-width:50px;"/><path d="M862,337l0,350c0,96.585 -78.415,175 -175,175l-350,-0c-96.585,-0 -175,-78.415 -175,-175l0,-350c0,-96.585 78.415,-175 175,-175l350,-0c96.585,-0 175,78.415 175,175Z" style="fill:#232323;stroke:#000;stroke-width:50px;"/><path d="M467.166,436.521l-0,-84.838l84.838,-0l-0,84.838l-84.838,0Zm-0,150.958l84.838,-0l-0,60.685c-0,24.556 -2.114,43.929 -6.34,58.119c-4.227,14.19 -12.228,26.921 -24.003,38.192c-11.774,11.272 -26.719,20.128 -44.834,26.569l-16.606,-35.023c17.109,-5.635 29.286,-13.485 36.532,-23.549c7.246,-10.064 11.07,-23.449 11.473,-40.155l-41.06,0l-0,-84.838Z" style="fill:#b7b7b7;fill-rule:nonzero;"/></g></svg>