<?xml version="1.0" encoding="UTF-8" standalone="no"?><!DOCTYPE svg PUBLIC "-//W3C//DTD SVG 1.1//EN" "http://www.w3.org/Graphics/SVG/1.1/DTD/svg11.dtd"><svg width="100%" height="100%" viewBox="0 0 1024 1024" version="1.1" xmlns="http://www.w3.org/2000/svg" xmlns:xlink="http://www.w3.org/1999/xlink" xml:space="preserve" xmlns:serif="http://www.serif.com/" style="fill-rule:evenodd;clip-rule:evenodd;stroke-linecap:round;stroke-linejoin:round;stroke-miterlimit:1.5;"><g id="Key_Sq"><path d="M862,400l0,350c0,96.585 -78.415,175 -175,175l-350,0c-96.585,0 -175,-78.415 -175,-175l0,-350c0,-96.585 78.415,-175 175,-175l350,0c96.585,0 175,78.415 175,175Z" style="stroke:#000;stroke-width:50px;"/><path d="M862,337l0,350c0,96.585 -78.415,175 -175,175l-350,-0c-96.585,-0 -175,-78.415 -175,-175l0,-350c0,-96.585 78.415,-175 175,-175l350,-0c96.585,-0 175,78.415 175,175Z" style="fill:#232323;stroke:#000;stroke-width:50px;"/><path d="M660.693,655.41l0,78.8l-297.386,-0c3.22,-29.789 12.881,-58.018 28.983,-84.687c16.103,-26.67 47.904,-62.044 95.406,-106.124c38.242,-35.626 61.691,-59.779 70.346,-72.46c11.674,-17.511 17.511,-34.82 17.511,-51.929c0,-18.92 -5.082,-33.462 -15.246,-43.627c-10.165,-10.164 -24.204,-15.247 -42.118,-15.247c-17.712,0 -31.802,5.334 -42.268,16.002c-10.466,10.668 -16.505,28.38 -18.115,53.137l-84.536,-8.454c5.032,-46.696 20.832,-80.208 47.4,-100.537c26.569,-20.329 59.78,-30.494 99.633,-30.494c43.677,0 77.995,11.775 102.953,35.324c24.958,23.55 37.437,52.835 37.437,87.858c0,19.926 -3.572,38.896 -10.718,56.911c-7.145,18.014 -18.467,36.884 -33.965,56.609c-10.265,13.083 -28.783,31.902 -55.553,56.458c-26.769,24.556 -43.727,40.859 -50.872,48.911c-7.146,8.051 -12.932,15.9 -17.36,23.549l168.468,-0Z" style="fill:#b7b7b7;fill-rule:nonzero;"/></g></svg>