<?xml version="1.0" encoding="UTF-8" standalone="no"?><!DOCTYPE svg PUBLIC "-//W3C//DTD SVG 1.1//EN" "http://www.w3.org/Graphics/SVG/1.1/DTD/svg11.dtd"><svg width="100%" height="100%" viewBox="0 0 1024 1024" version="1.1" xmlns="http://www.w3.org/2000/svg" xmlns:xlink="http://www.w3.org/1999/xlink" xml:space="preserve" xmlns:serif="http://www.serif.com/" style="fill-rule:evenodd;clip-rule:evenodd;stroke-linecap:round;stroke-linejoin:round;stroke-miterlimit:1.5;"><g id="Key_Sq"><path d="M862,400l0,350c0,96.585 -78.415,175 -175,175l-350,0c-96.585,0 -175,-78.415 -175,-175l0,-350c0,-96.585 78.415,-175 175,-175l350,0c96.585,0 175,78.415 175,175Z" style="stroke:#000;stroke-width:50px;"/><path d="M862,337l0,350c0,96.585 -78.415,175 -175,175l-350,-0c-96.585,-0 -175,-78.415 -175,-175l0,-350c0,-96.585 78.415,-175 175,-175l350,-0c96.585,-0 175,78.415 175,175Z" style="fill:#232323;stroke:#000;stroke-width:50px;"/><path d="M322.121,641.591l0,-259.182l177.68,-0l0,43.845l-125.348,-0l-0,61.348l108.199,0l-0,43.846l-108.199,-0l-0,110.143l-52.332,0Z" style="fill:#b7b7b7;fill-rule:nonzero;"/><path d="M531.978,432.088l-0,-46.144l169.901,0l-0,36.067c-14.026,13.79 -28.287,33.591 -42.785,59.403c-14.497,25.813 -25.547,53.245 -33.149,82.299c-7.602,29.053 -11.344,55.013 -11.227,77.878l-47.911,0c0.825,-35.83 8.221,-72.368 22.188,-109.613c13.967,-37.245 32.619,-70.542 55.956,-99.89l-112.973,0Z" style="fill:#b7b7b7;fill-rule:nonzero;"/></g></svg>