<?xml version="1.0" encoding="UTF-8" standalone="no"?><!DOCTYPE svg PUBLIC "-//W3C//DTD SVG 1.1//EN" "http://www.w3.org/Graphics/SVG/1.1/DTD/svg11.dtd"><svg width="100%" height="100%" viewBox="0 0 1024 1024" version="1.1" xmlns="http://www.w3.org/2000/svg" xmlns:xlink="http://www.w3.org/1999/xlink" xml:space="preserve" xmlns:serif="http://www.serif.com/" style="fill-rule:evenodd;clip-rule:evenodd;stroke-linecap:round;stroke-linejoin:round;stroke-miterlimit:1.5;"><g id="Key_Wide"><path d="M992.003,400l-0,350c-0,96.585 -78.415,175 -175,175l-610.006,0c-96.585,0 -175,-78.415 -175,-175l0,-350c0,-96.585 78.415,-175 175,-175l610.006,0c96.585,0 175,78.415 175,175Z" style="stroke:#000;stroke-width:50px;"/><path d="M992.003,337l-0,350c-0,96.585 -78.415,175 -175,175l-610.006,-0c-96.585,-0 -175,-78.415 -175,-175l0,-350c0,-96.585 78.415,-175 175,-175l610.006,-0c96.585,-0 175,78.415 175,175Z" style="fill:#232323;stroke:#000;stroke-width:50px;"/><path d="M317.722,619.524l-44.018,0l-17.498,-45.521l-80.106,-0l-16.541,45.521l-42.924,0l78.056,-200.403l42.787,0l80.244,200.403Zm-74.502,-79.286l-27.614,-74.365l-27.067,74.365l54.681,-0Z" style="fill:#b7b7b7;fill-rule:nonzero;"/><rect x="338.91" y="419.121" width="38.413" height="200.403" style="fill:#b7b7b7;fill-rule:nonzero;"/><path d="M483.266,474.348l-0,30.621l-26.247,0l0,58.508c0,11.847 0.251,18.751 0.752,20.71c0.501,1.959 1.641,3.577 3.418,4.853c1.777,1.276 3.941,1.914 6.493,1.914c3.554,-0 8.703,-1.231 15.447,-3.691l3.281,29.8c-8.931,3.828 -19.047,5.742 -30.348,5.742c-6.926,-0 -13.168,-1.162 -18.728,-3.486c-5.559,-2.324 -9.637,-5.331 -12.234,-9.022c-2.598,-3.691 -4.397,-8.681 -5.4,-14.969c-0.82,-4.465 -1.23,-13.488 -1.23,-27.067l-0,-63.292l-17.635,0l0,-30.621l17.635,0l-0,-28.844l38.549,-22.419l0,51.263l26.247,0Z" style="fill:#b7b7b7;fill-rule:nonzero;"/></g></svg>