<?xml version="1.0" encoding="UTF-8" standalone="no"?><!DOCTYPE svg PUBLIC "-//W3C//DTD SVG 1.1//EN" "http://www.w3.org/Graphics/SVG/1.1/DTD/svg11.dtd"><svg width="100%" height="100%" viewBox="0 0 1024 1024" version="1.1" xmlns="http://www.w3.org/2000/svg" xmlns:xlink="http://www.w3.org/1999/xlink" xml:space="preserve" xmlns:serif="http://www.serif.com/" style="fill-rule:evenodd;clip-rule:evenodd;stroke-linecap:round;stroke-linejoin:round;stroke-miterlimit:1.5;"><g id="Key_Sq"><path d="M862,400l0,350c0,96.585 -78.415,175 -175,175l-350,0c-96.585,0 -175,-78.415 -175,-175l0,-350c0,-96.585 78.415,-175 175,-175l350,0c96.585,0 175,78.415 175,175Z" style="stroke:#000;stroke-width:50px;"/><path d="M862,337l0,350c0,96.585 -78.415,175 -175,175l-350,-0c-96.585,-0 -175,-78.415 -175,-175l0,-350c0,-96.585 78.415,-175 175,-175l350,-0c96.585,-0 175,78.415 175,175Z" style="fill:#232323;stroke:#000;stroke-width:50px;"/><path d="M319.558,639.382l-0,-259.183l177.68,-0l-0,43.845l-125.349,-0l0,61.348l108.199,0l0,43.846l-108.199,-0l0,110.144l-52.331,-0Z" style="fill:#b7b7b7;fill-rule:nonzero;"/><path d="M530.122,572.729l49.502,-5.127c1.415,11.197 5.599,20.067 12.553,26.608c6.954,6.542 14.969,9.812 24.044,9.812c10.372,0 19.153,-4.213 26.343,-12.641c7.19,-8.427 10.784,-21.127 10.784,-38.099c0,-15.912 -3.565,-27.846 -10.696,-35.801c-7.131,-7.956 -16.412,-11.934 -27.845,-11.934c-14.262,-0 -27.05,6.306 -38.365,18.917l-40.309,-5.834l25.458,-134.895l131.36,-0l-0,46.497l-93.702,-0l-7.779,44.022c11.079,-5.54 22.394,-8.309 33.945,-8.309c22.04,-0 40.722,8.014 56.044,24.044c15.322,16.029 22.983,36.832 22.983,62.409c0,21.333 -6.187,40.368 -18.563,57.105c-16.855,22.866 -40.251,34.298 -70.188,34.298c-23.927,0 -43.433,-6.423 -58.52,-19.27c-15.086,-12.848 -24.103,-30.115 -27.049,-51.802Z" style="fill:#b7b7b7;fill-rule:nonzero;"/></g></svg>