<?xml version="1.0" encoding="UTF-8" standalone="no"?><!DOCTYPE svg PUBLIC "-//W3C//DTD SVG 1.1//EN" "http://www.w3.org/Graphics/SVG/1.1/DTD/svg11.dtd"><svg width="100%" height="100%" viewBox="0 0 1024 1024" version="1.1" xmlns="http://www.w3.org/2000/svg" xmlns:xlink="http://www.w3.org/1999/xlink" xml:space="preserve" xmlns:serif="http://www.serif.com/" style="fill-rule:evenodd;clip-rule:evenodd;stroke-linecap:round;stroke-linejoin:round;stroke-miterlimit:1.5;"><g id="Key_Sq"><path d="M862,400l0,350c0,96.585 -78.415,175 -175,175l-350,0c-96.585,0 -175,-78.415 -175,-175l0,-350c0,-96.585 78.415,-175 175,-175l350,0c96.585,0 175,78.415 175,175Z" style="stroke:#000;stroke-width:50px;"/><path d="M862,337l0,350c0,96.585 -78.415,175 -175,175l-350,-0c-96.585,-0 -175,-78.415 -175,-175l0,-350c0,-96.585 78.415,-175 175,-175l350,-0c96.585,-0 175,78.415 175,175Z" style="fill:#232323;stroke:#000;stroke-width:50px;"/><path d="M351.683,573.138l-0,-78.196c25.562,-27.776 55.351,-41.665 89.367,-41.665c12.68,0 24.354,1.258 35.022,3.774c10.668,2.516 29.839,9.36 57.515,20.531c27.676,11.17 46.445,16.756 56.307,16.756c11.272,-0 24.304,-3.472 39.098,-10.416c14.794,-6.944 29.236,-17.964 43.325,-33.06l0,81.517c-9.259,9.662 -22.191,18.719 -38.796,27.173c-16.605,8.453 -33.764,12.68 -51.477,12.68c-10.063,0 -19.876,-1.207 -29.436,-3.623c-9.561,-2.415 -24.707,-8.152 -45.439,-17.209c-30.996,-13.486 -55.351,-20.228 -73.063,-20.228c-28.179,-0 -55.653,13.988 -82.423,41.966Z" style="fill:#b7b7b7;fill-rule:nonzero;"/></g></svg>