<?xml version="1.0" encoding="UTF-8" standalone="no"?><!DOCTYPE svg PUBLIC "-//W3C//DTD SVG 1.1//EN" "http://www.w3.org/Graphics/SVG/1.1/DTD/svg11.dtd"><svg width="100%" height="100%" viewBox="0 0 1024 1024" version="1.1" xmlns="http://www.w3.org/2000/svg" xmlns:xlink="http://www.w3.org/1999/xlink" xml:space="preserve" xmlns:serif="http://www.serif.com/" style="fill-rule:evenodd;clip-rule:evenodd;stroke-linecap:round;stroke-linejoin:round;stroke-miterlimit:1.5;"><g id="Key_Sq"><path d="M862,400l0,350c0,96.585 -78.415,175 -175,175l-350,0c-96.585,0 -175,-78.415 -175,-175l0,-350c0,-96.585 78.415,-175 175,-175l350,0c96.585,0 175,78.415 175,175Z" style="stroke:#000;stroke-width:50px;"/><path d="M862,337l0,350c0,96.585 -78.415,175 -175,175l-350,-0c-96.585,-0 -175,-78.415 -175,-175l0,-350c0,-96.585 78.415,-175 175,-175l350,-0c96.585,-0 175,78.415 175,175Z" style="fill:#232323;stroke:#000;stroke-width:50px;"/><path d="M315.971,590.761l0,-160.144l118.743,0l-0,27.091l-86.408,0l-0,35.503l80.4,-0l-0,26.982l-80.4,-0l-0,43.586l89.466,0l0,26.982l-121.801,0Z" style="fill:#b7b7b7;fill-rule:nonzero;"/><path d="M570.497,590.761l-30.696,0l0,-59.207c0,-12.526 -0.655,-20.628 -1.966,-24.306c-1.311,-3.678 -3.441,-6.536 -6.391,-8.575c-2.949,-2.039 -6.499,-3.059 -10.65,-3.059c-5.317,0 -10.087,1.457 -14.311,4.37c-4.223,2.913 -7.118,6.773 -8.684,11.579c-1.566,4.807 -2.349,13.691 -2.349,26.654l0,52.544l-30.696,0l0,-116.011l28.512,-0l-0,17.041c10.122,-13.109 22.867,-19.663 38.233,-19.663c6.773,-0 12.963,1.22 18.571,3.659c5.607,2.44 9.849,5.553 12.726,9.34c2.877,3.787 4.879,8.084 6.008,12.89c1.129,4.807 1.693,11.689 1.693,20.647l0,72.097Z" style="fill:#b7b7b7;fill-rule:nonzero;"/><path d="M708.029,590.761l-28.512,0l0,-17.041c-4.733,6.627 -10.323,11.561 -16.768,14.802c-6.445,3.24 -12.944,4.861 -19.499,4.861c-13.327,-0 -24.742,-5.371 -34.246,-16.113c-9.504,-10.742 -14.256,-25.726 -14.256,-44.952c0,-19.663 4.625,-34.61 13.874,-44.842c9.248,-10.232 20.937,-15.348 35.065,-15.348c12.963,-0 24.178,5.389 33.646,16.167l-0,-57.678l30.696,0l-0,160.144Zm-81.929,-60.518c-0,12.38 1.711,21.338 5.134,26.873c4.952,8.01 11.871,12.016 20.755,12.016c7.064,-0 13.073,-3.004 18.025,-9.012c4.952,-6.009 7.428,-14.984 7.428,-26.928c-0,-13.327 -2.403,-22.922 -7.21,-28.784c-4.806,-5.863 -10.96,-8.794 -18.461,-8.794c-7.283,0 -13.382,2.895 -18.298,8.685c-4.915,5.789 -7.373,14.437 -7.373,25.944Z" style="fill:#b7b7b7;fill-rule:nonzero;"/></g></svg>