<?xml version="1.0" encoding="UTF-8" standalone="no"?><!DOCTYPE svg PUBLIC "-//W3C//DTD SVG 1.1//EN" "http://www.w3.org/Graphics/SVG/1.1/DTD/svg11.dtd"><svg width="100%" height="100%" viewBox="0 0 1024 1024" version="1.1" xmlns="http://www.w3.org/2000/svg" xmlns:xlink="http://www.w3.org/1999/xlink" xml:space="preserve" xmlns:serif="http://www.serif.com/" style="fill-rule:evenodd;clip-rule:evenodd;stroke-linecap:round;stroke-linejoin:round;stroke-miterlimit:1.5;"><g id="Key_Wide"><path d="M992.003,400l-0,350c-0,96.585 -78.415,175 -175,175l-610.006,0c-96.585,0 -175,-78.415 -175,-175l0,-350c0,-96.585 78.415,-175 175,-175l610.006,0c96.585,0 175,78.415 175,175Z" style="stroke:#000;stroke-width:50px;"/><path d="M992.003,337l-0,350c-0,96.585 -78.415,175 -175,175l-610.006,-0c-96.585,-0 -175,-78.415 -175,-175l0,-350c0,-96.585 78.415,-175 175,-175l610.006,-0c96.585,-0 175,78.415 175,175Z" style="fill:#232323;stroke:#000;stroke-width:50px;"/><g id="ShiftLeft"><path id="ShiftLeft1" serif:id="ShiftLeft" d="M103.381,515.676l168.75,-225l168.75,225l-337.5,0Z" style="fill:#b7b7b7;"/><path d="M272.131,733.324l0,-262.648" style="fill:none;stroke:#b7b7b7;stroke-width:100px;stroke-linecap:butt;"/><path d="M481.058,543.562l27.246,-2.649c1.64,9.146 4.967,15.863 9.981,20.151c5.014,4.289 11.778,6.433 20.293,6.433c9.019,0 15.815,-1.907 20.387,-5.723c4.573,-3.816 6.859,-8.278 6.859,-13.387c0,-3.279 -0.962,-6.07 -2.885,-8.372c-1.924,-2.302 -5.283,-4.305 -10.076,-6.008c-3.279,-1.135 -10.753,-3.153 -22.421,-6.054c-15.011,-3.721 -25.543,-8.294 -31.598,-13.718c-8.514,-7.631 -12.772,-16.934 -12.772,-27.908c0,-7.064 2.003,-13.671 6.008,-19.82c4.005,-6.149 9.776,-10.832 17.312,-14.049c7.537,-3.216 16.635,-4.825 27.294,-4.825c17.407,0 30.51,3.816 39.308,11.447c8.798,7.632 13.418,17.818 13.86,30.558l-28.003,1.23c-1.199,-7.127 -3.769,-12.252 -7.711,-15.374c-3.942,-3.122 -9.854,-4.683 -17.738,-4.683c-8.136,0 -14.506,1.672 -19.11,5.014c-2.964,2.145 -4.447,5.015 -4.447,8.61c0,3.279 1.388,6.086 4.163,8.419c3.532,2.965 12.109,6.055 25.732,9.272c13.624,3.216 23.699,6.543 30.227,9.98c6.527,3.438 11.636,8.136 15.326,14.096c3.689,5.961 5.534,13.324 5.534,22.091c-0,7.946 -2.207,15.389 -6.622,22.326c-4.415,6.938 -10.659,12.094 -18.732,15.468c-8.073,3.374 -18.133,5.062 -30.179,5.062c-17.533,-0 -30.999,-4.053 -40.396,-12.157c-9.397,-8.105 -15.011,-19.914 -16.84,-35.43Z" style="fill:#b7b7b7;fill-rule:nonzero;"/><path d="M643.684,449.998l-0,50.992c8.577,-10.028 18.826,-15.042 30.746,-15.042c6.118,0 11.636,1.135 16.556,3.406c4.919,2.27 8.625,5.172 11.116,8.704c2.491,3.531 4.194,7.442 5.109,11.731c0.914,4.288 1.371,10.942 1.371,19.961l0,58.939l-26.584,-0l0,-53.073c0,-10.533 -0.504,-17.218 -1.513,-20.057c-1.009,-2.838 -2.791,-5.092 -5.345,-6.764c-2.555,-1.671 -5.755,-2.507 -9.603,-2.507c-4.415,0 -8.356,1.072 -11.825,3.217c-3.469,2.144 -6.008,5.376 -7.616,9.697c-1.608,4.32 -2.412,10.706 -2.412,19.157l-0,50.33l-26.584,-0l-0,-138.691l26.584,0Z" style="fill:#b7b7b7;fill-rule:nonzero;"/><path d="M735.545,474.596l-0,-24.598l26.584,0l-0,24.598l-26.584,-0Zm-0,114.093l-0,-100.47l26.584,-0l-0,100.47l-26.584,-0Z" style="fill:#b7b7b7;fill-rule:nonzero;"/><path d="M777.738,488.219l14.759,-0l-0,-7.569c-0,-8.451 0.898,-14.758 2.696,-18.921c1.797,-4.162 5.109,-7.552 9.933,-10.17c4.825,-2.617 10.927,-3.926 18.306,-3.926c7.569,0 14.979,1.136 22.232,3.406l-3.594,18.543c-4.226,-1.01 -8.294,-1.514 -12.204,-1.514c-3.848,-0 -6.607,0.899 -8.278,2.696c-1.672,1.798 -2.507,5.251 -2.507,10.359l-0,7.096l19.867,-0l-0,20.907l-19.867,0l-0,79.563l-26.584,-0l-0,-79.563l-14.759,0l0,-20.907Z" style="fill:#b7b7b7;fill-rule:nonzero;"/><path d="M899.968,488.219l-0,21.191l-18.165,0l0,40.491c0,8.199 0.174,12.977 0.521,14.333c0.347,1.356 1.135,2.475 2.365,3.358c1.23,0.883 2.728,1.324 4.494,1.324c2.459,0 6.023,-0.851 10.69,-2.554l2.27,20.624c-6.18,2.649 -13.181,3.973 -21.002,3.973c-4.793,0 -9.113,-0.804 -12.961,-2.412c-3.847,-1.608 -6.669,-3.69 -8.467,-6.244c-1.797,-2.554 -3.043,-6.007 -3.737,-10.359c-0.567,-3.091 -0.851,-9.335 -0.851,-18.732l-0,-43.802l-12.204,0l-0,-21.191l12.204,-0l-0,-19.962l26.678,-15.515l0,35.477l18.165,-0Z" style="fill:#b7b7b7;fill-rule:nonzero;"/></g></g></svg>