<?xml version="1.0" encoding="UTF-8" standalone="no"?><!DOCTYPE svg PUBLIC "-//W3C//DTD SVG 1.1//EN" "http://www.w3.org/Graphics/SVG/1.1/DTD/svg11.dtd"><svg width="100%" height="100%" viewBox="0 0 1024 1024" version="1.1" xmlns="http://www.w3.org/2000/svg" xmlns:xlink="http://www.w3.org/1999/xlink" xml:space="preserve" xmlns:serif="http://www.serif.com/" style="fill-rule:evenodd;clip-rule:evenodd;stroke-linecap:round;stroke-linejoin:round;stroke-miterlimit:1.5;"><g id="Key_Sq"><path d="M862,400l0,350c0,96.585 -78.415,175 -175,175l-350,0c-96.585,0 -175,-78.415 -175,-175l0,-350c0,-96.585 78.415,-175 175,-175l350,0c96.585,0 175,78.415 175,175Z" style="stroke:#000;stroke-width:50px;"/><path d="M862,337l0,350c0,96.585 -78.415,175 -175,175l-350,-0c-96.585,-0 -175,-78.415 -175,-175l0,-350c0,-96.585 78.415,-175 175,-175l350,-0c96.585,-0 175,78.415 175,175Z" style="fill:#232323;stroke:#000;stroke-width:50px;"/><path d="M468.071,617.52l-45.589,-35.325c14.492,-16.303 29.588,-31.902 45.287,-46.797c6.24,-6.038 10.165,-9.862 11.775,-11.472c-5.032,-0.805 -19.423,-4.127 -43.174,-9.964c-17.108,-4.226 -28.38,-7.346 -33.814,-9.359l17.813,-53.137c26.367,10.668 49.916,22.442 70.648,35.324c-4.831,-32.808 -7.246,-59.578 -7.246,-80.31l53.741,0c-0,14.694 -2.717,41.665 -8.152,80.914c4.026,-1.61 12.681,-5.535 25.965,-11.775c18.115,-8.252 34.821,-15.297 50.118,-21.134l16.001,54.647c-22.341,5.032 -48.205,9.963 -77.592,14.794l36.23,40.758c7.246,8.253 12.982,14.995 17.209,20.229l-46.193,30.493l-40.759,-67.327c-12.277,21.738 -26.367,44.885 -42.268,69.441Z" style="fill:#b7b7b7;fill-rule:nonzero;"/></g></svg>