<?xml version="1.0" encoding="UTF-8" standalone="no"?><!DOCTYPE svg PUBLIC "-//W3C//DTD SVG 1.1//EN" "http://www.w3.org/Graphics/SVG/1.1/DTD/svg11.dtd"><svg width="100%" height="100%" viewBox="0 0 1024 1024" version="1.1" xmlns="http://www.w3.org/2000/svg" xmlns:xlink="http://www.w3.org/1999/xlink" xml:space="preserve" xmlns:serif="http://www.serif.com/" style="fill-rule:evenodd;clip-rule:evenodd;stroke-linecap:round;stroke-linejoin:round;stroke-miterlimit:1.5;"><g id="Key_Sq"><path d="M862,400l0,350c0,96.585 -78.415,175 -175,175l-350,0c-96.585,0 -175,-78.415 -175,-175l0,-350c0,-96.585 78.415,-175 175,-175l350,0c96.585,0 175,78.415 175,175Z" style="stroke:#000;stroke-width:50px;"/><path d="M862,337l0,350c0,96.585 -78.415,175 -175,175l-350,-0c-96.585,-0 -175,-78.415 -175,-175l0,-350c0,-96.585 78.415,-175 175,-175l350,-0c96.585,-0 175,78.415 175,175Z" style="fill:#232323;stroke:#000;stroke-width:50px;"/><path d="M639.559,323.605l-83.026,8.755c-0.806,-14.894 -5.183,-26.267 -13.134,-34.116c-7.95,-7.85 -18.97,-11.775 -33.06,-11.775c-13.083,-0 -23.046,2.868 -29.889,8.605c-6.844,5.736 -10.265,12.227 -10.265,19.473c-0,9.863 4.629,19.323 13.888,28.38c6.239,6.039 26.87,20.329 61.893,42.872c35.022,22.543 58.169,38.645 69.44,48.307c17.511,14.693 30.041,29.235 37.589,43.627c7.548,14.391 11.321,30.342 11.321,47.853c0,18.719 -4.579,35.978 -13.737,51.779c-9.158,15.8 -22.895,30.141 -41.211,43.023c12.278,11.271 21.436,23.298 27.474,36.079c6.038,12.781 9.058,26.317 9.058,40.607c-0,29.789 -11.171,54.748 -33.513,74.875c-22.342,20.128 -54.445,30.192 -96.311,30.192c-40.256,0 -72.46,-9.963 -96.613,-29.89c-24.153,-19.926 -38.444,-46.495 -42.872,-79.705l82.725,-9.964c3.623,18.115 10.516,31.752 20.681,40.91c10.164,9.158 22.996,13.737 38.494,13.737c13.284,0 23.852,-3.472 31.701,-10.416c7.85,-6.944 11.775,-15.347 11.775,-25.21c0,-9.46 -3.724,-17.914 -11.171,-25.361c-7.648,-7.447 -34.469,-25.814 -80.46,-55.099c-45.992,-29.286 -75.932,-53.591 -89.82,-72.913c-13.888,-19.323 -20.832,-40.96 -20.832,-64.912c-0,-19.725 4.528,-38.041 13.586,-54.949c9.057,-16.907 23.147,-30.795 42.268,-41.664c-10.064,-10.869 -17.662,-21.939 -22.795,-33.211c-5.132,-11.271 -7.699,-22.744 -7.699,-34.418c0,-27.173 10.618,-50.168 31.853,-68.988c21.234,-18.819 51.074,-28.229 89.518,-28.229c39.45,-0 70.497,9.41 93.141,28.229c22.643,18.82 35.978,43.325 40.003,73.517Zm-75.78,259.949c8.856,-8.051 15.448,-15.75 19.775,-23.097c4.327,-7.346 6.491,-14.441 6.491,-21.285c0,-6.642 -2.314,-13.485 -6.944,-20.53c-4.629,-7.045 -17.31,-18.115 -38.041,-33.211l-82.423,-59.779c-6.844,4.026 -12.882,9.762 -18.115,17.209c-5.233,7.448 -7.85,15.398 -7.85,23.852c0,20.329 13.586,39.651 40.759,57.967l86.348,58.874Z" style="fill:#b7b7b7;fill-rule:nonzero;"/></g></svg>