<?xml version="1.0" encoding="UTF-8" standalone="no"?><!DOCTYPE svg PUBLIC "-//W3C//DTD SVG 1.1//EN" "http://www.w3.org/Graphics/SVG/1.1/DTD/svg11.dtd"><svg width="100%" height="100%" viewBox="0 0 1024 1024" version="1.1" xmlns="http://www.w3.org/2000/svg" xmlns:xlink="http://www.w3.org/1999/xlink" xml:space="preserve" xmlns:serif="http://www.serif.com/" style="fill-rule:evenodd;clip-rule:evenodd;stroke-linecap:round;stroke-linejoin:round;stroke-miterlimit:1.5;"><g id="Key_Sq"><path d="M862,400l0,350c0,96.585 -78.415,175 -175,175l-350,0c-96.585,0 -175,-78.415 -175,-175l0,-350c0,-96.585 78.415,-175 175,-175l350,0c96.585,0 175,78.415 175,175Z" style="stroke:#000;stroke-width:50px;"/><path d="M862,337l0,350c0,96.585 -78.415,175 -175,175l-350,-0c-96.585,-0 -175,-78.415 -175,-175l0,-350c0,-96.585 78.415,-175 175,-175l350,-0c96.585,-0 175,78.415 175,175Z" style="fill:#232323;stroke:#000;stroke-width:50px;"/><path d="M716.699,677.299l-51.326,65.516c-25.159,-12.278 -49.313,-29.186 -72.46,-50.722c-17.913,16.102 -36.934,27.977 -57.062,35.626c-20.127,7.648 -44.079,11.473 -71.856,11.473c-55.15,-0 -96.613,-15.499 -124.389,-46.495c-21.537,-23.952 -32.305,-51.527 -32.305,-82.725c0,-28.38 8.454,-53.892 25.361,-76.536c16.907,-22.644 42.168,-42.319 75.781,-59.025c-15.096,-17.913 -26.468,-34.971 -34.117,-51.174c-7.648,-16.203 -11.472,-31.55 -11.472,-46.042c-0,-26.77 10.718,-49.464 32.154,-68.082c21.436,-18.618 51.979,-27.928 91.631,-27.928c38.243,0 68.132,9.762 89.669,29.286c21.537,19.524 32.305,43.375 32.305,71.554c0,17.914 -5.334,34.922 -16.002,51.024c-10.667,16.102 -32.204,34.318 -64.609,54.647l61.59,81.215c7.246,-12.882 13.486,-29.688 18.719,-50.42l76.687,17.511c-7.649,27.173 -14.291,47.049 -19.927,59.629c-5.635,12.579 -11.674,23.096 -18.115,31.55c9.46,8.856 21.688,18.568 36.683,29.135c14.995,10.567 26.015,17.561 33.06,20.983Zm-230.966,-240.627l22.946,-17.511c16.907,-13.083 25.361,-26.065 25.361,-38.947c-0,-10.869 -4.076,-20.128 -12.228,-27.776c-8.151,-7.649 -19.171,-11.473 -33.06,-11.473c-13.485,-0 -24.052,3.371 -31.701,10.114c-7.648,6.743 -11.472,14.542 -11.472,23.398c-0,10.467 6.44,23.147 19.322,38.042l20.832,24.153Zm-33.21,92.084c-19.524,9.863 -34.117,21.738 -43.778,35.626c-9.661,13.889 -14.492,28.079 -14.492,42.57c-0,18.317 5.988,33.262 17.964,44.835c11.976,11.573 28.028,17.36 48.155,17.36c13.285,0 26.066,-2.616 38.344,-7.85c12.278,-5.233 25.663,-13.888 40.154,-25.964l-86.347,-106.577Z" style="fill:#b7b7b7;fill-rule:nonzero;"/></g></svg>