<?xml version="1.0" encoding="UTF-8" standalone="no"?><!DOCTYPE svg PUBLIC "-//W3C//DTD SVG 1.1//EN" "http://www.w3.org/Graphics/SVG/1.1/DTD/svg11.dtd"><svg width="100%" height="100%" viewBox="0 0 1024 1024" version="1.1" xmlns="http://www.w3.org/2000/svg" xmlns:xlink="http://www.w3.org/1999/xlink" xml:space="preserve" xmlns:serif="http://www.serif.com/" style="fill-rule:evenodd;clip-rule:evenodd;stroke-linecap:round;stroke-linejoin:round;stroke-miterlimit:1.5;"><g id="Key_Sq"><path d="M862,400l0,350c0,96.585 -78.415,175 -175,175l-350,0c-96.585,0 -175,-78.415 -175,-175l0,-350c0,-96.585 78.415,-175 175,-175l350,0c96.585,0 175,78.415 175,175Z" style="stroke:#000;stroke-width:50px;"/><path d="M862,337l0,350c0,96.585 -78.415,175 -175,175l-350,-0c-96.585,-0 -175,-78.415 -175,-175l0,-350c0,-96.585 78.415,-175 175,-175l350,-0c96.585,-0 175,78.415 175,175Z" style="fill:#232323;stroke:#000;stroke-width:50px;"/><path d="M313.921,410.158l73.955,0c16.677,0 29.391,1.276 38.139,3.828c11.757,3.463 21.827,9.614 30.211,18.454c8.384,8.84 14.764,19.662 19.138,32.467c4.375,12.804 6.562,28.593 6.562,47.366c-0,16.496 -2.051,30.712 -6.152,42.651c-5.012,14.581 -12.166,26.383 -21.462,35.405c-7.017,6.835 -16.495,12.167 -28.433,15.994c-8.931,2.826 -20.87,4.238 -35.816,4.238l-76.142,0l-0,-200.403Zm40.463,33.902l0,132.736l30.211,0c11.301,0 19.457,-0.638 24.469,-1.914c6.562,-1.64 12.007,-4.42 16.336,-8.338c4.329,-3.919 7.86,-10.367 10.594,-19.344c2.735,-8.976 4.102,-21.211 4.102,-36.704c-0,-15.492 -1.367,-27.385 -4.102,-35.679c-2.734,-8.293 -6.561,-14.763 -11.482,-19.411c-4.922,-4.648 -11.164,-7.792 -18.728,-9.432c-5.651,-1.276 -16.723,-1.914 -33.219,-1.914l-18.181,-0Z" style="fill:#b7b7b7;fill-rule:nonzero;"/><path d="M600.035,564.356l38.276,6.425c-4.921,14.035 -12.69,24.72 -23.307,32.057c-10.617,7.336 -23.9,11.004 -39.848,11.004c-25.244,-0 -43.927,-8.248 -56.048,-24.743c-9.569,-13.214 -14.353,-29.892 -14.353,-50.032c-0,-24.06 6.288,-42.901 18.865,-56.526c12.576,-13.624 28.479,-20.437 47.708,-20.437c21.599,0 38.641,7.132 51.126,21.394c12.485,14.262 18.455,36.112 17.908,65.548l-96.237,-0c0.273,11.392 3.372,20.254 9.295,26.588c5.924,6.334 13.306,9.501 22.146,9.501c6.015,-0 11.072,-1.641 15.174,-4.921c4.101,-3.281 7.199,-8.567 9.295,-15.858Zm2.187,-38.823c-0.273,-11.118 -3.144,-19.571 -8.612,-25.358c-5.468,-5.787 -12.121,-8.68 -19.958,-8.68c-8.384,-0 -15.311,3.053 -20.779,9.159c-5.468,6.106 -8.156,14.399 -8.065,24.879l57.414,0Z" style="fill:#b7b7b7;fill-rule:nonzero;"/><rect x="671.666" y="410.158" width="38.413" height="200.403" style="fill:#b7b7b7;fill-rule:nonzero;"/></g></svg>