<?xml version="1.0" encoding="UTF-8" standalone="no"?><!DOCTYPE svg PUBLIC "-//W3C//DTD SVG 1.1//EN" "http://www.w3.org/Graphics/SVG/1.1/DTD/svg11.dtd"><svg width="100%" height="100%" viewBox="0 0 1024 1024" version="1.1" xmlns="http://www.w3.org/2000/svg" xmlns:xlink="http://www.w3.org/1999/xlink" xml:space="preserve" xmlns:serif="http://www.serif.com/" style="fill-rule:evenodd;clip-rule:evenodd;stroke-linecap:round;stroke-linejoin:round;stroke-miterlimit:1.5;"><g id="Key_Sq"><path d="M862,400l0,350c0,96.585 -78.415,175 -175,175l-350,0c-96.585,0 -175,-78.415 -175,-175l0,-350c0,-96.585 78.415,-175 175,-175l350,0c96.585,0 175,78.415 175,175Z" style="stroke:#000;stroke-width:50px;"/><path d="M862,337l0,350c0,96.585 -78.415,175 -175,175l-350,-0c-96.585,-0 -175,-78.415 -175,-175l0,-350c0,-96.585 78.415,-175 175,-175l350,-0c96.585,-0 175,78.415 175,175Z" style="fill:#232323;stroke:#000;stroke-width:50px;"/><path d="M322.475,639.824l-0,-259.183l177.68,-0l-0,43.845l-125.349,-0l0,61.348l108.199,0l0,43.846l-108.199,-0l0,110.144l-52.331,-0Z" style="fill:#b7b7b7;fill-rule:nonzero;"/><path d="M533.392,579.89l48.089,-5.304c1.178,9.782 4.243,17.031 9.193,21.746c4.951,4.714 11.492,7.072 19.625,7.072c10.254,-0 18.976,-4.715 26.165,-14.144c7.19,-9.429 11.787,-28.995 13.79,-58.696c-12.493,14.497 -28.11,21.745 -46.85,21.745c-20.391,0 -37.982,-7.867 -52.774,-23.602c-14.792,-15.735 -22.188,-36.213 -22.188,-61.436c0,-26.284 7.809,-47.47 23.425,-63.559c15.617,-16.088 35.507,-24.132 59.669,-24.132c26.284,-0 47.853,10.166 64.707,30.497c16.855,20.332 25.282,53.776 25.282,100.332c0,47.381 -8.781,81.562 -26.342,102.542c-17.562,20.979 -40.428,31.469 -68.597,31.469c-20.273,0 -36.656,-5.392 -49.149,-16.177c-12.494,-10.784 -20.509,-26.902 -24.045,-48.353Zm112.443,-108.553c-0,-16.03 -3.684,-28.464 -11.05,-37.304c-7.367,-8.84 -15.882,-13.26 -25.547,-13.26c-9.194,0 -16.825,3.625 -22.895,10.873c-6.07,7.249 -9.105,19.124 -9.105,35.625c-0,16.736 3.3,29.024 9.9,36.862c6.601,7.838 14.851,11.757 24.752,11.757c9.547,-0 17.591,-3.772 24.132,-11.315c6.542,-7.544 9.813,-18.623 9.813,-33.238Z" style="fill:#b7b7b7;fill-rule:nonzero;"/></g></svg>