<?xml version="1.0" encoding="UTF-8" standalone="no"?><!DOCTYPE svg PUBLIC "-//W3C//DTD SVG 1.1//EN" "http://www.w3.org/Graphics/SVG/1.1/DTD/svg11.dtd"><svg width="100%" height="100%" viewBox="0 0 1024 1024" version="1.1" xmlns="http://www.w3.org/2000/svg" xmlns:xlink="http://www.w3.org/1999/xlink" xml:space="preserve" xmlns:serif="http://www.serif.com/" style="fill-rule:evenodd;clip-rule:evenodd;stroke-linecap:round;stroke-linejoin:round;stroke-miterlimit:1.5;"><g id="Key_Sq"><path d="M862,400l0,350c0,96.585 -78.415,175 -175,175l-350,0c-96.585,0 -175,-78.415 -175,-175l0,-350c0,-96.585 78.415,-175 175,-175l350,0c96.585,0 175,78.415 175,175Z" style="stroke:#000;stroke-width:50px;"/><path d="M862,337l0,350c0,96.585 -78.415,175 -175,175l-350,-0c-96.585,-0 -175,-78.415 -175,-175l0,-350c0,-96.585 78.415,-175 175,-175l350,-0c96.585,-0 175,78.415 175,175Z" style="fill:#232323;stroke:#000;stroke-width:50px;"/><path d="M343.513,642.122l0,-259.183l177.68,-0l0,43.845l-125.348,0l0,61.349l108.199,-0l0,43.845l-108.199,-0l0,110.144l-52.332,-0Z" style="fill:#b7b7b7;fill-rule:nonzero;"/><path d="M680.487,642.122l-49.68,-0l-0,-187.227c-18.151,16.972 -39.543,29.525 -64.177,37.657l-0,-45.083c12.965,-4.243 27.05,-12.287 42.254,-24.132c15.205,-11.846 25.636,-25.665 31.293,-41.459l40.31,0l-0,260.244Z" style="fill:#b7b7b7;fill-rule:nonzero;"/></g></svg>