<?xml version="1.0" encoding="UTF-8" standalone="no"?><!DOCTYPE svg PUBLIC "-//W3C//DTD SVG 1.1//EN" "http://www.w3.org/Graphics/SVG/1.1/DTD/svg11.dtd"><svg width="100%" height="100%" viewBox="0 0 1024 1024" version="1.1" xmlns="http://www.w3.org/2000/svg" xmlns:xlink="http://www.w3.org/1999/xlink" xml:space="preserve" xmlns:serif="http://www.serif.com/" style="fill-rule:evenodd;clip-rule:evenodd;stroke-linecap:round;stroke-linejoin:round;stroke-miterlimit:1.5;"><g id="Key_Sq"><path d="M862,400l0,350c0,96.585 -78.415,175 -175,175l-350,0c-96.585,0 -175,-78.415 -175,-175l0,-350c0,-96.585 78.415,-175 175,-175l350,0c96.585,0 175,78.415 175,175Z" style="stroke:#000;stroke-width:50px;"/><path d="M862,337l0,350c0,96.585 -78.415,175 -175,175l-350,-0c-96.585,-0 -175,-78.415 -175,-175l0,-350c0,-96.585 78.415,-175 175,-175l350,-0c96.585,-0 175,78.415 175,175Z" style="fill:#232323;stroke:#000;stroke-width:50px;"/><path d="M651.636,396.215l-82.121,9.058c-2.013,-16.907 -7.246,-29.387 -15.7,-37.438c-8.453,-8.051 -19.423,-12.076 -32.908,-12.076c-17.914,-0 -33.06,8.051 -45.439,24.153c-12.378,16.102 -20.178,49.615 -23.398,100.538c21.134,-24.959 47.4,-37.438 78.8,-37.438c35.425,0 65.767,13.486 91.027,40.457c25.261,26.971 37.891,61.792 37.891,104.463c-0,45.287 -13.285,81.618 -39.853,108.991c-26.569,27.374 -60.685,41.061 -102.35,41.061c-44.683,-0 -81.416,-17.36 -110.199,-52.081c-28.782,-34.72 -43.174,-91.631 -43.174,-170.733c0,-81.115 14.995,-139.586 44.986,-175.413c29.99,-35.827 68.937,-53.741 116.841,-53.741c33.613,0 61.44,9.41 83.48,28.229c22.04,18.82 36.079,46.143 42.117,81.97Zm-192.32,185.075c-0,27.575 6.34,48.86 19.02,63.855c12.681,14.995 27.173,22.493 43.476,22.493c15.7,-0 28.783,-6.139 39.249,-18.417c10.467,-12.278 15.7,-32.406 15.7,-60.383c-0,-28.783 -5.636,-49.867 -16.907,-63.252c-11.272,-13.385 -25.361,-20.077 -42.269,-20.077c-16.303,-0 -30.09,6.39 -41.362,19.171c-11.272,12.782 -16.907,31.651 -16.907,56.61Z" style="fill:#b7b7b7;fill-rule:nonzero;"/></g></svg>