<?xml version="1.0" encoding="UTF-8" standalone="no"?><!DOCTYPE svg PUBLIC "-//W3C//DTD SVG 1.1//EN" "http://www.w3.org/Graphics/SVG/1.1/DTD/svg11.dtd"><svg width="100%" height="100%" viewBox="0 0 1024 1024" version="1.1" xmlns="http://www.w3.org/2000/svg" xmlns:xlink="http://www.w3.org/1999/xlink" xml:space="preserve" xmlns:serif="http://www.serif.com/" style="fill-rule:evenodd;clip-rule:evenodd;stroke-linecap:round;stroke-linejoin:round;stroke-miterlimit:1.5;"><g id="Key_Sq"><path d="M862,400l0,350c0,96.585 -78.415,175 -175,175l-350,0c-96.585,0 -175,-78.415 -175,-175l0,-350c0,-96.585 78.415,-175 175,-175l350,0c96.585,0 175,78.415 175,175Z" style="stroke:#000;stroke-width:50px;"/><path d="M862,337l0,350c0,96.585 -78.415,175 -175,175l-350,-0c-96.585,-0 -175,-78.415 -175,-175l0,-350c0,-96.585 78.415,-175 175,-175l350,-0c96.585,-0 175,78.415 175,175Z" style="fill:#232323;stroke:#000;stroke-width:50px;"/><path d="M547.928,621.444l-76.989,0c-0.201,-11.07 -0.301,-17.813 -0.301,-20.228c-0,-24.958 4.126,-45.489 12.378,-61.591c8.252,-16.102 24.757,-34.217 49.514,-54.345c24.757,-20.127 39.551,-33.311 44.382,-39.551c7.447,-9.862 11.171,-20.731 11.171,-32.606c-0,-16.505 -6.592,-30.645 -19.776,-42.42c-13.183,-11.774 -30.946,-17.662 -53.288,-17.662c-21.536,0 -39.551,6.139 -54.043,18.417c-14.492,12.278 -24.455,30.997 -29.889,56.157l-77.895,-9.662c2.214,-36.028 17.562,-66.622 46.042,-91.782c28.481,-25.16 65.868,-37.74 112.162,-37.74c48.709,0 87.455,12.731 116.238,38.193c28.782,25.461 43.174,55.099 43.174,88.914c-0,18.719 -5.284,36.431 -15.851,53.137c-10.567,16.706 -33.16,39.45 -67.78,68.233c-17.914,14.895 -29.034,26.871 -33.362,35.928c-4.327,9.057 -6.29,25.26 -5.887,48.608Zm-76.989,114.125l0,-84.839l84.839,0l-0,84.839l-84.839,-0Z" style="fill:#b7b7b7;fill-rule:nonzero;"/></g></svg>