<?xml version="1.0" encoding="UTF-8" standalone="no"?><!DOCTYPE svg PUBLIC "-//W3C//DTD SVG 1.1//EN" "http://www.w3.org/Graphics/SVG/1.1/DTD/svg11.dtd"><svg width="100%" height="100%" viewBox="0 0 1024 1024" version="1.1" xmlns="http://www.w3.org/2000/svg" xmlns:xlink="http://www.w3.org/1999/xlink" xml:space="preserve" xmlns:serif="http://www.serif.com/" style="fill-rule:evenodd;clip-rule:evenodd;stroke-linecap:round;stroke-linejoin:round;stroke-miterlimit:1.5;"><g id="Key_Sq"><path d="M862,400l0,350c0,96.585 -78.415,175 -175,175l-350,0c-96.585,0 -175,-78.415 -175,-175l0,-350c0,-96.585 78.415,-175 175,-175l350,0c96.585,0 175,78.415 175,175Z" style="stroke:#000;stroke-width:50px;"/><path d="M862,337l0,350c0,96.585 -78.415,175 -175,175l-350,-0c-96.585,-0 -175,-78.415 -175,-175l0,-350c0,-96.585 78.415,-175 175,-175l350,-0c96.585,-0 175,78.415 175,175Z" style="fill:#232323;stroke:#000;stroke-width:50px;"/><path d="M222.32,639.912l-0,-259.183l177.68,-0l-0,43.845l-125.349,0l0,61.349l108.2,-0l-0,43.845l-108.2,-0l0,110.144l-52.331,-0Z" style="fill:#b7b7b7;fill-rule:nonzero;"/><path d="M559.293,639.912l-49.68,-0l0,-187.227c-18.151,16.972 -39.543,29.525 -64.177,37.657l0,-45.082c12.965,-4.244 27.05,-12.288 42.255,-24.133c15.204,-11.845 25.635,-25.665 31.292,-41.459l40.31,0l-0,260.244Z" style="fill:#b7b7b7;fill-rule:nonzero;"/><path d="M717.525,379.668c25.105,0 44.73,8.958 58.873,26.873c16.855,21.216 25.282,56.398 25.282,105.547c0,49.032 -8.486,84.273 -25.458,105.724c-14.026,17.68 -33.592,26.52 -58.697,26.52c-25.223,-0 -45.554,-9.695 -60.994,-29.083c-15.44,-19.389 -23.161,-53.952 -23.161,-103.691c0,-48.796 8.487,-83.919 25.459,-105.37c14.026,-17.68 33.591,-26.52 58.696,-26.52Zm0,41.194c-6.011,-0 -11.374,1.915 -16.088,5.746c-4.715,3.83 -8.368,10.696 -10.961,20.596c-3.419,12.847 -5.128,34.475 -5.128,64.884c0,30.409 1.533,51.301 4.597,62.675c3.065,11.373 6.925,18.946 11.58,22.718c4.656,3.772 9.989,5.657 16,5.657c6.011,0 11.374,-1.915 16.089,-5.746c4.714,-3.83 8.368,-10.696 10.961,-20.596c3.418,-12.73 5.127,-34.299 5.127,-64.708c0,-30.409 -1.532,-51.3 -4.596,-62.674c-3.065,-11.374 -6.925,-18.976 -11.581,-22.806c-4.655,-3.831 -9.989,-5.746 -16,-5.746Z" style="fill:#b7b7b7;fill-rule:nonzero;"/></g></svg>