<?xml version="1.0" encoding="UTF-8" standalone="no"?><!DOCTYPE svg PUBLIC "-//W3C//DTD SVG 1.1//EN" "http://www.w3.org/Graphics/SVG/1.1/DTD/svg11.dtd"><svg width="100%" height="100%" viewBox="0 0 1024 1024" version="1.1" xmlns="http://www.w3.org/2000/svg" xmlns:xlink="http://www.w3.org/1999/xlink" xml:space="preserve" xmlns:serif="http://www.serif.com/" style="fill-rule:evenodd;clip-rule:evenodd;stroke-linecap:round;stroke-linejoin:round;stroke-miterlimit:1.5;"><g id="Key_Sq"><path d="M862,400l0,350c0,96.585 -78.415,175 -175,175l-350,0c-96.585,0 -175,-78.415 -175,-175l0,-350c0,-96.585 78.415,-175 175,-175l350,0c96.585,0 175,78.415 175,175Z" style="stroke:#000;stroke-width:50px;"/><path d="M862,337l0,350c0,96.585 -78.415,175 -175,175l-350,-0c-96.585,-0 -175,-78.415 -175,-175l0,-350c0,-96.585 78.415,-175 175,-175l350,-0c96.585,-0 175,78.415 175,175Z" style="fill:#232323;stroke:#000;stroke-width:50px;"/><path d="M213.874,590.761l0,-160.144l32.335,0l-0,63.031l63.358,-0l0,-63.031l32.335,0l-0,160.144l-32.335,0l0,-70.022l-63.358,0l-0,70.022l-32.335,0Z" style="fill:#b7b7b7;fill-rule:nonzero;"/><path d="M368.01,531.117c-0,-10.196 2.512,-20.064 7.537,-29.604c5.025,-9.54 12.144,-16.823 21.356,-21.848c9.213,-5.025 19.499,-7.537 30.86,-7.537c17.551,-0 31.934,5.699 43.15,17.096c11.215,11.397 16.822,25.798 16.822,43.204c0,17.551 -5.662,32.098 -16.986,43.64c-11.325,11.543 -25.58,17.315 -42.767,17.315c-10.633,-0 -20.774,-2.403 -30.423,-7.21c-9.65,-4.806 -16.987,-11.852 -22.012,-21.138c-5.025,-9.285 -7.537,-20.591 -7.537,-33.918Zm31.46,1.638c0,11.507 2.731,20.319 8.193,26.436c5.462,6.117 12.199,9.176 20.21,9.176c8.01,0 14.729,-3.059 20.154,-9.176c5.426,-6.117 8.138,-15.002 8.138,-26.654c0,-11.361 -2.712,-20.1 -8.138,-26.217c-5.425,-6.118 -12.144,-9.176 -20.154,-9.176c-8.011,-0 -14.748,3.058 -20.21,9.176c-5.462,6.117 -8.193,14.929 -8.193,26.435Z" style="fill:#b7b7b7;fill-rule:nonzero;"/><path d="M509.474,474.75l28.293,-0l-0,15.839c10.122,-12.307 22.175,-18.461 36.158,-18.461c7.428,-0 13.873,1.529 19.335,4.588c5.462,3.059 9.94,7.683 13.436,13.873c5.098,-6.19 10.596,-10.814 16.495,-13.873c5.899,-3.059 12.198,-4.588 18.898,-4.588c8.521,-0 15.731,1.73 21.63,5.189c5.899,3.459 10.305,8.539 13.218,15.239c2.112,4.952 3.167,12.963 3.167,24.032l0,74.173l-30.696,0l0,-66.308c0,-11.506 -1.056,-18.934 -3.167,-22.284c-2.841,-4.37 -7.21,-6.555 -13.109,-6.555c-4.297,0 -8.339,1.311 -12.126,3.933c-3.787,2.622 -6.518,6.463 -8.193,11.524c-1.675,5.062 -2.512,13.054 -2.512,23.978l0,55.712l-30.696,0l-0,-63.577c-0,-11.288 -0.546,-18.57 -1.639,-21.848c-1.092,-3.277 -2.785,-5.716 -5.079,-7.319c-2.294,-1.602 -5.408,-2.403 -9.34,-2.403c-4.734,0 -8.994,1.275 -12.781,3.824c-3.787,2.548 -6.5,6.226 -8.138,11.033c-1.639,4.806 -2.458,12.781 -2.458,23.923l-0,56.367l-30.696,0l-0,-116.011Z" style="fill:#b7b7b7;fill-rule:nonzero;"/><path d="M777.873,553.838l30.587,5.135c-3.933,11.215 -10.141,19.754 -18.625,25.616c-8.485,5.863 -19.099,8.794 -31.843,8.794c-20.173,-0 -35.102,-6.591 -44.788,-19.772c-7.647,-10.56 -11.47,-23.887 -11.47,-39.982c-0,-19.226 5.025,-34.282 15.075,-45.17c10.05,-10.887 22.758,-16.331 38.124,-16.331c17.26,-0 30.878,5.699 40.855,17.096c9.977,11.397 14.747,28.857 14.31,52.38l-76.904,-0c0.219,9.103 2.695,16.185 7.429,21.247c4.733,5.061 10.632,7.592 17.696,7.592c4.807,-0 8.849,-1.311 12.126,-3.933c3.277,-2.622 5.753,-6.846 7.428,-12.672Zm1.748,-31.023c-0.219,-8.885 -2.513,-15.64 -6.882,-20.264c-4.37,-4.625 -9.686,-6.937 -15.949,-6.937c-6.7,0 -12.235,2.44 -16.604,7.319c-4.37,4.88 -6.518,11.507 -6.445,19.882l45.88,-0Z" style="fill:#b7b7b7;fill-rule:nonzero;"/></g></svg>