<?xml version="1.0" encoding="UTF-8" standalone="no"?><!DOCTYPE svg PUBLIC "-//W3C//DTD SVG 1.1//EN" "http://www.w3.org/Graphics/SVG/1.1/DTD/svg11.dtd"><svg width="100%" height="100%" viewBox="0 0 1024 1024" version="1.1" xmlns="http://www.w3.org/2000/svg" xmlns:xlink="http://www.w3.org/1999/xlink" xml:space="preserve" xmlns:serif="http://www.serif.com/" style="fill-rule:evenodd;clip-rule:evenodd;stroke-linecap:round;stroke-linejoin:round;stroke-miterlimit:1.5;"><g id="Key_Sq"><path d="M862,400l0,350c0,96.585 -78.415,175 -175,175l-350,0c-96.585,0 -175,-78.415 -175,-175l0,-350c0,-96.585 78.415,-175 175,-175l350,0c96.585,0 175,78.415 175,175Z" style="stroke:#000;stroke-width:50px;"/><path d="M862,337l0,350c0,96.585 -78.415,175 -175,175l-350,-0c-96.585,-0 -175,-78.415 -175,-175l0,-350c0,-96.585 78.415,-175 175,-175l350,-0c96.585,-0 175,78.415 175,175Z" style="fill:#232323;stroke:#000;stroke-width:50px;"/><path d="M326.473,290.696l163.336,-0c36.834,-0 64.912,2.818 84.235,8.453c25.964,7.649 48.206,21.235 66.723,40.759c18.518,19.524 32.607,43.426 42.268,71.705c9.662,28.279 14.492,63.151 14.492,104.614c0,36.431 -4.529,67.83 -13.586,94.198c-11.07,32.204 -26.87,58.269 -47.401,78.196c-15.498,15.095 -36.431,26.87 -62.798,35.324c-19.725,6.239 -46.093,9.359 -79.102,9.359l-168.167,0l-0,-442.608Zm89.367,74.875l-0,293.16l66.723,0c24.959,0 42.973,-1.409 54.043,-4.227c14.492,-3.623 26.518,-9.762 36.079,-18.417c9.561,-8.655 17.36,-22.895 23.399,-42.721c6.038,-19.826 9.057,-46.847 9.057,-81.064c-0,-34.217 -3.019,-60.484 -9.057,-78.8c-6.039,-18.316 -14.492,-32.607 -25.361,-42.872c-10.869,-10.265 -24.657,-17.209 -41.363,-20.832c-12.479,-2.818 -36.934,-4.227 -73.365,-4.227l-40.155,-0Z" style="fill:#b7b7b7;fill-rule:nonzero;"/></g></svg>