<?xml version="1.0" encoding="UTF-8" standalone="no"?><!DOCTYPE svg PUBLIC "-//W3C//DTD SVG 1.1//EN" "http://www.w3.org/Graphics/SVG/1.1/DTD/svg11.dtd"><svg width="100%" height="100%" viewBox="0 0 1024 1024" version="1.1" xmlns="http://www.w3.org/2000/svg" xmlns:xlink="http://www.w3.org/1999/xlink" xml:space="preserve" xmlns:serif="http://www.serif.com/" style="fill-rule:evenodd;clip-rule:evenodd;stroke-linecap:round;stroke-linejoin:round;stroke-miterlimit:1.5;"><g id="Key_Sq"><path d="M862,400l0,350c0,96.585 -78.415,175 -175,175l-350,0c-96.585,0 -175,-78.415 -175,-175l0,-350c0,-96.585 78.415,-175 175,-175l350,0c96.585,0 175,78.415 175,175Z" style="stroke:#000;stroke-width:50px;"/><path d="M862,337l0,350c0,96.585 -78.415,175 -175,175l-350,-0c-96.585,-0 -175,-78.415 -175,-175l0,-350c0,-96.585 78.415,-175 175,-175l350,-0c96.585,-0 175,78.415 175,175Z" style="fill:#232323;stroke:#000;stroke-width:50px;"/><path d="M372.666,627.936l82.121,-9.058c2.013,16.706 7.246,29.085 15.7,37.136c8.453,8.051 19.624,12.076 33.512,12.076c17.511,0 32.406,-8.051 44.684,-24.153c12.278,-16.102 20.127,-49.514 23.549,-100.236c-21.335,24.757 -48.004,37.136 -80.007,37.136c-34.821,-0 -64.862,-13.435 -90.122,-40.306c-25.261,-26.87 -37.891,-61.842 -37.891,-104.916c0,-44.884 13.335,-81.064 40.004,-108.538c26.669,-27.475 60.635,-41.212 101.897,-41.212c44.884,0 81.718,17.36 110.501,52.081c28.782,34.72 43.174,91.832 43.174,171.337c-0,80.913 -14.995,139.284 -44.986,175.111c-29.99,35.827 -69.038,53.741 -117.143,53.741c-34.62,-0 -62.597,-9.209 -83.933,-27.625c-21.335,-18.417 -35.022,-45.942 -41.06,-82.574Zm192.018,-185.377c0,-27.373 -6.29,-48.608 -18.869,-63.704c-12.58,-15.096 -27.123,-22.644 -43.627,-22.644c-15.7,0 -28.733,6.19 -39.098,18.568c-10.366,12.379 -15.549,32.658 -15.549,60.836c-0,28.582 5.636,49.565 16.907,62.95c11.272,13.385 25.361,20.077 42.268,20.077c16.304,0 30.041,-6.441 41.212,-19.322c11.171,-12.882 16.756,-31.802 16.756,-56.761Z" style="fill:#b7b7b7;fill-rule:nonzero;"/></g></svg>