<?xml version="1.0" encoding="UTF-8" standalone="no"?><!DOCTYPE svg PUBLIC "-//W3C//DTD SVG 1.1//EN" "http://www.w3.org/Graphics/SVG/1.1/DTD/svg11.dtd"><svg width="100%" height="100%" viewBox="0 0 1024 1024" version="1.1" xmlns="http://www.w3.org/2000/svg" xmlns:xlink="http://www.w3.org/1999/xlink" xml:space="preserve" xmlns:serif="http://www.serif.com/" style="fill-rule:evenodd;clip-rule:evenodd;stroke-linecap:round;stroke-linejoin:round;stroke-miterlimit:1.5;"><g id="Key_Sq"><path d="M862,400l0,350c0,96.585 -78.415,175 -175,175l-350,0c-96.585,0 -175,-78.415 -175,-175l0,-350c0,-96.585 78.415,-175 175,-175l350,0c96.585,0 175,78.415 175,175Z" style="stroke:#000;stroke-width:50px;"/><path d="M862,337l0,350c0,96.585 -78.415,175 -175,175l-350,-0c-96.585,-0 -175,-78.415 -175,-175l0,-350c0,-96.585 78.415,-175 175,-175l350,-0c96.585,-0 175,78.415 175,175Z" style="fill:#232323;stroke:#000;stroke-width:50px;"/><path d="M363.156,612.689l84.536,-8.756c2.415,19.122 9.561,34.268 21.436,45.439c11.875,11.171 25.562,16.756 41.061,16.756c17.712,-0 32.707,-7.196 44.985,-21.587c12.278,-14.391 18.417,-36.079 18.417,-65.063c-0,-27.172 -6.089,-47.552 -18.266,-61.138c-12.177,-13.586 -28.028,-20.379 -47.552,-20.379c-24.354,-0 -46.193,10.768 -65.516,32.305l-68.836,-9.963l43.476,-230.362l224.323,-0l-0,79.404l-160.015,-0l-13.285,75.177c18.92,-9.46 38.243,-14.19 57.968,-14.19c37.639,-0 69.541,13.687 95.707,41.06c26.166,27.374 39.249,62.899 39.249,106.577c0,36.431 -10.567,68.937 -31.701,97.518c-28.782,39.048 -68.736,58.572 -119.86,58.572c-40.86,0 -74.171,-10.97 -99.934,-32.909c-25.764,-21.939 -41.162,-51.426 -46.193,-88.461Z" style="fill:#b7b7b7;fill-rule:nonzero;"/></g></svg>