<?xml version="1.0" encoding="UTF-8" standalone="no"?><!DOCTYPE svg PUBLIC "-//W3C//DTD SVG 1.1//EN" "http://www.w3.org/Graphics/SVG/1.1/DTD/svg11.dtd"><svg width="100%" height="100%" viewBox="0 0 1024 1024" version="1.1" xmlns="http://www.w3.org/2000/svg" xmlns:xlink="http://www.w3.org/1999/xlink" xml:space="preserve" xmlns:serif="http://www.serif.com/" style="fill-rule:evenodd;clip-rule:evenodd;stroke-linecap:round;stroke-linejoin:round;stroke-miterlimit:1.5;"><g id="Key_Sq"><path d="M862,400l0,350c0,96.585 -78.415,175 -175,175l-350,0c-96.585,0 -175,-78.415 -175,-175l0,-350c0,-96.585 78.415,-175 175,-175l350,0c96.585,0 175,78.415 175,175Z" style="stroke:#000;stroke-width:50px;"/><path d="M862,337l0,350c0,96.585 -78.415,175 -175,175l-350,-0c-96.585,-0 -175,-78.415 -175,-175l0,-350c0,-96.585 78.415,-175 175,-175l350,-0c96.585,-0 175,78.415 175,175Z" style="fill:#232323;stroke:#000;stroke-width:50px;"/><path d="M440.446,491.47c-21.939,-9.259 -37.89,-21.99 -47.854,-38.193c-9.963,-16.202 -14.944,-33.965 -14.944,-53.288c-0,-33.009 11.523,-60.282 34.569,-81.819c23.046,-21.537 55.804,-32.305 98.273,-32.305c42.067,0 74.725,10.768 97.972,32.305c23.248,21.537 34.871,48.81 34.871,81.819c0,20.531 -5.334,38.796 -16.001,54.798c-10.668,16.002 -25.663,28.229 -44.986,36.683c24.556,9.862 43.225,24.254 56.006,43.174c12.781,18.92 19.171,40.758 19.171,65.515c0,40.86 -13.032,74.07 -39.098,99.633c-26.065,25.562 -60.735,38.343 -104.01,38.343c-40.255,-0 -73.768,-10.567 -100.538,-31.701c-31.6,-24.959 -47.4,-59.176 -47.4,-102.652c-0,-23.952 5.937,-45.941 17.813,-65.968c11.875,-20.027 30.594,-35.475 56.156,-46.344Zm17.511,-85.442c0,16.907 4.78,30.091 14.341,39.551c9.561,9.46 22.292,14.19 38.192,14.19c16.103,-0 28.984,-4.781 38.646,-14.341c9.661,-9.561 14.492,-22.795 14.492,-39.702c-0,-15.901 -4.781,-28.632 -14.341,-38.193c-9.561,-9.56 -22.191,-14.341 -37.891,-14.341c-16.303,0 -29.286,4.831 -38.947,14.492c-9.661,9.662 -14.492,22.443 -14.492,38.344Zm-7.85,189.603c0,23.348 5.988,41.563 17.964,54.646c11.976,13.083 26.921,19.625 44.835,19.625c17.511,-0 32.003,-6.29 43.476,-18.87c11.472,-12.58 17.209,-30.745 17.209,-54.496c-0,-20.731 -5.837,-37.387 -17.511,-49.967c-11.674,-12.579 -26.468,-18.869 -44.382,-18.869c-20.731,-0 -36.179,7.145 -46.344,21.436c-10.164,14.29 -15.247,29.789 -15.247,46.495Z" style="fill:#b7b7b7;fill-rule:nonzero;"/></g></svg>