<?xml version="1.0" encoding="UTF-8" standalone="no"?><!DOCTYPE svg PUBLIC "-//W3C//DTD SVG 1.1//EN" "http://www.w3.org/Graphics/SVG/1.1/DTD/svg11.dtd"><svg width="100%" height="100%" viewBox="0 0 1024 1024" version="1.1" xmlns="http://www.w3.org/2000/svg" xmlns:xlink="http://www.w3.org/1999/xlink" xml:space="preserve" xmlns:serif="http://www.serif.com/" style="fill-rule:evenodd;clip-rule:evenodd;stroke-linecap:round;stroke-linejoin:round;stroke-miterlimit:1.5;"><g id="Key_Sq"><path d="M862,400l0,350c0,96.585 -78.415,175 -175,175l-350,0c-96.585,0 -175,-78.415 -175,-175l0,-350c0,-96.585 78.415,-175 175,-175l350,0c96.585,0 175,78.415 175,175Z" style="stroke:#000;stroke-width:50px;"/><path d="M862,337l0,350c0,96.585 -78.415,175 -175,175l-350,-0c-96.585,-0 -175,-78.415 -175,-175l0,-350c0,-96.585 78.415,-175 175,-175l350,-0c96.585,-0 175,78.415 175,175Z" style="fill:#232323;stroke:#000;stroke-width:50px;"/><path d="M342.474,733.304l0,-442.608l143.41,-0c54.345,-0 89.77,2.214 106.275,6.642c25.361,6.642 46.595,21.084 63.704,43.325c17.108,22.241 25.663,50.973 25.663,86.197c-0,27.172 -4.932,50.017 -14.794,68.535c-9.863,18.517 -22.392,33.059 -37.589,43.626c-15.196,10.568 -30.644,17.562 -46.344,20.984c-21.335,4.226 -52.231,6.34 -92.688,6.34l-58.27,-0l0,166.959l-89.367,0Zm89.367,-367.733l0,125.597l48.911,-0c35.223,-0 58.773,-2.315 70.648,-6.944c11.875,-4.63 21.184,-11.876 27.927,-21.738c6.743,-9.863 10.114,-21.336 10.114,-34.419c0,-16.102 -4.73,-29.386 -14.19,-39.852c-9.46,-10.467 -21.436,-17.008 -35.928,-19.625c-10.667,-2.013 -32.103,-3.019 -64.308,-3.019l-43.174,-0Z" style="fill:#b7b7b7;fill-rule:nonzero;"/></g></svg>