<?xml version="1.0" encoding="UTF-8" standalone="no"?><!DOCTYPE svg PUBLIC "-//W3C//DTD SVG 1.1//EN" "http://www.w3.org/Graphics/SVG/1.1/DTD/svg11.dtd"><svg width="100%" height="100%" viewBox="0 0 1024 1024" version="1.1" xmlns="http://www.w3.org/2000/svg" xmlns:xlink="http://www.w3.org/1999/xlink" xml:space="preserve" xmlns:serif="http://www.serif.com/" style="fill-rule:evenodd;clip-rule:evenodd;stroke-linecap:round;stroke-linejoin:round;stroke-miterlimit:1.5;"><g id="Key_Sq"><path d="M862,400l0,350c0,96.585 -78.415,175 -175,175l-350,0c-96.585,0 -175,-78.415 -175,-175l0,-350c0,-96.585 78.415,-175 175,-175l350,0c96.585,0 175,78.415 175,175Z" style="stroke:#000;stroke-width:50px;"/><path d="M862,337l0,350c0,96.585 -78.415,175 -175,175l-350,-0c-96.585,-0 -175,-78.415 -175,-175l0,-350c0,-96.585 78.415,-175 175,-175l350,-0c96.585,-0 175,78.415 175,175Z" style="fill:#232323;stroke:#000;stroke-width:50px;"/><path d="M587.932,802.141l-58.27,0c-30.795,-46.495 -54.244,-94.802 -70.346,-144.92c-16.102,-50.118 -24.154,-98.625 -24.154,-145.523c0,-58.169 9.964,-113.218 29.89,-165.148c17.31,-45.086 39.249,-86.65 65.818,-124.691l57.968,-0c-27.575,60.987 -46.546,112.866 -56.912,155.638c-10.365,42.771 -15.548,88.109 -15.548,136.013c-0,33.009 3.069,66.824 9.208,101.443c6.139,34.62 14.542,67.529 25.21,98.727c7.045,20.53 19.423,50.017 37.136,88.461Z" style="fill:#b7b7b7;fill-rule:nonzero;"/></g></svg>