<?xml version="1.0" encoding="UTF-8" standalone="no"?><!DOCTYPE svg PUBLIC "-//W3C//DTD SVG 1.1//EN" "http://www.w3.org/Graphics/SVG/1.1/DTD/svg11.dtd"><svg width="100%" height="100%" viewBox="0 0 1024 1024" version="1.1" xmlns="http://www.w3.org/2000/svg" xmlns:xlink="http://www.w3.org/1999/xlink" xml:space="preserve" xmlns:serif="http://www.serif.com/" style="fill-rule:evenodd;clip-rule:evenodd;stroke-linecap:round;stroke-linejoin:round;stroke-miterlimit:1.5;"><g id="Key_Enter"><path d="M789.041,991.881l-563.63,-0c-86.151,-0 -155.993,-69.836 -156,-155.987c-0.004,-54.673 -0.009,-116.055 -0.014,-170.73c-0.003,-41.376 16.431,-81.059 45.687,-110.317c29.256,-29.259 68.937,-45.696 110.313,-45.696l50.469,-0c41.421,-0 75,-33.579 75,-75l-0,-184.996c-0,-91.383 74.191,-165.575 165.574,-165.575l272.601,0c91.383,0 165.575,74.192 165.575,165.575l-0,577.151c-0,91.383 -74.192,165.575 -165.575,165.575Z" style="stroke:#000;stroke-width:50px;"/><path d="M789.041,961.42l-563.63,-0c-86.151,-0 -155.993,-69.836 -156,-155.988c-0.004,-54.673 -0.009,-116.055 -0.014,-170.73c-0.003,-41.376 16.431,-81.058 45.687,-110.317c29.256,-29.258 68.937,-45.695 110.313,-45.695l50.469,-0c41.421,-0 75,-33.579 75,-75l-0,-184.996c-0,-91.383 74.191,-165.575 165.574,-165.575l272.601,0c91.383,0 165.575,74.192 165.575,165.575l-0,577.151c-0,91.383 -74.192,165.575 -165.575,165.575Z" style="fill:#232323;stroke:#000;stroke-width:50px;"/><path d="M506.849,889.705l-225,-168.75l225,-168.75l-0,337.5Z" style="fill:#b7b7b7;"/><path d="M742.164,432.452l-0,288.503l-280.315,0" style="fill:none;stroke:#b7b7b7;stroke-width:100px;stroke-linecap:butt;"/></g></svg>