<?xml version="1.0" encoding="UTF-8" standalone="no"?><!DOCTYPE svg PUBLIC "-//W3C//DTD SVG 1.1//EN" "http://www.w3.org/Graphics/SVG/1.1/DTD/svg11.dtd"><svg width="100%" height="100%" viewBox="0 0 1024 1024" version="1.1" xmlns="http://www.w3.org/2000/svg" xmlns:xlink="http://www.w3.org/1999/xlink" xml:space="preserve" xmlns:serif="http://www.serif.com/" style="fill-rule:evenodd;clip-rule:evenodd;stroke-linecap:round;stroke-linejoin:round;stroke-miterlimit:1.5;"><g id="Key_Sq"><path d="M862,400l0,350c0,96.585 -78.415,175 -175,175l-350,0c-96.585,0 -175,-78.415 -175,-175l0,-350c0,-96.585 78.415,-175 175,-175l350,0c96.585,0 175,78.415 175,175Z" style="stroke:#000;stroke-width:50px;"/><path d="M862,337l0,350c0,96.585 -78.415,175 -175,175l-350,-0c-96.585,-0 -175,-78.415 -175,-175l0,-350c0,-96.585 78.415,-175 175,-175l350,-0c96.585,-0 175,78.415 175,175Z" style="fill:#232323;stroke:#000;stroke-width:50px;"/><path d="M568.267,763.658c-4.328,-26.588 -4.946,-47.611 -4.946,-85.947l-0,-34.626l87.802,-0c28.443,-0 42.046,0.618 68.015,4.328l0,-76.054c-22.259,3.092 -39.572,4.328 -68.015,4.328l-87.802,0l-0,-15.458l20.405,-32.153l68.015,0c29.061,0 48.229,1.237 68.634,4.329l-0,-76.054c-25.97,3.71 -37.099,4.328 -68.634,4.328l-27.206,0l81,-131.084c8.657,-14.222 37.718,-56.886 46.374,-69.253l-130.466,0c-4.946,17.313 -12.366,34.008 -29.061,63.069l-80.382,142.215l-80.382,-142.833c-16.695,-29.061 -22.878,-42.046 -29.68,-62.451l-129.847,0c20.404,29.062 30.297,43.901 45.755,69.253l81.619,131.084l-27.206,0c-30.298,0 -50.084,-1.236 -68.634,-4.328l0,76.054c29.061,-3.71 37.099,-4.329 68.634,-4.329l68.015,0l21.023,32.153l0,15.458l-90.275,0c-29.679,0 -51.321,-1.236 -68.015,-4.328l-0,76.054c17.931,-3.092 40.191,-4.328 68.015,-4.328l90.275,-0l0,34.626c0,32.152 -1.854,58.122 -5.564,85.947l112.534,-0Z" style="fill:#b7b7b7;fill-rule:nonzero;"/></g></svg>