<?xml version="1.0" encoding="UTF-8" standalone="no"?><!DOCTYPE svg PUBLIC "-//W3C//DTD SVG 1.1//EN" "http://www.w3.org/Graphics/SVG/1.1/DTD/svg11.dtd"><svg width="100%" height="100%" viewBox="0 0 1024 1024" version="1.1" xmlns="http://www.w3.org/2000/svg" xmlns:xlink="http://www.w3.org/1999/xlink" xml:space="preserve" xmlns:serif="http://www.serif.com/" style="fill-rule:evenodd;clip-rule:evenodd;stroke-linecap:round;stroke-linejoin:round;stroke-miterlimit:1.5;"><g id="Key_Sq"><path d="M862,400l0,350c0,96.585 -78.415,175 -175,175l-350,0c-96.585,0 -175,-78.415 -175,-175l0,-350c0,-96.585 78.415,-175 175,-175l350,0c96.585,0 175,78.415 175,175Z" style="stroke:#000;stroke-width:50px;"/><path d="M862,337l0,350c0,96.585 -78.415,175 -175,175l-350,-0c-96.585,-0 -175,-78.415 -175,-175l0,-350c0,-96.585 78.415,-175 175,-175l350,-0c96.585,-0 175,78.415 175,175Z" style="fill:#232323;stroke:#000;stroke-width:50px;"/><path d="M490.866,654.655l-0,-126.503c-39.45,-11.271 -68.384,-28.329 -86.801,-51.174c-18.417,-22.845 -27.625,-50.571 -27.625,-83.178c-0,-33.009 10.416,-60.735 31.248,-83.178c20.832,-22.442 48.558,-35.374 83.178,-38.796l-0,-29.89l43.778,0l-0,29.89c32.003,3.824 57.464,14.744 76.384,32.758c18.92,18.014 30.997,42.117 36.23,72.309l-76.384,9.963c-4.63,-23.751 -16.706,-39.853 -36.23,-48.307l-0,118.049c48.306,13.083 81.215,30.041 98.726,50.873c17.511,20.832 26.267,47.552 26.267,80.159c-0,36.431 -11.02,67.126 -33.06,92.084c-22.04,24.959 -52.684,40.256 -91.933,45.891l-0,56.459l-43.778,-0l-0,-54.949c-34.821,-4.227 -63.1,-17.209 -84.838,-38.947c-21.738,-21.738 -35.626,-52.433 -41.665,-92.084l78.8,-8.454c3.221,16.102 9.259,29.99 18.115,41.664c8.856,11.674 18.719,20.128 29.588,25.361Zm-0,-317.011c-11.875,4.025 -21.335,10.869 -28.38,20.53c-7.045,9.661 -10.567,20.329 -10.567,32.003c-0,10.668 3.22,20.581 9.661,29.739c6.441,9.158 16.203,16.555 29.286,22.191l-0,-104.463Zm43.778,321.238c15.095,-2.818 27.373,-9.812 36.833,-20.983c9.46,-11.171 14.19,-24.304 14.19,-39.4c0,-13.486 -3.975,-25.109 -11.925,-34.871c-7.951,-9.762 -20.983,-17.26 -39.098,-22.493l-0,117.747Z" style="fill:#b7b7b7;fill-rule:nonzero;"/></g></svg>