<?xml version="1.0" encoding="UTF-8" standalone="no"?><!DOCTYPE svg PUBLIC "-//W3C//DTD SVG 1.1//EN" "http://www.w3.org/Graphics/SVG/1.1/DTD/svg11.dtd"><svg width="100%" height="100%" viewBox="0 0 1024 1024" version="1.1" xmlns="http://www.w3.org/2000/svg" xmlns:xlink="http://www.w3.org/1999/xlink" xml:space="preserve" xmlns:serif="http://www.serif.com/" style="fill-rule:evenodd;clip-rule:evenodd;stroke-linecap:round;stroke-linejoin:round;stroke-miterlimit:1.5;"><g id="Key_Space"><path d="M992.003,493.75l-0,162.5c-0,44.843 -36.407,81.25 -81.25,81.25l-797.506,0c-44.843,0 -81.25,-36.407 -81.25,-81.25l0,-162.5c0,-44.843 36.407,-81.25 81.25,-81.25l797.506,-0c44.843,-0 81.25,36.407 81.25,81.25Z" style="stroke:#000;stroke-width:50px;"/><path d="M992.003,430.75l-0,162.5c-0,44.843 -36.407,81.25 -81.25,81.25l-797.506,0c-44.843,0 -81.25,-36.407 -81.25,-81.25l0,-162.5c0,-44.843 36.407,-81.25 81.25,-81.25l797.506,0c44.843,0 81.25,36.407 81.25,81.25Z" style="fill:#232323;stroke:#000;stroke-width:50px;"/></g></svg>