<?xml version="1.0" encoding="UTF-8" standalone="no"?><!DOCTYPE svg PUBLIC "-//W3C//DTD SVG 1.1//EN" "http://www.w3.org/Graphics/SVG/1.1/DTD/svg11.dtd"><svg width="100%" height="100%" viewBox="0 0 1024 1024" version="1.1" xmlns="http://www.w3.org/2000/svg" xmlns:xlink="http://www.w3.org/1999/xlink" xml:space="preserve" xmlns:serif="http://www.serif.com/" style="fill-rule:evenodd;clip-rule:evenodd;stroke-linecap:round;stroke-linejoin:round;stroke-miterlimit:1.5;"><g id="Key_Sq"><path d="M862,400l0,350c0,96.585 -78.415,175 -175,175l-350,0c-96.585,0 -175,-78.415 -175,-175l0,-350c0,-96.585 78.415,-175 175,-175l350,0c96.585,0 175,78.415 175,175Z" style="stroke:#000;stroke-width:50px;"/><path d="M862,337l0,350c0,96.585 -78.415,175 -175,175l-350,-0c-96.585,-0 -175,-78.415 -175,-175l0,-350c0,-96.585 78.415,-175 175,-175l350,-0c96.585,-0 175,78.415 175,175Z" style="fill:#232323;stroke:#000;stroke-width:50px;"/><path d="M526.341,570.572l-0,-74.574l192.622,0l0,176.319c-18.719,18.115 -45.841,34.066 -81.366,47.854c-35.525,13.787 -71.504,20.681 -107.935,20.681c-46.294,0 -86.65,-9.712 -121.068,-29.135c-34.419,-19.423 -60.283,-47.199 -77.592,-83.328c-17.31,-36.13 -25.965,-75.429 -25.965,-117.899c-0,-46.092 9.661,-87.052 28.984,-122.879c19.322,-35.828 47.602,-63.302 84.838,-82.423c28.38,-14.693 63.704,-22.04 105.972,-22.04c54.949,-0 97.871,11.523 128.767,34.569c30.897,23.046 50.773,54.899 59.629,95.557l-88.763,16.605c-6.24,-21.738 -17.964,-38.897 -35.174,-51.477c-17.209,-12.58 -38.695,-18.869 -64.459,-18.869c-39.047,-0 -70.094,12.378 -93.141,37.135c-23.046,24.757 -34.569,61.49 -34.569,110.199c0,52.534 11.674,91.934 35.022,118.2c23.348,26.267 53.943,39.4 91.783,39.4c18.718,0 37.488,-3.673 56.307,-11.019c18.819,-7.347 34.972,-16.254 48.457,-26.72l0,-56.156l-102.349,-0Z" style="fill:#b7b7b7;fill-rule:nonzero;"/></g></svg>