<?xml version="1.0" encoding="UTF-8" standalone="no"?><!DOCTYPE svg PUBLIC "-//W3C//DTD SVG 1.1//EN" "http://www.w3.org/Graphics/SVG/1.1/DTD/svg11.dtd"><svg width="100%" height="100%" viewBox="0 0 1024 1024" version="1.1" xmlns="http://www.w3.org/2000/svg" xmlns:xlink="http://www.w3.org/1999/xlink" xml:space="preserve" xmlns:serif="http://www.serif.com/" style="fill-rule:evenodd;clip-rule:evenodd;stroke-linecap:round;stroke-linejoin:round;stroke-miterlimit:1.5;"><g id="Key_Sq"><path d="M862,400l0,350c0,96.585 -78.415,175 -175,175l-350,0c-96.585,0 -175,-78.415 -175,-175l0,-350c0,-96.585 78.415,-175 175,-175l350,0c96.585,0 175,78.415 175,175Z" style="stroke:#000;stroke-width:50px;"/><path d="M862,337l0,350c0,96.585 -78.415,175 -175,175l-350,-0c-96.585,-0 -175,-78.415 -175,-175l0,-350c0,-96.585 78.415,-175 175,-175l350,-0c96.585,-0 175,78.415 175,175Z" style="fill:#232323;stroke:#000;stroke-width:50px;"/><path d="M320.53,639.912l-0,-259.183l177.68,-0l-0,43.845l-125.348,0l-0,61.349l108.199,-0l-0,43.845l-108.199,-0l-0,110.144l-52.332,-0Z" style="fill:#b7b7b7;fill-rule:nonzero;"/><path d="M698.697,444.199l-48.089,5.304c-1.179,-9.901 -4.243,-17.209 -9.193,-21.923c-4.951,-4.715 -11.374,-7.072 -19.271,-7.072c-10.49,0 -19.359,4.715 -26.608,14.144c-7.249,9.429 -11.816,29.053 -13.702,58.873c12.376,-14.615 27.757,-21.923 46.144,-21.923c20.744,0 38.512,7.897 53.304,23.691c14.792,15.794 22.188,36.184 22.188,61.171c0,26.52 -7.779,47.794 -23.337,63.824c-15.558,16.029 -35.536,24.044 -59.934,24.044c-26.166,-0 -47.676,-10.166 -64.53,-30.498c-16.855,-20.331 -25.282,-53.657 -25.282,-99.978c-0,-47.499 8.781,-81.738 26.342,-102.718c17.562,-20.98 40.369,-31.47 68.42,-31.47c19.684,0 35.978,5.51 48.885,16.531c12.906,11.02 21.127,27.02 24.663,48Zm-112.619,108.376c-0,16.147 3.712,28.611 11.138,37.392c7.425,8.781 15.911,13.171 25.458,13.171c9.194,0 16.855,-3.595 22.984,-10.784c6.129,-7.19 9.193,-18.976 9.193,-35.359c0,-16.855 -3.3,-29.201 -9.9,-37.039c-6.601,-7.838 -14.851,-11.757 -24.752,-11.757c-9.547,-0 -17.621,3.742 -24.221,11.226c-6.6,7.485 -9.9,18.535 -9.9,33.15Z" style="fill:#b7b7b7;fill-rule:nonzero;"/></g></svg>