<?xml version="1.0" encoding="UTF-8" standalone="no"?><!DOCTYPE svg PUBLIC "-//W3C//DTD SVG 1.1//EN" "http://www.w3.org/Graphics/SVG/1.1/DTD/svg11.dtd"><svg width="100%" height="100%" viewBox="0 0 1024 1024" version="1.1" xmlns="http://www.w3.org/2000/svg" xmlns:xlink="http://www.w3.org/1999/xlink" xml:space="preserve" xmlns:serif="http://www.serif.com/" style="fill-rule:evenodd;clip-rule:evenodd;stroke-linecap:round;stroke-linejoin:round;stroke-miterlimit:1.5;"><g id="Key_Sq"><path d="M862,400l0,350c0,96.585 -78.415,175 -175,175l-350,0c-96.585,0 -175,-78.415 -175,-175l0,-350c0,-96.585 78.415,-175 175,-175l350,0c96.585,0 175,78.415 175,175Z" style="stroke:#000;stroke-width:50px;"/><path d="M862,337l0,350c0,96.585 -78.415,175 -175,175l-350,-0c-96.585,-0 -175,-78.415 -175,-175l0,-350c0,-96.585 78.415,-175 175,-175l350,-0c96.585,-0 175,78.415 175,175Z" style="fill:#232323;stroke:#000;stroke-width:50px;"/><path d="M222.497,642.122l-0,-259.183l177.68,-0l-0,43.845l-125.349,0l0,61.349l108.199,-0l0,43.845l-108.199,-0l0,110.144l-52.331,-0Z" style="fill:#b7b7b7;fill-rule:nonzero;"/><path d="M559.47,642.122l-49.68,-0l0,-187.227c-18.151,16.972 -39.543,29.525 -64.177,37.657l0,-45.083c12.965,-4.243 27.05,-12.287 42.254,-24.132c15.205,-11.846 25.636,-25.665 31.293,-41.459l40.31,0l-0,260.244Z" style="fill:#b7b7b7;fill-rule:nonzero;"/><path d="M801.503,595.978l0,46.144l-174.144,-0c1.886,-17.444 7.544,-33.974 16.973,-49.591c9.429,-15.617 28.051,-36.332 55.867,-62.144c22.394,-20.862 36.126,-35.006 41.194,-42.431c6.836,-10.254 10.254,-20.391 10.254,-30.409c-0,-11.079 -2.976,-19.595 -8.928,-25.547c-5.952,-5.952 -14.173,-8.928 -24.663,-8.928c-10.372,-0 -18.623,3.123 -24.752,9.37c-6.129,6.247 -9.665,16.619 -10.607,31.116l-49.503,-4.95c2.946,-27.345 12.199,-46.969 27.757,-58.873c15.558,-11.905 35.005,-17.857 58.342,-17.857c25.577,0 45.673,6.895 60.288,20.685c14.615,13.79 21.922,30.94 21.922,51.448c0,11.668 -2.092,22.777 -6.276,33.326c-4.184,10.549 -10.814,21.599 -19.889,33.149c-6.011,7.661 -16.855,18.682 -32.531,33.061c-15.676,14.379 -25.606,23.926 -29.79,28.641c-4.184,4.715 -7.573,9.311 -10.166,13.79l98.652,0Z" style="fill:#b7b7b7;fill-rule:nonzero;"/></g></svg>