<?xml version="1.0" encoding="UTF-8" standalone="no"?><!DOCTYPE svg PUBLIC "-//W3C//DTD SVG 1.1//EN" "http://www.w3.org/Graphics/SVG/1.1/DTD/svg11.dtd"><svg width="100%" height="100%" viewBox="0 0 1024 1024" version="1.1" xmlns="http://www.w3.org/2000/svg" xmlns:xlink="http://www.w3.org/1999/xlink" xml:space="preserve" xmlns:serif="http://www.serif.com/" style="fill-rule:evenodd;clip-rule:evenodd;stroke-linecap:round;stroke-linejoin:round;stroke-miterlimit:1.5;"><g id="Key_Wide"><path d="M992.003,400l-0,350c-0,96.585 -78.415,175 -175,175l-610.006,0c-96.585,0 -175,-78.415 -175,-175l0,-350c0,-96.585 78.415,-175 175,-175l610.006,0c96.585,0 175,78.415 175,175Z" style="stroke:#000;stroke-width:50px;"/><path d="M992.003,337l-0,350c-0,96.585 -78.415,175 -175,175l-610.006,-0c-96.585,-0 -175,-78.415 -175,-175l0,-350c0,-96.585 78.415,-175 175,-175l610.006,-0c96.585,-0 175,78.415 175,175Z" style="fill:#232323;stroke:#000;stroke-width:50px;"/><g id="Caps"><path id="Caps1" serif:id="Caps" d="M343.25,515.676l168.75,-225l168.75,225l-337.5,0Z" style="fill:#b7b7b7;"/><path d="M512,580.876l0,-110.2" style="fill:none;stroke:#b7b7b7;stroke-width:100px;stroke-linecap:butt;"/><rect x="367.698" y="668.031" width="288.603" height="65.293" style="fill:#b7b7b7;"/></g></g></svg>