<?xml version="1.0" encoding="UTF-8" standalone="no"?><!DOCTYPE svg PUBLIC "-//W3C//DTD SVG 1.1//EN" "http://www.w3.org/Graphics/SVG/1.1/DTD/svg11.dtd"><svg width="100%" height="100%" viewBox="0 0 1024 1024" version="1.1" xmlns="http://www.w3.org/2000/svg" xmlns:xlink="http://www.w3.org/1999/xlink" xml:space="preserve" xmlns:serif="http://www.serif.com/" style="fill-rule:evenodd;clip-rule:evenodd;stroke-linecap:round;stroke-linejoin:round;stroke-miterlimit:1.5;"><g id="Key_Sq"><path d="M862,400l0,350c0,96.585 -78.415,175 -175,175l-350,0c-96.585,0 -175,-78.415 -175,-175l0,-350c0,-96.585 78.415,-175 175,-175l350,0c96.585,0 175,78.415 175,175Z" style="stroke:#000;stroke-width:50px;"/><path d="M862,337l0,350c0,96.585 -78.415,175 -175,175l-350,-0c-96.585,-0 -175,-78.415 -175,-175l0,-350c0,-96.585 78.415,-175 175,-175l350,-0c96.585,-0 175,78.415 175,175Z" style="fill:#232323;stroke:#000;stroke-width:50px;"/><path id="scrolllock" d="M210.712,540.115l31.692,-3.081c1.907,10.637 5.777,18.45 11.609,23.438c5.832,4.989 13.7,7.483 23.603,7.483c10.491,0 18.395,-2.219 23.714,-6.657c5.318,-4.439 7.978,-9.629 7.978,-15.571c-0,-3.815 -1.119,-7.061 -3.357,-9.738c-2.237,-2.678 -6.144,-5.007 -11.719,-6.988c-3.815,-1.32 -12.508,-3.668 -26.079,-7.042c-17.46,-4.329 -29.711,-9.647 -36.753,-15.956c-9.904,-8.877 -14.856,-19.697 -14.856,-32.462c0,-8.216 2.33,-15.9 6.988,-23.053c4.658,-7.153 11.371,-12.6 20.137,-16.341c8.767,-3.741 19.349,-5.612 31.746,-5.612c20.248,0 35.488,4.438 45.722,13.315c10.233,8.876 15.607,20.724 16.121,35.543l-32.572,1.43c-1.394,-8.289 -4.383,-14.25 -8.968,-17.881c-4.585,-3.632 -11.463,-5.447 -20.633,-5.447c-9.463,-0 -16.872,1.944 -22.228,5.832c-3.448,2.494 -5.172,5.832 -5.172,10.013c0,3.815 1.614,7.08 4.842,9.794c4.108,3.448 14.085,7.042 29.931,10.784c15.846,3.741 27.565,7.611 35.157,11.609c7.593,3.998 13.535,9.463 17.827,16.396c4.291,6.932 6.437,15.497 6.437,25.694c0,9.243 -2.567,17.9 -7.703,25.969c-5.135,8.07 -12.397,14.067 -21.787,17.992c-9.39,3.924 -21.091,5.887 -35.103,5.887c-20.394,-0 -36.056,-4.714 -46.987,-14.14c-10.93,-9.427 -17.459,-23.163 -19.587,-41.21Z" style="fill:#b7b7b7;fill-rule:nonzero;"/><path d="M470.955,510.294l-30.481,5.502c-1.027,-6.088 -3.356,-10.673 -6.987,-13.755c-3.631,-3.081 -8.345,-4.621 -14.14,-4.621c-7.703,-0 -13.847,2.659 -18.432,7.978c-4.585,5.318 -6.877,14.213 -6.877,26.684c-0,13.865 2.329,23.659 6.987,29.381c4.659,5.722 10.913,8.583 18.762,8.583c5.869,-0 10.674,-1.669 14.415,-5.007c3.742,-3.338 6.382,-9.078 7.923,-17.221l30.371,5.172c-3.155,13.938 -9.207,24.465 -18.157,31.581c-8.949,7.116 -20.944,10.674 -35.982,10.674c-17.093,-0 -30.72,-5.392 -40.88,-16.176c-10.16,-10.784 -15.241,-25.713 -15.241,-44.786c0,-19.294 5.099,-34.314 15.296,-45.061c10.197,-10.747 23.988,-16.121 41.375,-16.121c14.231,0 25.547,3.063 33.947,9.188c8.4,6.126 14.433,15.461 18.101,28.005Z" style="fill:#b7b7b7;fill-rule:nonzero;"/><path d="M523.994,592.604l-30.921,-0l0,-116.862l28.721,0l-0,16.616c4.915,-7.849 9.335,-13.021 13.259,-15.516c3.925,-2.494 8.382,-3.741 13.37,-3.741c7.043,0 13.828,1.944 20.357,5.832l-9.573,26.96c-5.209,-3.375 -10.05,-5.062 -14.525,-5.062c-4.329,0 -7.997,1.192 -11.004,3.576c-3.008,2.384 -5.374,6.694 -7.098,12.93c-1.724,6.235 -2.586,19.293 -2.586,39.174l0,36.093Z" style="fill:#b7b7b7;fill-rule:nonzero;"/><path d="M574.943,532.522c-0,-10.27 2.53,-20.21 7.592,-29.82c5.062,-9.61 12.233,-16.946 21.513,-22.008c9.28,-5.062 19.642,-7.593 31.086,-7.593c17.68,0 32.168,5.74 43.466,17.221c11.297,11.481 16.946,25.988 16.946,43.521c-0,17.679 -5.704,32.333 -17.111,43.961c-11.408,11.627 -25.768,17.441 -43.081,17.441c-10.71,-0 -20.926,-2.421 -30.646,-7.263c-9.72,-4.842 -17.111,-11.939 -22.173,-21.292c-5.062,-9.354 -7.592,-20.743 -7.592,-34.168Zm31.691,1.651c-0,11.591 2.751,20.467 8.253,26.629c5.502,6.163 12.288,9.244 20.357,9.244c8.07,-0 14.837,-3.081 20.302,-9.244c5.466,-6.162 8.198,-15.112 8.198,-26.849c0,-11.444 -2.732,-20.247 -8.198,-26.41c-5.465,-6.162 -12.232,-9.243 -20.302,-9.243c-8.069,0 -14.855,3.081 -20.357,9.243c-5.502,6.163 -8.253,15.039 -8.253,26.63Z" style="fill:#b7b7b7;fill-rule:nonzero;"/><rect x="719.754" y="431.286" width="30.921" height="161.318" style="fill:#b7b7b7;fill-rule:nonzero;"/><rect x="782.367" y="431.286" width="30.921" height="161.318" style="fill:#b7b7b7;fill-rule:nonzero;"/></g></svg>