<?xml version="1.0" encoding="UTF-8" standalone="no"?><!DOCTYPE svg PUBLIC "-//W3C//DTD SVG 1.1//EN" "http://www.w3.org/Graphics/SVG/1.1/DTD/svg11.dtd"><svg width="100%" height="100%" viewBox="0 0 1024 1024" version="1.1" xmlns="http://www.w3.org/2000/svg" xmlns:xlink="http://www.w3.org/1999/xlink" xml:space="preserve" xmlns:serif="http://www.serif.com/" style="fill-rule:evenodd;clip-rule:evenodd;stroke-linecap:round;stroke-linejoin:round;stroke-miterlimit:1.5;"><g id="Key_Sq"><path d="M862,400l0,350c0,96.585 -78.415,175 -175,175l-350,0c-96.585,0 -175,-78.415 -175,-175l0,-350c0,-96.585 78.415,-175 175,-175l350,0c96.585,0 175,78.415 175,175Z" style="stroke:#000;stroke-width:50px;"/><path d="M862,337l0,350c0,96.585 -78.415,175 -175,175l-350,-0c-96.585,-0 -175,-78.415 -175,-175l0,-350c0,-96.585 78.415,-175 175,-175l350,-0c96.585,-0 175,78.415 175,175Z" style="fill:#232323;stroke:#000;stroke-width:50px;"/><path d="M435.766,802.141c16.706,-35.827 28.481,-63.302 35.324,-82.423c6.844,-19.121 13.184,-41.161 19.021,-66.12c5.837,-24.958 10.165,-48.658 12.982,-71.101c2.818,-22.442 4.227,-45.438 4.227,-68.987c0,-47.904 -5.132,-93.242 -15.397,-136.013c-10.266,-42.772 -29.186,-94.651 -56.761,-155.638l57.666,-0c30.393,43.275 53.993,89.166 70.8,137.674c16.806,48.507 25.21,97.72 25.21,147.636c-0,42.067 -6.643,87.153 -19.927,135.259c-15.096,53.942 -39.953,107.18 -74.573,159.713l-58.572,0Z" style="fill:#b7b7b7;fill-rule:nonzero;"/></g></svg>