<?xml version="1.0" encoding="UTF-8" standalone="no"?><!DOCTYPE svg PUBLIC "-//W3C//DTD SVG 1.1//EN" "http://www.w3.org/Graphics/SVG/1.1/DTD/svg11.dtd"><svg width="100%" height="100%" viewBox="0 0 1024 1024" version="1.1" xmlns="http://www.w3.org/2000/svg" xmlns:xlink="http://www.w3.org/1999/xlink" xml:space="preserve" xmlns:serif="http://www.serif.com/" style="fill-rule:evenodd;clip-rule:evenodd;stroke-linecap:round;stroke-linejoin:round;stroke-miterlimit:1.5;"><g id="Key_Sq"><path d="M862,400l0,350c0,96.585 -78.415,175 -175,175l-350,0c-96.585,0 -175,-78.415 -175,-175l0,-350c0,-96.585 78.415,-175 175,-175l350,0c96.585,0 175,78.415 175,175Z" style="stroke:#000;stroke-width:50px;"/><path d="M862,337l0,350c0,96.585 -78.415,175 -175,175l-350,-0c-96.585,-0 -175,-78.415 -175,-175l0,-350c0,-96.585 78.415,-175 175,-175l350,-0c96.585,-0 175,78.415 175,175Z" style="fill:#232323;stroke:#000;stroke-width:50px;"/><path d="M615.255,548.23c-14.693,0.805 -25.763,3.019 -33.211,6.642c-7.447,3.623 -13.837,9.712 -19.171,18.266c-5.334,8.554 -9.108,19.272 -11.322,32.154c-1.61,9.661 -2.415,26.367 -2.415,50.118c-0,39.048 -1.762,66.321 -5.284,81.819c-3.522,15.498 -10.013,27.927 -19.473,37.287c-9.46,9.359 -23.349,16.756 -41.665,22.191c-12.278,3.623 -31.6,5.434 -57.968,5.434l-16.001,0l-0,-72.46c21.536,0 35.626,-1.358 42.268,-4.076c6.642,-2.717 11.523,-6.642 14.643,-11.774c3.12,-5.133 4.73,-13.838 4.831,-26.116c0.1,-12.278 0.956,-35.727 2.566,-70.346c1.006,-20.933 3.723,-37.69 8.152,-50.269c4.428,-12.58 10.315,-23.248 17.662,-32.003c7.346,-8.756 16.756,-16.455 28.229,-23.097c-14.895,-9.661 -25.764,-19.121 -32.607,-28.38c-9.46,-13.284 -15.901,-30.192 -19.323,-50.722c-2.214,-14.089 -3.824,-45.086 -4.83,-92.99c-0.202,-15.096 -1.56,-25.16 -4.076,-30.192c-2.516,-5.031 -7.045,-8.906 -13.586,-11.623c-6.542,-2.718 -21.185,-4.076 -43.929,-4.076l-0,-72.158l16.001,-0c27.173,-0 48.005,2.113 62.497,6.34c14.492,4.227 26.669,11.423 36.532,21.587c9.862,10.165 16.555,22.644 20.077,37.438c3.522,14.794 5.284,38.091 5.284,69.893c-0,36.834 1.509,60.887 4.528,72.158c4.428,16.102 11.171,27.625 20.229,34.569c9.057,6.945 22.845,10.92 41.362,11.926l0,72.46Z" style="fill:#b7b7b7;fill-rule:nonzero;"/></g></svg>