<?xml version="1.0" encoding="UTF-8" standalone="no"?><!DOCTYPE svg PUBLIC "-//W3C//DTD SVG 1.1//EN" "http://www.w3.org/Graphics/SVG/1.1/DTD/svg11.dtd"><svg width="100%" height="100%" viewBox="0 0 1024 1024" version="1.1" xmlns="http://www.w3.org/2000/svg" xmlns:xlink="http://www.w3.org/1999/xlink" xml:space="preserve" xmlns:serif="http://www.serif.com/" style="fill-rule:evenodd;clip-rule:evenodd;stroke-linecap:round;stroke-linejoin:round;stroke-miterlimit:1.5;"><g id="Key_Sq"><path d="M862,400l0,350c0,96.585 -78.415,175 -175,175l-350,0c-96.585,0 -175,-78.415 -175,-175l0,-350c0,-96.585 78.415,-175 175,-175l350,0c96.585,0 175,78.415 175,175Z" style="stroke:#000;stroke-width:50px;"/><path d="M862,337l0,350c0,96.585 -78.415,175 -175,175l-350,-0c-96.585,-0 -175,-78.415 -175,-175l0,-350c0,-96.585 78.415,-175 175,-175l350,-0c96.585,-0 175,78.415 175,175Z" style="fill:#232323;stroke:#000;stroke-width:50px;"/><path d="M738.89,666.43l64.308,-0c-20.128,40.859 -51.024,72.862 -92.688,96.009c-47.703,26.569 -105.872,39.853 -174.508,39.853c-66.421,-0 -123.785,-11.221 -172.092,-33.664c-48.306,-22.442 -84.234,-55.552 -107.784,-99.33c-23.549,-43.778 -35.324,-91.43 -35.324,-142.957c0,-56.559 13.385,-109.243 40.155,-158.053c26.77,-48.81 63.402,-85.442 109.897,-109.897c46.495,-24.455 99.633,-36.683 159.412,-36.683c50.722,0 95.808,9.863 135.258,29.588c39.45,19.725 69.592,47.753 90.424,84.083c20.832,36.331 31.248,76.033 31.248,119.106c0,51.326 -15.8,97.72 -47.401,139.183c-39.651,52.332 -90.474,78.498 -152.467,78.498c-16.706,0 -29.286,-2.918 -37.739,-8.755c-8.454,-5.837 -14.09,-14.392 -16.908,-25.663c-23.75,22.945 -51.124,34.418 -82.121,34.418c-33.412,0 -61.138,-11.523 -83.178,-34.569c-22.039,-23.046 -33.059,-53.691 -33.059,-91.933c-0,-47.301 13.284,-90.474 39.852,-129.522c32.205,-47.502 73.467,-71.252 123.786,-71.252c35.827,-0 62.295,13.686 79.404,41.06l7.548,-33.512l79.705,-0l-45.589,216.473c-2.818,13.687 -4.227,22.543 -4.227,26.569c0,5.032 1.158,8.806 3.472,11.322c2.315,2.515 5.083,3.773 8.303,3.773c9.661,0 22.141,-5.837 37.438,-17.511c20.53,-15.297 37.135,-35.827 49.816,-61.59c12.68,-25.764 19.02,-52.433 19.02,-80.008c0,-49.514 -17.913,-90.927 -53.741,-124.238c-35.827,-33.312 -85.844,-49.967 -150.052,-49.967c-54.546,-0 -100.789,11.12 -138.73,33.361c-37.941,22.241 -66.522,53.54 -85.744,93.896c-19.222,40.356 -28.833,82.373 -28.833,126.05c-0,42.469 10.718,81.115 32.154,115.935c21.436,34.821 51.527,60.233 90.273,76.234c38.746,16.002 83.077,24.002 132.994,24.002c48.105,0 89.467,-6.692 124.087,-20.077c34.62,-13.385 62.497,-33.462 83.631,-60.232Zm-326.371,-124.087c-0,25.562 5.183,44.381 15.548,56.458c10.366,12.076 23.198,18.115 38.495,18.115c11.472,-0 22.241,-2.818 32.305,-8.454c7.648,-4.025 15.196,-10.366 22.643,-19.021c10.668,-12.278 19.876,-30.191 27.626,-53.741c7.749,-23.549 11.623,-45.488 11.623,-65.817c0,-22.745 -5.283,-40.205 -15.85,-52.383c-10.567,-12.177 -23.902,-18.266 -40.004,-18.266c-17.31,0 -33.311,6.693 -48.005,20.078c-14.693,13.385 -25.763,32.456 -33.21,57.213c-7.448,24.757 -11.171,46.696 -11.171,65.818Z" style="fill:#b7b7b7;fill-rule:nonzero;"/></g></svg>