<?xml version="1.0" encoding="UTF-8" standalone="no"?><!DOCTYPE svg PUBLIC "-//W3C//DTD SVG 1.1//EN" "http://www.w3.org/Graphics/SVG/1.1/DTD/svg11.dtd"><svg width="100%" height="100%" viewBox="0 0 1024 1024" version="1.1" xmlns="http://www.w3.org/2000/svg" xmlns:xlink="http://www.w3.org/1999/xlink" xml:space="preserve" xmlns:serif="http://www.serif.com/" style="fill-rule:evenodd;clip-rule:evenodd;stroke-linecap:round;stroke-linejoin:round;stroke-miterlimit:1.5;"><g id="Key_Sq"><path d="M862,400l0,350c0,96.585 -78.415,175 -175,175l-350,0c-96.585,0 -175,-78.415 -175,-175l0,-350c0,-96.585 78.415,-175 175,-175l350,0c96.585,0 175,78.415 175,175Z" style="stroke:#000;stroke-width:50px;"/><path d="M862,337l0,350c0,96.585 -78.415,175 -175,175l-350,-0c-96.585,-0 -175,-78.415 -175,-175l0,-350c0,-96.585 78.415,-175 175,-175l350,-0c96.585,-0 175,78.415 175,175Z" style="fill:#232323;stroke:#000;stroke-width:50px;"/><path d="M322.21,639.824l-0,-259.183l177.679,-0l0,43.845l-125.348,-0l0,61.348l108.199,0l0,43.846l-108.199,-0l0,110.144l-52.331,-0Z" style="fill:#b7b7b7;fill-rule:nonzero;"/><path d="M574.674,499.978c-12.847,-5.422 -22.188,-12.877 -28.022,-22.365c-5.834,-9.488 -8.751,-19.889 -8.751,-31.204c-0,-19.33 6.747,-35.301 20.243,-47.912c13.495,-12.611 32.678,-18.917 57.547,-18.917c24.633,-0 43.757,6.306 57.37,18.917c13.613,12.611 20.42,28.582 20.42,47.912c0,12.022 -3.123,22.718 -9.37,32.088c-6.247,9.37 -15.028,16.531 -26.343,21.481c14.38,5.775 25.312,14.202 32.796,25.282c7.484,11.079 11.226,23.867 11.226,38.364c0,23.927 -7.631,43.374 -22.895,58.343c-15.263,14.969 -35.565,22.453 -60.906,22.453c-23.573,0 -43.197,-6.188 -58.873,-18.563c-18.505,-14.616 -27.757,-34.652 -27.757,-60.111c0,-14.026 3.477,-26.902 10.431,-38.63c6.954,-11.727 17.915,-20.773 32.884,-27.138Zm10.254,-50.033c0,9.9 2.8,17.62 8.398,23.16c5.599,5.539 13.054,8.309 22.365,8.309c9.429,0 16.972,-2.799 22.63,-8.398c5.657,-5.598 8.486,-13.348 8.486,-23.248c-0,-9.311 -2.799,-16.766 -8.398,-22.365c-5.598,-5.598 -12.994,-8.398 -22.188,-8.398c-9.547,0 -17.149,2.829 -22.806,8.487c-5.658,5.657 -8.487,13.141 -8.487,22.453Zm-4.596,111.027c-0,13.673 3.506,24.339 10.519,32.001c7.013,7.661 15.764,11.491 26.254,11.491c10.254,0 18.741,-3.683 25.459,-11.049c6.718,-7.367 10.077,-18.004 10.077,-31.912c0,-12.14 -3.418,-21.893 -10.254,-29.26c-6.836,-7.366 -15.499,-11.05 -25.989,-11.05c-12.14,0 -21.186,4.185 -27.138,12.553c-5.952,8.368 -8.928,17.444 -8.928,27.226Z" style="fill:#b7b7b7;fill-rule:nonzero;"/></g></svg>