<?xml version="1.0" encoding="UTF-8" standalone="no"?><!DOCTYPE svg PUBLIC "-//W3C//DTD SVG 1.1//EN" "http://www.w3.org/Graphics/SVG/1.1/DTD/svg11.dtd"><svg width="100%" height="100%" viewBox="0 0 1024 1024" version="1.1" xmlns="http://www.w3.org/2000/svg" xmlns:xlink="http://www.w3.org/1999/xlink" xml:space="preserve" xmlns:serif="http://www.serif.com/" style="fill-rule:evenodd;clip-rule:evenodd;stroke-linecap:round;stroke-linejoin:round;stroke-miterlimit:1.5;"><g id="Key_Sq"><path d="M862,400l0,350c0,96.585 -78.415,175 -175,175l-350,0c-96.585,0 -175,-78.415 -175,-175l0,-350c0,-96.585 78.415,-175 175,-175l350,0c96.585,0 175,78.415 175,175Z" style="stroke:#000;stroke-width:50px;"/><path d="M862,337l0,350c0,96.585 -78.415,175 -175,175l-350,-0c-96.585,-0 -175,-78.415 -175,-175l0,-350c0,-96.585 78.415,-175 175,-175l350,-0c96.585,-0 175,78.415 175,175Z" style="fill:#232323;stroke:#000;stroke-width:50px;"/><path d="M387.46,623.105l-41.061,-0l0,-66.421l54.345,-0l18.115,-89.066l-72.46,0l0,-66.723l86.046,0l23.852,-117.747l67.629,-0l-23.852,117.747l66.724,0l23.247,-117.747l70.045,-0l-24.154,117.747l41.665,0l-0,66.723l-55.251,0l-18.115,89.066l73.366,-0l-0,66.421l-86.952,-0l-23.851,117.747l-67.328,0l23.248,-117.747l-67.025,-0l-23.852,117.747l-68.233,0l23.852,-117.747Zm99.33,-155.487l-17.813,89.066l67.025,-0l17.511,-89.066l-66.723,0Z" style="fill:#b7b7b7;fill-rule:nonzero;"/></g></svg>