<?xml version="1.0" encoding="UTF-8" standalone="no"?><!DOCTYPE svg PUBLIC "-//W3C//DTD SVG 1.1//EN" "http://www.w3.org/Graphics/SVG/1.1/DTD/svg11.dtd"><svg width="100%" height="100%" viewBox="0 0 1024 1024" version="1.1" xmlns="http://www.w3.org/2000/svg" xmlns:xlink="http://www.w3.org/1999/xlink" xml:space="preserve" xmlns:serif="http://www.serif.com/" style="fill-rule:evenodd;clip-rule:evenodd;stroke-linecap:round;stroke-linejoin:round;stroke-miterlimit:1.5;"><g id="Key_Sq"><path d="M862,400l0,350c0,96.585 -78.415,175 -175,175l-350,0c-96.585,0 -175,-78.415 -175,-175l0,-350c0,-96.585 78.415,-175 175,-175l350,0c96.585,0 175,78.415 175,175Z" style="stroke:#000;stroke-width:50px;"/><path d="M862,337l0,350c0,96.585 -78.415,175 -175,175l-350,-0c-96.585,-0 -175,-78.415 -175,-175l0,-350c0,-96.585 78.415,-175 175,-175l350,-0c96.585,-0 175,78.415 175,175Z" style="fill:#232323;stroke:#000;stroke-width:50px;"/><path d="M247.998,508.719l-0,-200.403l148.593,0l0,33.902l-108.13,-0l0,44.428l100.612,-0l-0,33.765l-100.612,-0l0,54.543l111.958,0l-0,33.765l-152.421,0Z" style="fill:#b7b7b7;fill-rule:nonzero;"/><path d="M420.924,467.299l38.55,-5.878c1.64,7.473 4.966,13.146 9.979,17.019c5.012,3.873 12.029,5.81 21.052,5.81c9.933,-0 17.406,-1.823 22.418,-5.468c3.372,-2.552 5.058,-5.969 5.058,-10.253c0,-2.916 -0.911,-5.331 -2.734,-7.245c-1.913,-1.823 -6.197,-3.509 -12.85,-5.058c-30.985,-6.835 -50.624,-13.078 -58.917,-18.728c-11.483,-7.837 -17.225,-18.728 -17.225,-32.671c0,-12.577 4.967,-23.148 14.901,-31.715c9.933,-8.566 25.335,-12.85 46.204,-12.85c19.868,0 34.631,3.236 44.291,9.706c9.661,6.471 16.313,16.04 19.959,28.707l-36.226,6.699c-1.549,-5.651 -4.488,-9.98 -8.817,-12.987c-4.329,-3.007 -10.503,-4.511 -18.523,-4.511c-10.116,-0 -17.361,1.412 -21.735,4.238c-2.917,2.005 -4.375,4.602 -4.375,7.792c0,2.734 1.276,5.057 3.828,6.971c3.463,2.552 15.424,6.152 35.884,10.8c20.459,4.647 34.744,10.343 42.855,17.087c8.02,6.835 12.03,16.359 12.03,28.571c-0,13.305 -5.559,24.742 -16.678,34.311c-11.118,9.569 -27.567,14.354 -49.348,14.354c-19.776,0 -35.429,-4.01 -46.957,-12.03c-11.529,-8.019 -19.07,-18.91 -22.624,-32.671Z" style="fill:#b7b7b7;fill-rule:nonzero;"/><path d="M716.744,406.467l-37.866,6.835c-1.276,-7.564 -4.169,-13.26 -8.681,-17.087c-4.511,-3.828 -10.366,-5.742 -17.566,-5.742c-9.569,0 -17.201,3.304 -22.897,9.911c-5.696,6.607 -8.544,17.657 -8.544,33.15c0,17.224 2.894,29.391 8.681,36.499c5.787,7.108 13.556,10.663 23.307,10.663c7.291,-0 13.26,-2.074 17.908,-6.22c4.648,-4.147 7.929,-11.278 9.842,-21.394l37.73,6.425c-3.919,17.315 -11.438,30.393 -22.556,39.233c-11.118,8.84 -26.019,13.26 -44.701,13.26c-21.234,0 -38.162,-6.698 -50.784,-20.095c-12.622,-13.397 -18.933,-31.942 -18.933,-55.637c-0,-23.968 6.334,-42.628 19.001,-55.979c12.668,-13.351 29.801,-20.027 51.4,-20.027c17.68,0 31.737,3.805 42.172,11.415c10.435,7.61 17.93,19.206 22.487,34.79Z" style="fill:#b7b7b7;fill-rule:nonzero;"/></g></svg>