<?xml version="1.0" encoding="UTF-8" standalone="no"?><!DOCTYPE svg PUBLIC "-//W3C//DTD SVG 1.1//EN" "http://www.w3.org/Graphics/SVG/1.1/DTD/svg11.dtd"><svg width="100%" height="100%" viewBox="0 0 1024 1024" version="1.1" xmlns="http://www.w3.org/2000/svg" xmlns:xlink="http://www.w3.org/1999/xlink" xml:space="preserve" xmlns:serif="http://www.serif.com/" style="fill-rule:evenodd;clip-rule:evenodd;stroke-linecap:round;stroke-linejoin:round;stroke-miterlimit:1.5;"><g id="Key_Sq"><path d="M862,400l0,350c0,96.585 -78.415,175 -175,175l-350,0c-96.585,0 -175,-78.415 -175,-175l0,-350c0,-96.585 78.415,-175 175,-175l350,0c96.585,0 175,78.415 175,175Z" style="stroke:#000;stroke-width:50px;"/><path d="M862,337l0,350c0,96.585 -78.415,175 -175,175l-350,-0c-96.585,-0 -175,-78.415 -175,-175l0,-350c0,-96.585 78.415,-175 175,-175l350,-0c96.585,-0 175,78.415 175,175Z" style="fill:#232323;stroke:#000;stroke-width:50px;"/><path d="M618.123,570.572l86.65,27.474c-13.284,48.306 -35.374,84.184 -66.27,107.633c-30.896,23.449 -70.095,35.173 -117.596,35.173c-58.773,0 -107.08,-20.077 -144.92,-60.232c-37.84,-40.155 -56.76,-95.053 -56.76,-164.695c-0,-73.668 19.021,-130.881 57.062,-171.639c38.041,-40.759 88.059,-61.138 150.052,-61.138c54.144,-0 98.123,16.001 131.937,48.004c20.128,18.921 35.224,46.093 45.288,81.518l-88.462,21.134c-5.233,-22.946 -16.152,-41.061 -32.758,-54.345c-16.605,-13.284 -36.783,-19.926 -60.534,-19.926c-32.808,-0 -59.427,11.774 -79.856,35.324c-20.43,23.549 -30.645,61.691 -30.645,114.426c0,55.955 10.064,95.808 30.192,119.558c20.127,23.751 46.293,35.626 78.498,35.626c23.75,0 44.18,-7.547 61.289,-22.643c17.108,-15.096 29.386,-38.847 36.833,-71.252Z" style="fill:#b7b7b7;fill-rule:nonzero;"/></g></svg>