<?xml version="1.0" encoding="UTF-8" standalone="no"?><!DOCTYPE svg PUBLIC "-//W3C//DTD SVG 1.1//EN" "http://www.w3.org/Graphics/SVG/1.1/DTD/svg11.dtd"><svg width="100%" height="100%" viewBox="0 0 1024 1024" version="1.1" xmlns="http://www.w3.org/2000/svg" xmlns:xlink="http://www.w3.org/1999/xlink" xml:space="preserve" xmlns:serif="http://www.serif.com/" style="fill-rule:evenodd;clip-rule:evenodd;stroke-linecap:round;stroke-linejoin:round;stroke-miterlimit:1.5;"><g id="Key_Sq"><path d="M862,400l0,350c0,96.585 -78.415,175 -175,175l-350,0c-96.585,0 -175,-78.415 -175,-175l0,-350c0,-96.585 78.415,-175 175,-175l350,0c96.585,0 175,78.415 175,175Z" style="stroke:#000;stroke-width:50px;"/><path d="M862,337l0,350c0,96.585 -78.415,175 -175,175l-350,-0c-96.585,-0 -175,-78.415 -175,-175l0,-350c0,-96.585 78.415,-175 175,-175l350,-0c96.585,-0 175,78.415 175,175Z" style="fill:#232323;stroke:#000;stroke-width:50px;"/><path d="M364.967,612.991l82.121,-9.963c2.617,20.932 9.661,36.934 21.134,48.004c11.473,11.07 25.361,16.606 41.665,16.606c17.511,-0 32.254,-6.643 44.23,-19.927c11.976,-13.284 17.964,-31.198 17.964,-53.741c0,-21.335 -5.736,-38.243 -17.209,-50.722c-11.473,-12.479 -25.462,-18.718 -41.966,-18.718c-10.869,-0 -23.852,2.113 -38.947,6.34l9.359,-69.139c22.946,0.604 40.457,-4.378 52.533,-14.945c12.077,-10.567 18.115,-24.606 18.115,-42.117c0,-14.895 -4.428,-26.77 -13.284,-35.626c-8.856,-8.856 -20.631,-13.284 -35.324,-13.284c-14.492,-0 -26.871,5.032 -37.136,15.095c-10.265,10.064 -16.505,24.757 -18.719,44.08l-78.196,-13.284c5.435,-26.77 13.637,-48.156 24.606,-64.157c10.97,-16.002 26.267,-28.582 45.892,-37.74c19.624,-9.158 41.614,-13.737 65.968,-13.737c41.665,0 75.077,13.284 100.236,39.853c20.732,21.738 31.098,46.294 31.098,73.667c-0,38.847 -21.235,69.844 -63.705,92.99c25.361,5.435 45.64,17.612 60.836,36.532c15.197,18.92 22.795,41.765 22.795,68.535c-0,38.847 -14.19,71.957 -42.57,99.33c-28.38,27.374 -63.704,41.061 -105.973,41.061c-40.054,-0 -73.264,-11.523 -99.632,-34.569c-26.367,-23.047 -41.664,-53.188 -45.891,-90.424Z" style="fill:#b7b7b7;fill-rule:nonzero;"/></g></svg>