<?xml version="1.0" encoding="UTF-8" standalone="no"?><!DOCTYPE svg PUBLIC "-//W3C//DTD SVG 1.1//EN" "http://www.w3.org/Graphics/SVG/1.1/DTD/svg11.dtd"><svg width="100%" height="100%" viewBox="0 0 1024 1024" version="1.1" xmlns="http://www.w3.org/2000/svg" xmlns:xlink="http://www.w3.org/1999/xlink" xml:space="preserve" xmlns:serif="http://www.serif.com/" style="fill-rule:evenodd;clip-rule:evenodd;stroke-linecap:round;stroke-linejoin:round;stroke-miterlimit:1.5;"><g id="Key_Sq"><path d="M862,400l0,350c0,96.585 -78.415,175 -175,175l-350,0c-96.585,0 -175,-78.415 -175,-175l0,-350c0,-96.585 78.415,-175 175,-175l350,0c96.585,0 175,78.415 175,175Z" style="stroke:#000;stroke-width:50px;"/><path d="M862,337l0,350c0,96.585 -78.415,175 -175,175l-350,-0c-96.585,-0 -175,-78.415 -175,-175l0,-350c0,-96.585 78.415,-175 175,-175l350,-0c96.585,-0 175,78.415 175,175Z" style="fill:#232323;stroke:#000;stroke-width:50px;"/><path d="M663.411,658.731c21.939,15.7 45.79,28.179 71.554,37.438l-32.909,63.1c-13.486,-4.026 -26.669,-9.561 -39.551,-16.605c-2.818,-1.409 -22.644,-14.492 -59.477,-39.249c-28.984,12.68 -61.088,19.02 -96.312,19.02c-68.031,0 -121.319,-20.027 -159.864,-60.081c-38.544,-40.054 -57.817,-96.311 -57.817,-168.771c0,-72.258 19.323,-128.465 57.968,-168.62c38.645,-40.155 91.078,-60.232 157.298,-60.232c65.616,0 117.647,20.077 156.091,60.232c38.444,40.155 57.665,96.362 57.665,168.62c0,38.243 -5.333,71.856 -16.001,100.84c-8.051,22.14 -20.933,43.576 -38.645,64.308Zm-71.856,-50.42c11.473,-13.485 20.077,-29.789 25.814,-48.91c5.736,-19.122 8.604,-41.061 8.604,-65.818c0,-51.124 -11.271,-89.317 -33.814,-114.577c-22.543,-25.26 -52.031,-37.89 -88.462,-37.89c-36.431,-0 -65.968,12.68 -88.612,38.041c-22.644,25.361 -33.965,63.503 -33.965,114.426c-0,51.728 11.321,90.424 33.965,116.087c22.644,25.663 51.275,38.494 85.895,38.494c12.882,-0 25.059,-2.113 36.532,-6.34c-18.115,-11.876 -36.532,-21.134 -55.251,-27.776l25.059,-51.024c29.387,10.064 57.465,25.159 84.235,45.287Z" style="fill:#b7b7b7;fill-rule:nonzero;"/></g></svg>