<?xml version="1.0" encoding="UTF-8" standalone="no"?><!DOCTYPE svg PUBLIC "-//W3C//DTD SVG 1.1//EN" "http://www.w3.org/Graphics/SVG/1.1/DTD/svg11.dtd"><svg width="100%" height="100%" viewBox="0 0 1024 1024" version="1.1" xmlns="http://www.w3.org/2000/svg" xmlns:xlink="http://www.w3.org/1999/xlink" xml:space="preserve" xmlns:serif="http://www.serif.com/" style="fill-rule:evenodd;clip-rule:evenodd;stroke-linecap:round;stroke-linejoin:round;stroke-miterlimit:1.5;"><g id="Key_Sq"><path d="M862,400l0,350c0,96.585 -78.415,175 -175,175l-350,0c-96.585,0 -175,-78.415 -175,-175l0,-350c0,-96.585 78.415,-175 175,-175l350,0c96.585,0 175,78.415 175,175Z" style="stroke:#000;stroke-width:50px;"/><path d="M862,337l0,350c0,96.585 -78.415,175 -175,175l-350,-0c-96.585,-0 -175,-78.415 -175,-175l0,-350c0,-96.585 78.415,-175 175,-175l350,-0c96.585,-0 175,78.415 175,175Z" style="fill:#232323;stroke:#000;stroke-width:50px;"/><path d="M564.533,286.922l89.065,-0l0,280.178c0,36.632 -3.22,64.811 -9.661,84.536c-8.655,25.763 -24.354,46.445 -47.099,62.044c-22.744,15.599 -52.734,23.398 -89.971,23.398c-43.677,0 -77.29,-12.227 -100.839,-36.683c-23.55,-24.455 -35.425,-60.332 -35.626,-107.633l84.234,-9.661c1.006,25.361 4.73,43.275 11.171,53.741c9.661,15.901 24.354,23.851 44.08,23.851c19.926,0 34.015,-5.686 42.268,-17.058c8.252,-11.372 12.378,-34.972 12.378,-70.799l0,-285.914Z" style="fill:#b7b7b7;fill-rule:nonzero;"/></g></svg>