<?xml version="1.0" encoding="UTF-8" standalone="no"?><!DOCTYPE svg PUBLIC "-//W3C//DTD SVG 1.1//EN" "http://www.w3.org/Graphics/SVG/1.1/DTD/svg11.dtd"><svg width="100%" height="100%" viewBox="0 0 1024 1024" version="1.1" xmlns="http://www.w3.org/2000/svg" xmlns:xlink="http://www.w3.org/1999/xlink" xml:space="preserve" xmlns:serif="http://www.serif.com/" style="fill-rule:evenodd;clip-rule:evenodd;stroke-linecap:round;stroke-linejoin:round;stroke-miterlimit:1.5;"><g id="Key_tall"><path d="M677.575,991.881l-331.15,-0c-91.383,-0 -165.574,-74.192 -165.574,-165.575l-0,-577.151c-0,-91.383 74.191,-165.575 165.574,-165.575l331.15,0c91.383,0 165.574,74.192 165.574,165.575l0,577.151c0,91.383 -74.191,165.575 -165.574,165.575Z" style="stroke:#000;stroke-width:50px;"/><path d="M677.575,961.42l-331.15,-0c-91.383,-0 -165.574,-74.192 -165.574,-165.575l-0,-577.151c-0,-91.383 74.191,-165.575 165.574,-165.575l331.15,0c91.383,0 165.574,74.192 165.574,165.575l0,577.151c0,91.383 -74.191,165.575 -165.574,165.575Z" style="fill:#232323;stroke:#000;stroke-width:50px;"/><path d="M528.016,872.211l-225,-168.75l225,-168.75l0,337.5Z" style="fill:#b7b7b7;"/><path d="M663.782,311.078l-0,392.383l-180.766,-0" style="fill:none;stroke:#b7b7b7;stroke-width:100px;stroke-linecap:butt;"/></g></svg>