<?xml version="1.0" encoding="UTF-8" standalone="no"?><!DOCTYPE svg PUBLIC "-//W3C//DTD SVG 1.1//EN" "http://www.w3.org/Graphics/SVG/1.1/DTD/svg11.dtd"><svg width="100%" height="100%" viewBox="0 0 1024 1024" version="1.1" xmlns="http://www.w3.org/2000/svg" xmlns:xlink="http://www.w3.org/1999/xlink" xml:space="preserve" xmlns:serif="http://www.serif.com/" style="fill-rule:evenodd;clip-rule:evenodd;stroke-linecap:round;stroke-linejoin:round;stroke-miterlimit:1.5;"><g id="Key_Sq"><path d="M862,400l0,350c0,96.585 -78.415,175 -175,175l-350,0c-96.585,0 -175,-78.415 -175,-175l0,-350c0,-96.585 78.415,-175 175,-175l350,0c96.585,0 175,78.415 175,175Z" style="stroke:#000;stroke-width:50px;"/><path d="M862,337l0,350c0,96.585 -78.415,175 -175,175l-350,-0c-96.585,-0 -175,-78.415 -175,-175l0,-350c0,-96.585 78.415,-175 175,-175l350,-0c96.585,-0 175,78.415 175,175Z" style="fill:#232323;stroke:#000;stroke-width:50px;"/><path d="M408.745,548.23l-0,-72.46c14.693,-0.805 25.763,-3.019 33.211,-6.642c7.447,-3.623 13.888,-9.712 19.322,-18.266c5.435,-8.554 9.158,-19.272 11.171,-32.154c1.61,-9.661 2.415,-26.468 2.415,-50.42c0,-39.048 1.812,-66.27 5.435,-81.668c3.623,-15.398 10.164,-27.776 19.624,-37.136c9.46,-9.359 23.248,-16.756 41.363,-22.191c12.278,-3.623 31.6,-5.434 57.968,-5.434l16.001,-0l0,72.158c-22.342,-0 -36.683,1.258 -43.023,3.774c-6.34,2.516 -11.02,6.34 -14.039,11.473c-3.019,5.132 -4.529,13.938 -4.529,26.417c0,12.681 -0.905,36.733 -2.717,72.158c-1.006,19.927 -3.623,36.079 -7.85,48.458c-4.227,12.378 -9.611,22.593 -16.152,30.644c-6.542,8.051 -16.555,16.404 -30.041,25.059c11.876,6.843 21.587,14.844 29.135,24.002c7.548,9.158 13.335,20.279 17.36,33.362c4.026,13.083 6.642,30.594 7.85,52.533c1.409,33.412 2.113,54.748 2.113,64.006c0,13.285 1.611,22.543 4.831,27.777c3.221,5.233 8.102,9.208 14.643,11.925c6.542,2.718 20.681,4.076 42.419,4.076l0,72.46l-16.001,0c-27.173,0 -48.005,-2.164 -62.497,-6.491c-14.492,-4.328 -26.719,-11.523 -36.683,-21.587c-9.963,-10.064 -16.655,-22.493 -20.077,-37.287c-3.422,-14.794 -5.133,-38.091 -5.133,-69.893c0,-37.035 -1.61,-61.088 -4.83,-72.158c-4.428,-16.102 -11.121,-27.625 -20.078,-34.569c-8.957,-6.945 -22.694,-10.92 -41.211,-11.926Z" style="fill:#b7b7b7;fill-rule:nonzero;"/></g></svg>