<?xml version="1.0" encoding="UTF-8" standalone="no"?><!DOCTYPE svg PUBLIC "-//W3C//DTD SVG 1.1//EN" "http://www.w3.org/Graphics/SVG/1.1/DTD/svg11.dtd"><svg width="100%" height="100%" viewBox="0 0 1024 1024" version="1.1" xmlns="http://www.w3.org/2000/svg" xmlns:xlink="http://www.w3.org/1999/xlink" xml:space="preserve" xmlns:serif="http://www.serif.com/" style="fill-rule:evenodd;clip-rule:evenodd;stroke-linecap:round;stroke-linejoin:round;stroke-miterlimit:1.5;"><g id="Key_Sq"><path d="M862,400l0,350c0,96.585 -78.415,175 -175,175l-350,0c-96.585,0 -175,-78.415 -175,-175l0,-350c0,-96.585 78.415,-175 175,-175l350,0c96.585,0 175,78.415 175,175Z" style="stroke:#000;stroke-width:50px;"/><path d="M862,337l0,350c0,96.585 -78.415,175 -175,175l-350,-0c-96.585,-0 -175,-78.415 -175,-175l0,-350c0,-96.585 78.415,-175 175,-175l350,-0c96.585,-0 175,78.415 175,175Z" style="fill:#232323;stroke:#000;stroke-width:50px;"/><g id="printscr" transform="matrix(0.567656,0,0,0.567656,-48.3696,110.174)"><g transform="matrix(325.302,0,0,325.302,449.732,654.26)"><path d="M0.073,-0l-0,-0.716l0.232,0c0.088,0 0.145,0.004 0.172,0.011c0.041,0.011 0.075,0.034 0.103,0.07c0.027,0.036 0.041,0.082 0.041,0.139c0,0.044 -0.008,0.081 -0.024,0.111c-0.016,0.03 -0.036,0.054 -0.061,0.071c-0.024,0.017 -0.049,0.028 -0.075,0.034c-0.034,0.007 -0.084,0.01 -0.149,0.01l-0.095,-0l0,0.27l-0.144,-0Zm0.144,-0.595l0,0.203l0.079,0c0.057,0 0.095,-0.003 0.115,-0.011c0.019,-0.007 0.034,-0.019 0.045,-0.035c0.011,-0.016 0.016,-0.034 0.016,-0.056c0,-0.026 -0.007,-0.047 -0.023,-0.064c-0.015,-0.017 -0.034,-0.028 -0.058,-0.032c-0.017,-0.003 -0.052,-0.005 -0.104,-0.005l-0.07,0Z" style="fill:#b7b7b7;fill-rule:nonzero;"/></g><g transform="matrix(325.302,0,0,325.302,666.706,654.26)"><path d="M0.203,-0l-0.137,-0l-0,-0.519l0.127,0l0,0.074c0.022,-0.035 0.042,-0.058 0.059,-0.069c0.018,-0.011 0.037,-0.016 0.06,-0.016c0.031,-0 0.061,0.008 0.09,0.026l-0.043,0.119c-0.023,-0.015 -0.044,-0.022 -0.064,-0.022c-0.019,-0 -0.036,0.005 -0.049,0.016c-0.013,0.01 -0.024,0.029 -0.031,0.057c-0.008,0.028 -0.012,0.086 -0.012,0.174l0,0.16Z" style="fill:#b7b7b7;fill-rule:nonzero;"/></g><g transform="matrix(325.302,0,0,325.302,793.301,654.26)"><path d="M0.072,-0.589l-0,-0.127l0.137,0l-0,0.127l-0.137,0Zm-0,0.589l-0,-0.519l0.137,0l-0,0.519l-0.137,-0Z" style="fill:#b7b7b7;fill-rule:nonzero;"/></g><g transform="matrix(325.302,0,0,325.302,883.68,654.26)"><path d="M0.543,-0l-0.137,-0l0,-0.265c0,-0.056 -0.003,-0.092 -0.009,-0.108c-0.005,-0.017 -0.015,-0.03 -0.028,-0.039c-0.013,-0.009 -0.029,-0.013 -0.048,-0.013c-0.023,-0 -0.045,0.006 -0.064,0.019c-0.019,0.013 -0.031,0.031 -0.038,0.052c-0.007,0.021 -0.011,0.061 -0.011,0.119l0,0.235l-0.137,-0l-0,-0.519l0.127,0l0,0.077c0.045,-0.059 0.102,-0.088 0.171,-0.088c0.03,-0 0.058,0.005 0.083,0.016c0.025,0.011 0.044,0.025 0.057,0.042c0.013,0.017 0.022,0.036 0.027,0.057c0.005,0.022 0.007,0.053 0.007,0.093l0,0.322Z" style="fill:#b7b7b7;fill-rule:nonzero;"/></g><g transform="matrix(325.302,0,0,325.302,1082.39,654.26)"><path d="M0.31,-0.519l-0,0.11l-0.094,-0l-0,0.209c-0,0.042 0.001,0.067 0.003,0.074c0.001,0.007 0.005,0.013 0.012,0.017c0.006,0.005 0.014,0.007 0.023,0.007c0.013,-0 0.031,-0.004 0.055,-0.013l0.012,0.106c-0.032,0.014 -0.068,0.021 -0.109,0.021c-0.024,-0 -0.047,-0.004 -0.066,-0.013c-0.02,-0.008 -0.035,-0.019 -0.044,-0.032c-0.009,-0.013 -0.016,-0.031 -0.019,-0.053c-0.003,-0.016 -0.005,-0.049 -0.005,-0.097l0,-0.226l-0.063,-0l0,-0.11l0.063,0l0,-0.103l0.138,-0.08l-0,0.183l0.094,0Z" style="fill:#b7b7b7;fill-rule:nonzero;"/></g><g transform="matrix(325.302,0,0,325.302,449.732,990.204)"><path d="M0.036,-0.233l0.141,-0.014c0.008,0.048 0.025,0.082 0.051,0.104c0.026,0.023 0.061,0.034 0.105,0.034c0.047,-0 0.082,-0.01 0.105,-0.03c0.024,-0.02 0.036,-0.043 0.036,-0.069c-0,-0.017 -0.005,-0.031 -0.015,-0.043c-0.01,-0.012 -0.028,-0.022 -0.052,-0.031c-0.017,-0.006 -0.056,-0.017 -0.116,-0.031c-0.077,-0.02 -0.132,-0.043 -0.163,-0.071c-0.044,-0.04 -0.066,-0.088 -0.066,-0.144c0,-0.037 0.01,-0.071 0.031,-0.103c0.021,-0.031 0.05,-0.056 0.089,-0.072c0.039,-0.017 0.086,-0.025 0.141,-0.025c0.09,-0 0.158,0.02 0.203,0.059c0.046,0.039 0.069,0.092 0.072,0.158l-0.145,0.006c-0.006,-0.037 -0.019,-0.063 -0.04,-0.079c-0.02,-0.016 -0.051,-0.024 -0.091,-0.024c-0.042,-0 -0.075,0.008 -0.099,0.025c-0.015,0.012 -0.023,0.026 -0.023,0.045c0,0.017 0.007,0.031 0.022,0.043c0.018,0.016 0.062,0.032 0.132,0.048c0.071,0.017 0.123,0.034 0.156,0.052c0.034,0.017 0.061,0.042 0.08,0.072c0.019,0.031 0.028,0.069 0.028,0.115c0,0.041 -0.011,0.079 -0.034,0.115c-0.023,0.036 -0.055,0.062 -0.097,0.08c-0.041,0.017 -0.093,0.026 -0.155,0.026c-0.091,-0 -0.16,-0.021 -0.209,-0.063c-0.048,-0.042 -0.077,-0.103 -0.087,-0.183Z" style="fill:#b7b7b7;fill-rule:nonzero;"/></g><g transform="matrix(325.302,0,0,325.302,666.706,990.204)"><path d="M0.524,-0.365l-0.135,0.024c-0.005,-0.027 -0.015,-0.047 -0.031,-0.061c-0.016,-0.014 -0.037,-0.02 -0.063,-0.02c-0.034,-0 -0.062,0.011 -0.082,0.035c-0.02,0.024 -0.03,0.063 -0.03,0.118c-0,0.062 0.01,0.105 0.031,0.131c0.02,0.025 0.048,0.038 0.083,0.038c0.026,-0 0.047,-0.008 0.064,-0.022c0.016,-0.015 0.028,-0.041 0.035,-0.077l0.135,0.023c-0.014,0.062 -0.041,0.109 -0.081,0.14c-0.04,0.032 -0.093,0.048 -0.159,0.048c-0.076,-0 -0.137,-0.024 -0.182,-0.072c-0.045,-0.048 -0.067,-0.114 -0.067,-0.199c-0,-0.085 0.022,-0.152 0.067,-0.2c0.046,-0.047 0.107,-0.071 0.184,-0.071c0.063,-0 0.113,0.013 0.151,0.04c0.037,0.028 0.064,0.069 0.08,0.125Z" style="fill:#b7b7b7;fill-rule:nonzero;"/></g><g transform="matrix(325.302,0,0,325.302,847.624,990.204)"><path d="M0.203,-0l-0.137,-0l-0,-0.519l0.127,0l0,0.074c0.022,-0.035 0.042,-0.058 0.059,-0.069c0.018,-0.011 0.037,-0.016 0.06,-0.016c0.031,-0 0.061,0.008 0.09,0.026l-0.043,0.119c-0.023,-0.015 -0.044,-0.022 -0.064,-0.022c-0.019,-0 -0.036,0.005 -0.049,0.016c-0.013,0.01 -0.024,0.029 -0.031,0.057c-0.008,0.028 -0.012,0.086 -0.012,0.174l0,0.16Z" style="fill:#b7b7b7;fill-rule:nonzero;"/></g><g transform="matrix(325.302,0,0,325.302,974.218,990.204)"><path d="M0.372,-0.165l0.137,0.023c-0.018,0.05 -0.046,0.088 -0.083,0.114c-0.038,0.027 -0.086,0.04 -0.143,0.04c-0.09,-0 -0.157,-0.03 -0.2,-0.089c-0.034,-0.047 -0.051,-0.106 -0.051,-0.178c-0,-0.086 0.022,-0.154 0.067,-0.202c0.045,-0.049 0.102,-0.073 0.171,-0.073c0.077,-0 0.138,0.025 0.182,0.076c0.045,0.051 0.066,0.129 0.064,0.234l-0.344,0c0.001,0.041 0.012,0.073 0.034,0.095c0.021,0.023 0.047,0.034 0.079,0.034c0.021,0 0.039,-0.006 0.054,-0.017c0.015,-0.012 0.026,-0.031 0.033,-0.057Zm0.008,-0.139c-0.001,-0.039 -0.011,-0.07 -0.031,-0.09c-0.019,-0.021 -0.043,-0.031 -0.071,-0.031c-0.03,-0 -0.055,0.011 -0.074,0.032c-0.02,0.022 -0.03,0.052 -0.029,0.089l0.205,0Z" style="fill:#b7b7b7;fill-rule:nonzero;"/></g><g transform="matrix(325.302,0,0,325.302,1155.14,990.204)"><path d="M0.372,-0.165l0.137,0.023c-0.018,0.05 -0.046,0.088 -0.083,0.114c-0.038,0.027 -0.086,0.04 -0.143,0.04c-0.09,-0 -0.157,-0.03 -0.2,-0.089c-0.034,-0.047 -0.051,-0.106 -0.051,-0.178c-0,-0.086 0.022,-0.154 0.067,-0.202c0.045,-0.049 0.102,-0.073 0.171,-0.073c0.077,-0 0.138,0.025 0.182,0.076c0.045,0.051 0.066,0.129 0.064,0.234l-0.344,0c0.001,0.041 0.012,0.073 0.034,0.095c0.021,0.023 0.047,0.034 0.079,0.034c0.021,0 0.039,-0.006 0.054,-0.017c0.015,-0.012 0.026,-0.031 0.033,-0.057Zm0.008,-0.139c-0.001,-0.039 -0.011,-0.07 -0.031,-0.09c-0.019,-0.021 -0.043,-0.031 -0.071,-0.031c-0.03,-0 -0.055,0.011 -0.074,0.032c-0.02,0.022 -0.03,0.052 -0.029,0.089l0.205,0Z" style="fill:#b7b7b7;fill-rule:nonzero;"/></g><g transform="matrix(325.302,0,0,325.302,1336.05,990.204)"><path d="M0.543,-0l-0.137,-0l0,-0.265c0,-0.056 -0.003,-0.092 -0.009,-0.108c-0.005,-0.017 -0.015,-0.03 -0.028,-0.039c-0.013,-0.009 -0.029,-0.013 -0.048,-0.013c-0.023,-0 -0.045,0.006 -0.064,0.019c-0.019,0.013 -0.031,0.031 -0.038,0.052c-0.007,0.021 -0.011,0.061 -0.011,0.119l0,0.235l-0.137,-0l-0,-0.519l0.127,0l0,0.077c0.045,-0.059 0.102,-0.088 0.171,-0.088c0.03,-0 0.058,0.005 0.083,0.016c0.025,0.011 0.044,0.025 0.057,0.042c0.013,0.017 0.022,0.036 0.027,0.057c0.005,0.022 0.007,0.053 0.007,0.093l0,0.322Z" style="fill:#b7b7b7;fill-rule:nonzero;"/></g></g></g></svg>