<?xml version="1.0" encoding="UTF-8" standalone="no"?><!DOCTYPE svg PUBLIC "-//W3C//DTD SVG 1.1//EN" "http://www.w3.org/Graphics/SVG/1.1/DTD/svg11.dtd"><svg width="100%" height="100%" viewBox="0 0 1024 1024" version="1.1" xmlns="http://www.w3.org/2000/svg" xmlns:xlink="http://www.w3.org/1999/xlink" xml:space="preserve" xmlns:serif="http://www.serif.com/" style="fill-rule:evenodd;clip-rule:evenodd;stroke-linecap:round;stroke-linejoin:round;stroke-miterlimit:1.5;"><g id="Key_Sq"><path d="M862,400l0,350c0,96.585 -78.415,175 -175,175l-350,0c-96.585,0 -175,-78.415 -175,-175l0,-350c0,-96.585 78.415,-175 175,-175l350,0c96.585,0 175,78.415 175,175Z" style="stroke:#000;stroke-width:50px;"/><path d="M862,337l0,350c0,96.585 -78.415,175 -175,175l-350,-0c-96.585,-0 -175,-78.415 -175,-175l0,-350c0,-96.585 78.415,-175 175,-175l350,-0c96.585,-0 175,78.415 175,175Z" style="fill:#232323;stroke:#000;stroke-width:50px;"/><path d="M335.53,286.922l89.367,-0l0,239.721c0,38.041 1.107,62.698 3.321,73.969c3.825,18.115 12.932,32.657 27.324,43.627c14.391,10.97 34.066,16.454 59.024,16.454c25.361,0 44.483,-5.182 57.364,-15.548c12.882,-10.366 20.631,-23.097 23.248,-38.193c2.616,-15.095 3.925,-40.154 3.925,-75.177l-0,-244.853l89.367,-0l-0,232.475c-0,53.137 -2.416,90.675 -7.246,112.614c-4.831,21.94 -13.737,40.457 -26.72,55.553c-12.982,15.096 -30.342,27.122 -52.08,36.079c-21.738,8.957 -50.118,13.435 -85.14,13.435c-42.269,0 -74.322,-4.881 -96.161,-14.643c-21.838,-9.762 -39.098,-22.442 -51.778,-38.041c-12.681,-15.599 -21.034,-31.953 -25.059,-49.061c-5.837,-25.361 -8.756,-62.799 -8.756,-112.313l0,-236.098Z" style="fill:#b7b7b7;fill-rule:nonzero;"/></g></svg>