<?xml version="1.0" encoding="UTF-8" standalone="no"?><!DOCTYPE svg PUBLIC "-//W3C//DTD SVG 1.1//EN" "http://www.w3.org/Graphics/SVG/1.1/DTD/svg11.dtd"><svg width="100%" height="100%" viewBox="0 0 1024 1024" version="1.1" xmlns="http://www.w3.org/2000/svg" xmlns:xlink="http://www.w3.org/1999/xlink" xml:space="preserve" xmlns:serif="http://www.serif.com/" style="fill-rule:evenodd;clip-rule:evenodd;stroke-linecap:round;stroke-linejoin:round;stroke-miterlimit:1.5;"><g id="Key_Sq"><path d="M862,400l0,350c0,96.585 -78.415,175 -175,175l-350,0c-96.585,0 -175,-78.415 -175,-175l0,-350c0,-96.585 78.415,-175 175,-175l350,0c96.585,0 175,78.415 175,175Z" style="stroke:#000;stroke-width:50px;"/><path d="M862,337l0,350c0,96.585 -78.415,175 -175,175l-350,-0c-96.585,-0 -175,-78.415 -175,-175l0,-350c0,-96.585 78.415,-175 175,-175l350,-0c96.585,-0 175,78.415 175,175Z" style="fill:#232323;stroke:#000;stroke-width:50px;"/><path d="M326.624,290.696l176.922,-0c35.023,-0 61.138,1.459 78.347,4.378c17.21,2.918 32.607,9.007 46.194,18.265c13.586,9.259 24.908,21.587 33.965,36.985c9.058,15.398 13.586,32.657 13.586,51.779c0,20.731 -5.585,39.752 -16.756,57.062c-11.171,17.31 -26.317,30.292 -45.438,38.947c26.971,7.85 47.702,21.235 62.194,40.155c14.492,18.92 21.738,41.161 21.738,66.723c0,20.128 -4.679,39.702 -14.039,58.723c-9.359,19.02 -22.14,34.217 -38.343,45.589c-16.203,11.372 -36.18,18.366 -59.93,20.983c-14.895,1.61 -50.823,2.617 -107.784,3.019l-150.656,0l-0,-442.608Zm89.367,73.667l-0,102.35l58.571,-0c34.821,-0 56.459,-0.504 64.912,-1.51c15.297,-1.811 27.324,-7.095 36.079,-15.851c8.756,-8.755 13.134,-20.278 13.134,-34.569c-0,-13.687 -3.774,-24.807 -11.322,-33.362c-7.548,-8.554 -18.769,-13.737 -33.664,-15.548c-8.856,-1.007 -34.318,-1.51 -76.385,-1.51l-51.325,0Zm-0,176.017l-0,118.351l82.725,0c32.204,0 52.634,-0.906 61.289,-2.717c13.284,-2.416 24.103,-8.303 32.456,-17.662c8.353,-9.36 12.529,-21.889 12.529,-37.589c0,-13.284 -3.22,-24.556 -9.661,-33.814c-6.441,-9.259 -15.75,-16.002 -27.927,-20.229c-12.178,-4.227 -38.595,-6.34 -79.253,-6.34l-72.158,0Z" style="fill:#b7b7b7;fill-rule:nonzero;"/></g></svg>