<?xml version="1.0" encoding="UTF-8" standalone="no"?><!DOCTYPE svg PUBLIC "-//W3C//DTD SVG 1.1//EN" "http://www.w3.org/Graphics/SVG/1.1/DTD/svg11.dtd"><svg width="100%" height="100%" viewBox="0 0 1024 1024" version="1.1" xmlns="http://www.w3.org/2000/svg" xmlns:xlink="http://www.w3.org/1999/xlink" xml:space="preserve" xmlns:serif="http://www.serif.com/" style="fill-rule:evenodd;clip-rule:evenodd;stroke-linecap:round;stroke-linejoin:round;stroke-miterlimit:1.5;"><g id="Mouse"><g id="Lmb"><path d="M958.644,513.059l-0,465.674l-893.288,-0l0,-465.674c0,-246.509 200.135,-446.644 446.644,-446.644c246.509,0 446.644,200.135 446.644,446.644Z" style="fill:#232323;stroke:#000;stroke-width:50px;"/><path d="M512,66.415l0,912.318l-446.644,-0l0,-465.674c0,-246.509 200.135,-446.644 446.644,-446.644Z" style="fill:#b7b7b7;stroke:#000;stroke-width:50px;"/><path d="M512,66.415l-0,912.318" style="fill:none;stroke:#000;stroke-width:50px;"/><path d="M630.265,556.952l-0,203.96c-0,65.272 -52.993,118.265 -118.265,118.265c-65.272,-0 -118.265,-52.993 -118.265,-118.265l0,-203.96c0,-65.272 52.993,-118.265 118.265,-118.265c65.272,0 118.265,52.993 118.265,118.265Z" style="fill:#232323;stroke:#000;stroke-width:50px;"/></g></g></svg>