<?xml version="1.0" encoding="UTF-8" standalone="no"?><!DOCTYPE svg PUBLIC "-//W3C//DTD SVG 1.1//EN" "http://www.w3.org/Graphics/SVG/1.1/DTD/svg11.dtd"><svg width="100%" height="100%" viewBox="0 0 1024 1024" version="1.1" xmlns="http://www.w3.org/2000/svg" xmlns:xlink="http://www.w3.org/1999/xlink" xml:space="preserve" xmlns:serif="http://www.serif.com/" style="fill-rule:evenodd;clip-rule:evenodd;stroke-linecap:round;stroke-linejoin:round;stroke-miterlimit:1.5;"><g id="Mouse"><g id="WheelRight"><path d="M958.644,513.059l-0,465.674l-893.288,-0l0,-465.674c0,-246.509 200.135,-446.644 446.644,-446.644c246.509,0 446.644,200.135 446.644,446.644Z" style="fill:#232323;stroke:#000;stroke-width:50px;"/><path d="M512,66.415l-0,912.318" style="fill:none;stroke:#000;stroke-width:50px;"/><path d="M654.237,449.571l0,245.302c0,78.503 -63.734,142.238 -142.237,142.238c-78.503,-0 -142.237,-63.735 -142.237,-142.238l-0,-245.302c-0,-78.503 63.734,-142.238 142.237,-142.238c78.503,0 142.237,63.735 142.237,142.238Z" style="fill:#b7b7b7;stroke:#000;stroke-width:50px;"/><path d="M876.974,566.009l-160.786,115.212l-0,-230.425l160.786,115.213Z" style="fill:#b7b7b7;"/></g></g></svg>