<?xml version="1.0" encoding="UTF-8" standalone="no"?><!DOCTYPE svg PUBLIC "-//W3C//DTD SVG 1.1//EN" "http://www.w3.org/Graphics/SVG/1.1/DTD/svg11.dtd"><svg width="100%" height="100%" viewBox="0 0 1024 1024" version="1.1" xmlns="http://www.w3.org/2000/svg" xmlns:xlink="http://www.w3.org/1999/xlink" xml:space="preserve" xmlns:serif="http://www.serif.com/" style="fill-rule:evenodd;clip-rule:evenodd;stroke-linecap:round;stroke-linejoin:round;stroke-miterlimit:1.5;"><g id="Sticks"><circle cx="512" cy="647.972" r="332.302" style="stroke:#000;stroke-width:50px;"/><circle cx="512" cy="430.639" r="386.913" style="fill:#232323;stroke:#000;stroke-width:50px;"/><path id="Left" d="M165.847,430.639l164.705,98.077l-0,-196.154l-164.705,98.077Z" style="fill:#b7b7b7;stroke:#fff;stroke-width:50px;"/><path d="M381.54,575.748l0,-290.219l123.333,0c31.015,0 53.55,2.607 67.606,7.82c14.055,5.213 25.307,14.484 33.753,27.814c8.447,13.33 12.67,28.573 12.67,45.73c-0,21.777 -6.401,39.759 -19.203,53.946c-12.802,14.188 -31.938,23.129 -57.41,26.825c12.67,7.391 23.129,15.507 31.378,24.35c8.248,8.842 19.367,24.548 33.357,47.116l35.436,56.618l-70.08,0l-42.365,-63.151c-15.046,-22.568 -25.34,-36.789 -30.883,-42.662c-5.543,-5.873 -11.416,-9.898 -17.619,-12.076c-6.203,-2.178 -16.035,-3.266 -29.497,-3.266l-11.878,-0l0,121.155l-58.598,0Zm58.598,-167.48l43.355,0c28.111,0 45.664,-1.187 52.659,-3.563c6.995,-2.376 12.472,-6.467 16.431,-12.274c3.959,-5.807 5.939,-13.066 5.939,-21.776c0,-9.767 -2.606,-17.652 -7.82,-23.657c-5.213,-6.005 -12.57,-9.8 -22.073,-11.383c-4.751,-0.66 -19.005,-0.99 -42.761,-0.99l-45.73,-0l0,73.643Z" style="fill:#b7b7b7;fill-rule:nonzero;"/></g></svg>