<?xml version="1.0" encoding="UTF-8" standalone="no"?><!DOCTYPE svg PUBLIC "-//W3C//DTD SVG 1.1//EN" "http://www.w3.org/Graphics/SVG/1.1/DTD/svg11.dtd"><svg width="100%" height="100%" viewBox="0 0 1024 1024" version="1.1" xmlns="http://www.w3.org/2000/svg" xmlns:xlink="http://www.w3.org/1999/xlink" xml:space="preserve" xmlns:serif="http://www.serif.com/" style="fill-rule:evenodd;clip-rule:evenodd;stroke-linecap:round;stroke-linejoin:round;stroke-miterlimit:1.5;"><g id="Back"><path id="Trigger" d="M943.94,146.006l-863.88,-0l0,301.708c0,237.478 192.802,430.28 430.28,430.28l1.727,0c238.357,0 431.873,-193.516 431.873,-431.873l-0,-300.115Z" style="fill:#232323;stroke:#000;stroke-width:50px;"/><path d="M381.54,657.109l0,-290.218l123.333,-0c31.015,-0 53.55,2.606 67.606,7.819c14.055,5.213 25.307,14.485 33.753,27.814c8.447,13.33 12.67,28.574 12.67,45.731c-0,21.776 -6.401,39.758 -19.203,53.946c-12.802,14.187 -31.938,23.129 -57.41,26.824c12.67,7.391 23.129,15.508 31.378,24.35c8.248,8.843 19.367,24.548 33.357,47.116l35.436,56.618l-70.08,0l-42.365,-63.151c-15.046,-22.568 -25.34,-36.789 -30.883,-42.662c-5.543,-5.873 -11.416,-9.898 -17.619,-12.076c-6.203,-2.177 -16.035,-3.266 -29.497,-3.266l-11.878,-0l0,121.155l-58.598,0Zm58.598,-167.479l43.355,-0c28.111,-0 45.664,-1.188 52.659,-3.564c6.995,-2.375 12.472,-6.467 16.431,-12.274c3.959,-5.807 5.939,-13.065 5.939,-21.776c0,-9.766 -2.606,-17.652 -7.82,-23.657c-5.213,-6.005 -12.57,-9.799 -22.073,-11.383c-4.751,-0.66 -19.005,-0.99 -42.761,-0.99l-45.73,0l0,73.644Z" style="fill:#b7b7b7;fill-rule:nonzero;"/></g></svg>