<?xml version="1.0" encoding="UTF-8" standalone="no"?><!DOCTYPE svg PUBLIC "-//W3C//DTD SVG 1.1//EN" "http://www.w3.org/Graphics/SVG/1.1/DTD/svg11.dtd"><svg width="100%" height="100%" viewBox="0 0 1024 1024" version="1.1" xmlns="http://www.w3.org/2000/svg" xmlns:xlink="http://www.w3.org/1999/xlink" xml:space="preserve" xmlns:serif="http://www.serif.com/" style="fill-rule:evenodd;clip-rule:evenodd;stroke-linecap:round;stroke-linejoin:round;stroke-miterlimit:1.5;"><g id="DPad"><circle id="CrossBG" cx="512" cy="512" r="480.917" style="fill-opacity:0.58;"/><path id="CrossOutline" d="M391.554,632.494l-311.474,-0.014l0,-240.92l311.486,0.014l0.014,-311.474l240.92,0l-0.014,311.486l311.474,0.014l-0,240.92l-311.486,-0.014l-0.014,311.474l-240.92,-0l0.014,-311.486Z" style="stroke:#000;stroke-width:150px;"/><g id="DirBGs"><path d="M632.5,331.5l-120.5,120.5l-120.42,-120.5l-0,-251.4l240.92,-0l-0,251.4Z" style="fill:#232323;stroke:#232323;stroke-width:50px;"/><path d="M692.6,632.52l-120.5,-120.5l120.5,-120.42l251.36,-0l-0,240.92l-251.36,-0Z" style="fill:#232323;stroke:#232323;stroke-width:50px;"/><path d="M391.54,692.6l120.5,-120.5l120.42,120.5l0,251.38l-240.92,-0l-0,-251.38Z" style="fill:#232323;stroke:#232323;stroke-width:50px;"/><path d="M331.5,391.56l120.5,120.5l-120.5,120.42l-251.42,0l0,-240.92l251.42,-0Z" style="fill:#232323;stroke:#232323;stroke-width:50px;"/></g><g id="Dirs"><path id="Right" d="M692.6,632.52l-120.5,-120.5l120.5,-120.42l251.36,-0l-0,240.92l-251.36,-0Z" style="fill:#b7b7b7;stroke:#fff;stroke-width:50px;"/></g></g></svg>