<?xml version="1.0" encoding="UTF-8" standalone="no"?><!DOCTYPE svg PUBLIC "-//W3C//DTD SVG 1.1//EN" "http://www.w3.org/Graphics/SVG/1.1/DTD/svg11.dtd"><svg width="100%" height="100%" viewBox="0 0 1024 1024" version="1.1" xmlns="http://www.w3.org/2000/svg" xmlns:xlink="http://www.w3.org/1999/xlink" xml:space="preserve" xmlns:serif="http://www.serif.com/" style="fill-rule:evenodd;clip-rule:evenodd;stroke-linecap:round;stroke-linejoin:round;stroke-miterlimit:1.5;"><g id="PSButtons"><path id="Touchpad_ps5" d="M966.232,298.104c4.095,-19.993 -1.016,-40.767 -13.917,-56.579c-12.902,-15.812 -32.229,-24.986 -52.637,-24.986c-178.6,-0 -596.756,-0 -775.356,-0c-20.408,-0 -39.735,9.174 -52.637,24.986c-12.901,15.812 -18.012,36.586 -13.917,56.579c21.631,105.621 59.356,289.826 83.022,405.383c12.394,60.521 65.649,103.974 127.426,103.974l487.568,0c61.777,0 115.032,-43.453 127.426,-103.974c23.666,-115.557 61.391,-299.762 83.022,-405.383Z" style="fill:#232323;"/><clipPath id="_clip1"><path id="Touchpad_ps51" serif:id="Touchpad_ps5" d="M966.232,298.104c4.095,-19.993 -1.016,-40.767 -13.917,-56.579c-12.902,-15.812 -32.229,-24.986 -52.637,-24.986c-178.6,-0 -596.756,-0 -775.356,-0c-20.408,-0 -39.735,9.174 -52.637,24.986c-12.901,15.812 -18.012,36.586 -13.917,56.579c21.631,105.621 59.356,289.826 83.022,405.383c12.394,60.521 65.649,103.974 127.426,103.974l487.568,0c61.777,0 115.032,-43.453 127.426,-103.974c23.666,-115.557 61.391,-299.762 83.022,-405.383Z"/></clipPath><g clip-path="url(#_clip1)"><g><circle cx="228.228" cy="353.561" r="28.377" style="fill:#2c2c2c;"/><circle cx="341.737" cy="353.561" r="28.377" style="fill:#2c2c2c;"/><circle cx="455.246" cy="353.561" r="28.377" style="fill:#2c2c2c;"/><circle cx="568.754" cy="353.561" r="28.377" style="fill:#2c2c2c;"/><circle cx="682.263" cy="353.561" r="28.377" style="fill:#2c2c2c;"/><circle cx="795.772" cy="353.561" r="28.377" style="fill:#2c2c2c;"/><circle cx="228.228" cy="459.187" r="28.377" style="fill:#2c2c2c;"/><circle cx="341.737" cy="459.187" r="28.377" style="fill:#2c2c2c;"/><circle cx="455.246" cy="459.187" r="28.377" style="fill:#2c2c2c;"/><circle cx="568.754" cy="459.187" r="28.377" style="fill:#2c2c2c;"/><circle cx="682.263" cy="459.187" r="28.377" style="fill:#2c2c2c;"/><circle cx="795.772" cy="459.187" r="28.377" style="fill:#2c2c2c;"/><circle cx="228.228" cy="564.813" r="28.377" style="fill:#2c2c2c;"/><circle cx="341.737" cy="564.813" r="28.377" style="fill:#2c2c2c;"/><circle cx="455.246" cy="564.813" r="28.377" style="fill:#2c2c2c;"/><circle cx="568.754" cy="564.813" r="28.377" style="fill:#2c2c2c;"/><circle cx="682.263" cy="564.813" r="28.377" style="fill:#2c2c2c;"/><circle cx="795.772" cy="564.813" r="28.377" style="fill:#2c2c2c;"/><circle cx="228.228" cy="670.439" r="28.377" style="fill:#2c2c2c;"/><circle cx="341.737" cy="670.439" r="28.377" style="fill:#2c2c2c;"/><circle cx="455.246" cy="670.439" r="28.377" style="fill:#2c2c2c;"/><circle cx="568.754" cy="670.439" r="28.377" style="fill:#2c2c2c;"/><circle cx="682.263" cy="670.439" r="28.377" style="fill:#2c2c2c;"/><circle cx="795.772" cy="670.439" r="28.377" style="fill:#2c2c2c;"/></g></g><path id="Touchpad_ps52" serif:id="Touchpad_ps5" d="M966.232,298.104c4.095,-19.993 -1.016,-40.767 -13.917,-56.579c-12.902,-15.812 -32.229,-24.986 -52.637,-24.986c-178.6,-0 -596.756,-0 -775.356,-0c-20.408,-0 -39.735,9.174 -52.637,24.986c-12.901,15.812 -18.012,36.586 -13.917,56.579c21.631,105.621 59.356,289.826 83.022,405.383c12.394,60.521 65.649,103.974 127.426,103.974l487.568,0c61.777,0 115.032,-43.453 127.426,-103.974c23.666,-115.557 61.391,-299.762 83.022,-405.383Z" style="fill:none;stroke:#000;stroke-width:50px;"/></g></svg>