<?xml version="1.0" encoding="UTF-8" standalone="no"?><!DOCTYPE svg PUBLIC "-//W3C//DTD SVG 1.1//EN" "http://www.w3.org/Graphics/SVG/1.1/DTD/svg11.dtd"><svg width="100%" height="100%" viewBox="0 0 1024 1024" version="1.1" xmlns="http://www.w3.org/2000/svg" xmlns:xlink="http://www.w3.org/1999/xlink" xml:space="preserve" xmlns:serif="http://www.serif.com/" style="fill-rule:evenodd;clip-rule:evenodd;stroke-linecap:round;stroke-linejoin:round;stroke-miterlimit:1.5;"><g id="PSButtons"><circle id="Circle" cx="512" cy="512" r="424.381" style="fill:#232323;"/><clipPath id="_clip1"><circle id="Circle1" serif:id="Circle" cx="512" cy="512" r="424.381"/></clipPath><g clip-path="url(#_clip1)"><path d="M512,203.706c170.152,0 308.294,138.142 308.294,308.294c-0,170.152 -138.142,308.294 -308.294,308.294c-170.152,-0 -308.294,-138.142 -308.294,-308.294c0,-170.152 138.142,-308.294 308.294,-308.294Zm0,150.363c-87.164,-0 -157.931,70.767 -157.931,157.931c-0,87.164 70.767,157.931 157.931,157.931c87.164,0 157.931,-70.767 157.931,-157.931c0,-87.164 -70.767,-157.931 -157.931,-157.931Z" style="fill:#ff0036;stroke:#000;stroke-width:50px;"/></g><circle id="Circle2" serif:id="Circle" cx="512" cy="512" r="424.381" style="fill:none;stroke:#000;stroke-width:50px;"/></g></svg>