<?xml version="1.0" encoding="UTF-8" standalone="no"?><!DOCTYPE svg PUBLIC "-//W3C//DTD SVG 1.1//EN" "http://www.w3.org/Graphics/SVG/1.1/DTD/svg11.dtd"><svg width="100%" height="100%" viewBox="0 0 1024 1024" version="1.1" xmlns="http://www.w3.org/2000/svg" xmlns:xlink="http://www.w3.org/1999/xlink" xml:space="preserve" xmlns:serif="http://www.serif.com/" style="fill-rule:evenodd;clip-rule:evenodd;stroke-linecap:round;stroke-linejoin:round;stroke-miterlimit:1.5;"><g id="PSButtons"><circle id="Home" cx="512" cy="512" r="424.381" style="fill:#232323;"/><clipPath id="_clip1"><circle id="Home1" serif:id="Home" cx="512" cy="512" r="424.381"/></clipPath><g clip-path="url(#_clip1)"><path d="M536.447,773.035l0,-416.537c10.422,-27.788 23.037,-26.812 45.407,13.641l0,172.107c61.74,21.024 114.144,17.843 123.039,-98.138c-1.848,-83.806 -49.417,-131.269 -127.433,-154.53l-150.868,-38.613l-0,488.289l109.855,33.781Zm21.239,-8.148l0,-61.519l184.558,-67.379c20.432,-15.925 5.17,-23.579 -56.393,-20.506l-128.172,45.407l0,-67.378c25.418,-7.35 49.775,-13.64 69.582,-15.38c68.158,-5.537 124.304,-4.211 157.46,10.253c84.426,30.028 82.143,60.055 17.577,90.082l-244.612,86.42Zm-153.542,-219.452l-0,62.34l-112.024,40.778c-30.683,17.566 -28.233,28.84 39.841,27.654c13.382,-1.915 38.819,-11.365 72.2,-25.779l0,55.777c-69.857,10.232 -131.397,6.799 -183.755,-11.718c-60.207,-27.679 -63.847,-55.908 4.687,-84.838l179.051,-64.214Z" style="fill:#fff;"/></g><circle id="Home2" serif:id="Home" cx="512" cy="512" r="424.381" style="fill:none;stroke:#000;stroke-width:50px;"/></g></svg>