<?xml version="1.0" encoding="UTF-8" standalone="no"?><!DOCTYPE svg PUBLIC "-//W3C//DTD SVG 1.1//EN" "http://www.w3.org/Graphics/SVG/1.1/DTD/svg11.dtd"><svg width="100%" height="100%" viewBox="0 0 1024 1024" version="1.1" xmlns="http://www.w3.org/2000/svg" xmlns:xlink="http://www.w3.org/1999/xlink" xml:space="preserve" xmlns:serif="http://www.serif.com/" style="fill-rule:evenodd;clip-rule:evenodd;stroke-linecap:round;stroke-linejoin:round;stroke-miterlimit:1.5;"><g id="PSButtons"><path id="Shoulder" d="M943.94,536.629c-0,-149.526 -121.397,-270.923 -270.923,-270.923l-198.887,0c-217.493,0 -394.07,176.577 -394.07,394.07l0,98.518l863.88,-0l-0,-221.665Z" style="fill:#232323;"/><clipPath id="_clip1"><path id="Shoulder1" serif:id="Shoulder" d="M943.94,536.629c-0,-149.526 -121.397,-270.923 -270.923,-270.923l-198.887,0c-217.493,0 -394.07,176.577 -394.07,394.07l0,98.518l863.88,-0l-0,-221.665Z"/></clipPath><g clip-path="url(#_clip1)"><path d="M372.322,657.109l-0,-287.843l58.598,0l-0,238.946l145.703,-0l0,48.897l-204.301,0Z" style="fill:#b7b7b7;fill-rule:nonzero;"/><path d="M748.458,657.109l-55.628,0l-0,-209.646c-20.325,19.005 -44.279,33.06 -71.862,42.167l-0,-50.482c14.517,-4.751 30.289,-13.758 47.314,-27.022c17.025,-13.264 28.705,-28.738 35.04,-46.423l45.136,-0l0,291.406Z" style="fill:#b7b7b7;fill-rule:nonzero;"/></g><path id="Shoulder2" serif:id="Shoulder" d="M943.94,536.629c-0,-149.526 -121.397,-270.923 -270.923,-270.923l-198.887,0c-217.493,0 -394.07,176.577 -394.07,394.07l0,98.518l863.88,-0l-0,-221.665Z" style="fill:none;stroke:#000;stroke-width:50px;"/></g></svg>