<?xml version="1.0" encoding="UTF-8" standalone="no"?><!DOCTYPE svg PUBLIC "-//W3C//DTD SVG 1.1//EN" "http://www.w3.org/Graphics/SVG/1.1/DTD/svg11.dtd"><svg width="100%" height="100%" viewBox="0 0 1024 1024" version="1.1" xmlns="http://www.w3.org/2000/svg" xmlns:xlink="http://www.w3.org/1999/xlink" xml:space="preserve" xmlns:serif="http://www.serif.com/" style="fill-rule:evenodd;clip-rule:evenodd;stroke-linecap:round;stroke-linejoin:round;stroke-miterlimit:1.5;"><g id="PSButtons"><g id="Mute"><path d="M874.5,206.156c-0,-48.293 -39.208,-87.5 -87.5,-87.5l-550,0c-48.292,0 -87.5,39.207 -87.5,87.5c0,48.293 39.208,87.5 87.5,87.5l550,-0c48.292,-0 87.5,-39.207 87.5,-87.5Z" style="fill:#2c2c2c;stroke:#000;stroke-width:50px;"/><path d="M442,604.221l94.283,125.456c-7.566,1.351 -15.747,1.818 -24.283,1.818c-38.634,-0 -70,-9.549 -70,-67.5l0,-59.774Zm140,-26.803l-138.651,-184.494c6.39,-41.062 34.717,-48.429 68.651,-48.429c38.634,-0 70,9.549 70,67.5l-0,165.423Z" style="fill:#b7b7b7;"/><path d="M599.173,813.362c-12.504,2.746 -26.563,4.889 -42.373,6.272l-0,20.43l49.92,-0l-0,65.28l-189.44,-0l0,-65.28l49.92,-0l0,-20.43c-143.758,-12.574 -142.839,-87.992 -142.839,-108.739l-0,-161.9l76.135,-0l7.615,10.131l-0,94.869c-0,48.18 9.46,105.499 104.25,105.499c16.732,0 30.783,-1.786 42.578,-4.992l44.234,58.86Zm16.716,-190.849l0,-73.518l83.75,-0l0,161.9c0,4.678 0.047,12.135 -1.528,21.025l-82.222,-109.407Z" style="fill:#b7b7b7;"/><path d="M369.68,343.918l-55.255,41.526l339.895,452.277l55.255,-41.525l-339.895,-452.278Z" style="fill:#b7b7b7;"/></g></g></svg>