<?xml version="1.0" encoding="UTF-8" standalone="no"?><!DOCTYPE svg PUBLIC "-//W3C//DTD SVG 1.1//EN" "http://www.w3.org/Graphics/SVG/1.1/DTD/svg11.dtd"><svg width="100%" height="100%" viewBox="0 0 1024 1024" version="1.1" xmlns="http://www.w3.org/2000/svg" xmlns:xlink="http://www.w3.org/1999/xlink" xml:space="preserve" xmlns:serif="http://www.serif.com/" style="fill-rule:evenodd;clip-rule:evenodd;stroke-linecap:round;stroke-linejoin:round;stroke-miterlimit:1.5;"><g id="PSButtons"><g id="Options"><path d="M673.704,535.347c0,-89.247 -72.457,-161.704 -161.704,-161.704c-89.247,0 -161.704,72.457 -161.704,161.704l-0,209.785c-0,89.247 72.457,161.705 161.704,161.705c89.247,-0 161.704,-72.458 161.704,-161.705l0,-209.785Z" style="fill:#232323;stroke:#000;stroke-width:50px;"/><path d="M87.619,203.411c0,-16.792 2.512,-30.885 7.535,-42.28c3.748,-8.396 8.864,-15.93 15.349,-22.602c6.484,-6.672 13.587,-11.62 21.309,-14.844c10.27,-4.348 22.115,-6.522 35.533,-6.522c24.289,0 43.724,7.534 58.305,22.603c14.581,15.068 21.871,36.021 21.871,62.858c0,26.613 -7.234,47.435 -21.702,62.465c-14.469,15.031 -33.81,22.546 -58.024,22.546c-24.514,0 -44.005,-7.478 -58.473,-22.433c-14.468,-14.956 -21.703,-35.553 -21.703,-61.791Zm34.297,-1.124c0,18.666 4.311,32.816 12.932,42.449c8.621,9.633 19.566,14.45 32.835,14.45c13.269,-0 24.157,-4.779 32.666,-14.337c8.509,-9.559 12.763,-23.896 12.763,-43.012c-0,-18.891 -4.142,-32.985 -12.426,-42.281c-8.283,-9.295 -19.284,-13.943 -33.003,-13.943c-13.719,-0 -24.776,4.704 -33.172,14.112c-8.397,9.408 -12.595,23.596 -12.595,42.562Z" style="fill:#b7b7b7;fill-rule:nonzero;"/><path d="M272.372,165.404l29.462,-0l-0,17.542c3.823,-5.998 8.996,-10.87 15.518,-14.619c6.522,-3.748 13.756,-5.622 21.702,-5.622c13.869,0 25.639,5.435 35.309,16.305c9.671,10.87 14.506,26.013 14.506,45.429c-0,19.941 -4.873,35.44 -14.618,46.498c-9.746,11.057 -21.553,16.586 -35.422,16.586c-6.597,-0 -12.575,-1.312 -17.935,-3.936c-5.36,-2.624 -11.001,-7.122 -16.924,-13.494l0,60.16l-31.598,0l0,-164.849Zm31.261,57.686c-0,13.419 2.661,23.333 7.984,29.742c5.322,6.41 11.807,9.615 19.453,9.615c7.347,-0 13.457,-2.943 18.33,-8.827c4.872,-5.885 7.309,-15.537 7.309,-28.956c-0,-12.519 -2.512,-21.815 -7.534,-27.887c-5.023,-6.072 -11.245,-9.108 -18.667,-9.108c-7.721,-0 -14.131,2.979 -19.229,8.939c-5.097,5.96 -7.646,14.787 -7.646,26.482Z" style="fill:#b7b7b7;fill-rule:nonzero;"/><path d="M468.707,165.404l0,25.188l-21.59,0l0,48.128c0,9.746 0.206,15.424 0.619,17.036c0.412,1.612 1.349,2.943 2.811,3.992c1.462,1.05 3.242,1.574 5.341,1.574c2.924,0 7.159,-1.012 12.707,-3.036l2.699,24.514c-7.347,3.149 -15.668,4.723 -24.964,4.723c-5.697,-0 -10.832,-0.956 -15.405,-2.868c-4.573,-1.911 -7.928,-4.385 -10.064,-7.421c-2.137,-3.036 -3.618,-7.141 -4.442,-12.313c-0.675,-3.674 -1.012,-11.095 -1.012,-22.265l-0,-52.064l-14.506,0l-0,-25.188l14.506,-0l-0,-23.727l31.71,-18.441l0,42.168l21.59,-0Z" style="fill:#b7b7b7;fill-rule:nonzero;"/><path d="M490.635,149.211l-0,-29.236l31.598,-0l-0,29.236l-31.598,0Zm-0,135.613l-0,-119.42l31.598,-0l-0,119.42l-31.598,0Z" style="fill:#b7b7b7;fill-rule:nonzero;"/><path d="M547.309,223.427c-0,-10.495 2.586,-20.653 7.759,-30.473c5.172,-9.821 12.5,-17.317 21.983,-22.49c9.484,-5.173 20.072,-7.759 31.767,-7.759c18.067,0 32.873,5.866 44.417,17.598c11.545,11.732 17.317,26.557 17.317,44.474c0,18.066 -5.828,33.041 -17.485,44.923c-11.658,11.882 -26.332,17.823 -44.024,17.823c-10.945,-0 -21.384,-2.474 -31.317,-7.422c-9.933,-4.948 -17.486,-12.2 -22.658,-21.759c-5.173,-9.558 -7.759,-21.196 -7.759,-34.915Zm32.385,1.687c-0,11.844 2.811,20.915 8.434,27.212c5.622,6.298 12.556,9.446 20.803,9.446c8.246,0 15.161,-3.148 20.746,-9.446c5.585,-6.297 8.378,-15.442 8.378,-27.437c-0,-11.695 -2.793,-20.691 -8.378,-26.988c-5.585,-6.297 -12.5,-9.445 -20.746,-9.445c-8.247,-0 -15.181,3.148 -20.803,9.445c-5.623,6.297 -8.434,15.368 -8.434,27.213Z" style="fill:#b7b7b7;fill-rule:nonzero;"/><path d="M803.916,284.824l-31.598,0l0,-60.947c0,-12.894 -0.674,-21.234 -2.024,-25.02c-1.349,-3.786 -3.542,-6.728 -6.578,-8.827c-3.036,-2.099 -6.691,-3.149 -10.964,-3.149c-5.472,0 -10.383,1.5 -14.731,4.498c-4.348,2.999 -7.327,6.972 -8.939,11.92c-1.612,4.948 -2.418,14.093 -2.418,27.437l0,54.088l-31.598,0l0,-119.42l29.349,-0l0,17.542c10.42,-13.494 23.539,-20.241 39.357,-20.241c6.972,0 13.344,1.256 19.116,3.767c5.773,2.511 10.139,5.716 13.101,9.614c2.961,3.899 5.022,8.322 6.184,13.269c1.162,4.948 1.743,12.032 1.743,21.253l0,74.216Z" style="fill:#b7b7b7;fill-rule:nonzero;"/><path d="M824.832,250.752l31.71,-4.835c1.349,6.147 4.086,10.814 8.209,14c4.123,3.186 9.895,4.779 17.317,4.779c8.171,-0 14.318,-1.5 18.441,-4.498c2.774,-2.099 4.161,-4.91 4.161,-8.434c0,-2.399 -0.75,-4.385 -2.249,-5.96c-1.574,-1.499 -5.098,-2.886 -10.57,-4.16c-25.488,-5.623 -41.643,-10.758 -48.465,-15.406c-9.446,-6.447 -14.169,-15.405 -14.169,-26.875c0,-10.345 4.086,-19.041 12.257,-26.088c8.171,-7.047 20.84,-10.57 38.008,-10.57c16.342,0 28.487,2.661 36.433,7.984c7.946,5.322 13.419,13.194 16.417,23.614l-29.798,5.51c-1.275,-4.648 -3.693,-8.209 -7.253,-10.683c-3.561,-2.473 -8.64,-3.71 -15.237,-3.71c-8.321,-0 -14.281,1.162 -17.879,3.486c-2.399,1.649 -3.599,3.785 -3.599,6.409c0,2.249 1.05,4.161 3.149,5.735c2.848,2.099 12.688,5.06 29.517,8.883c16.83,3.824 28.581,8.509 35.253,14.056c6.597,5.623 9.896,13.457 9.896,23.502c-0,10.945 -4.573,20.353 -13.719,28.225c-9.146,7.871 -22.677,11.807 -40.594,11.807c-16.268,-0 -29.143,-3.299 -38.626,-9.896c-9.483,-6.597 -15.687,-15.555 -18.61,-26.875Z" style="fill:#b7b7b7;fill-rule:nonzero;"/></g></g></svg>