<?xml version="1.0" encoding="UTF-8" standalone="no"?><!DOCTYPE svg PUBLIC "-//W3C//DTD SVG 1.1//EN" "http://www.w3.org/Graphics/SVG/1.1/DTD/svg11.dtd"><svg width="100%" height="100%" viewBox="0 0 1024 1024" version="1.1" xmlns="http://www.w3.org/2000/svg" xmlns:xlink="http://www.w3.org/1999/xlink" xml:space="preserve" xmlns:serif="http://www.serif.com/" style="fill-rule:evenodd;clip-rule:evenodd;stroke-linecap:round;stroke-linejoin:round;stroke-miterlimit:1.5;"><g id="PSButtons"><path id="Trigger" d="M943.94,146.006l-863.88,-0l0,365.994c0,201.998 163.996,365.994 365.994,365.994l22.094,0c262.597,0 475.792,-213.195 475.792,-475.792l-0,-256.196Z" style="fill:#232323;"/><clipPath id="_clip1"><path id="Trigger1" serif:id="Trigger" d="M943.94,146.006l-863.88,-0l0,365.994c0,201.998 163.996,365.994 365.994,365.994l22.094,0c262.597,0 475.792,-213.195 475.792,-475.792l-0,-256.196Z"/></clipPath><g clip-path="url(#_clip1)"><path d="M277.905,657.109l-0,-290.218l123.333,-0c31.014,-0 53.55,2.606 67.605,7.819c14.056,5.213 25.307,14.485 33.754,27.814c8.446,13.33 12.669,28.574 12.669,45.731c0,21.776 -6.4,39.758 -19.202,53.946c-12.802,14.187 -31.939,23.129 -57.411,26.824c12.67,7.391 23.129,15.508 31.378,24.35c8.249,8.843 19.368,24.548 33.357,47.116l35.436,56.618l-70.08,0l-42.365,-63.151c-15.045,-22.568 -25.339,-36.789 -30.882,-42.662c-5.543,-5.873 -11.416,-9.898 -17.619,-12.076c-6.203,-2.177 -16.036,-3.266 -29.497,-3.266l-11.878,-0l-0,121.155l-58.598,0Zm58.598,-167.479l43.354,-0c28.112,-0 45.665,-1.188 52.659,-3.564c6.995,-2.375 12.472,-6.467 16.432,-12.274c3.959,-5.807 5.939,-13.065 5.939,-21.776c-0,-9.766 -2.607,-17.652 -7.82,-23.657c-5.213,-6.005 -12.571,-9.799 -22.073,-11.383c-4.751,-0.66 -19.005,-0.99 -42.761,-0.99l-45.73,0l-0,73.644Z" style="fill:#b7b7b7;fill-rule:nonzero;"/><path d="M746.095,605.44l0,51.669l-194.997,0c2.112,-19.532 8.447,-38.042 19.005,-55.529c10.558,-17.487 31.411,-40.682 62.558,-69.585c25.075,-23.36 40.451,-39.198 46.126,-47.512c7.655,-11.482 11.482,-22.832 11.482,-34.051c-0,-12.406 -3.333,-21.941 -9.997,-28.606c-6.665,-6.665 -15.871,-9.997 -27.617,-9.997c-11.614,-0 -20.852,3.497 -27.715,10.492c-6.863,6.995 -10.822,18.609 -11.878,34.842l-55.431,-5.543c3.3,-30.619 13.66,-52.593 31.081,-65.923c17.421,-13.329 39.197,-19.994 65.329,-19.994c28.639,-0 51.141,7.72 67.507,23.162c16.365,15.441 24.547,34.644 24.547,57.608c0,13.066 -2.342,25.505 -7.027,37.317c-4.686,11.812 -12.109,24.185 -22.272,37.118c-6.73,8.579 -18.872,20.919 -36.425,37.02c-17.553,16.102 -28.673,26.792 -33.358,32.071c-4.685,5.279 -8.479,10.426 -11.383,15.441l110.465,0Z" style="fill:#b7b7b7;fill-rule:nonzero;"/></g><path id="Trigger2" serif:id="Trigger" d="M943.94,146.006l-863.88,-0l0,365.994c0,201.998 163.996,365.994 365.994,365.994l22.094,0c262.597,0 475.792,-213.195 475.792,-475.792l-0,-256.196Z" style="fill:none;stroke:#000;stroke-width:50px;"/></g></svg>