<?xml version="1.0" encoding="UTF-8" standalone="no"?><!DOCTYPE svg PUBLIC "-//W3C//DTD SVG 1.1//EN" "http://www.w3.org/Graphics/SVG/1.1/DTD/svg11.dtd"><svg width="100%" height="100%" viewBox="0 0 1024 1024" version="1.1" xmlns="http://www.w3.org/2000/svg" xmlns:xlink="http://www.w3.org/1999/xlink" xml:space="preserve" xmlns:serif="http://www.serif.com/" style="fill-rule:evenodd;clip-rule:evenodd;stroke-linecap:round;stroke-linejoin:round;stroke-miterlimit:1.5;"><g id="PSButtons"><g id="Share"><path d="M673.704,535.347c0,-89.247 -72.457,-161.704 -161.704,-161.704c-89.247,0 -161.704,72.457 -161.704,161.704l-0,209.785c-0,89.247 72.457,161.705 161.704,161.705c89.247,-0 161.704,-72.458 161.704,-161.705l0,-209.785Z" style="fill:#232323;stroke:#000;stroke-width:50px;"/><path d="M200.855,231.186l32.385,-3.148c1.949,10.87 5.904,18.853 11.864,23.951c5.959,5.098 13.999,7.647 24.12,7.647c10.72,-0 18.797,-2.268 24.232,-6.804c5.435,-4.535 8.153,-9.839 8.153,-15.911c-0,-3.898 -1.143,-7.215 -3.43,-9.952c-2.286,-2.736 -6.278,-5.116 -11.976,-7.14c-3.898,-1.35 -12.781,-3.748 -26.65,-7.197c-17.842,-4.423 -30.361,-9.858 -37.558,-16.305c-10.12,-9.071 -15.18,-20.128 -15.18,-33.172c-0,-8.396 2.38,-16.249 7.14,-23.558c4.761,-7.309 11.62,-12.875 20.578,-16.699c8.959,-3.823 19.773,-5.735 32.442,-5.735c20.69,0 36.264,4.536 46.722,13.607c10.458,9.07 15.949,21.177 16.474,36.321l-33.285,1.461c-1.424,-8.471 -4.479,-14.562 -9.164,-18.273c-4.686,-3.71 -11.714,-5.566 -21.085,-5.566c-9.67,0 -17.242,1.987 -22.714,5.96c-3.524,2.549 -5.285,5.96 -5.285,10.233c-0,3.898 1.649,7.234 4.948,10.008c4.198,3.523 14.393,7.196 30.585,11.02c16.193,3.823 28.169,7.777 35.928,11.863c7.759,4.086 13.831,9.671 18.216,16.755c4.386,7.084 6.579,15.836 6.579,26.257c-0,9.445 -2.624,18.291 -7.872,26.537c-5.247,8.247 -12.669,14.375 -22.265,18.386c-9.595,4.01 -21.552,6.016 -35.871,6.016c-20.84,-0 -36.845,-4.817 -48.015,-14.45c-11.17,-9.633 -17.842,-23.67 -20.016,-42.112Z" style="fill:#b7b7b7;fill-rule:nonzero;"/><path d="M394.154,119.975l0,60.609c10.195,-11.919 22.377,-17.879 36.546,-17.879c7.271,0 13.831,1.349 19.678,4.048c5.848,2.699 10.252,6.147 13.213,10.345c2.961,4.198 4.985,8.846 6.072,13.944c1.087,5.098 1.631,13.007 1.631,23.727l-0,70.055l-31.598,0l-0,-63.084c-0,-12.519 -0.6,-20.465 -1.8,-23.839c-1.199,-3.373 -3.317,-6.053 -6.353,-8.04c-3.036,-1.986 -6.84,-2.98 -11.413,-2.98c-5.248,0 -9.933,1.275 -14.056,3.824c-4.124,2.549 -7.141,6.39 -9.053,11.526c-1.911,5.135 -2.867,12.725 -2.867,22.77l0,59.823l-31.598,0l-0,-164.849l31.598,-0Z" style="fill:#b7b7b7;fill-rule:nonzero;"/><path d="M526.956,201.837l-28.675,-5.173c3.224,-11.544 8.771,-20.09 16.643,-25.638c7.871,-5.547 19.566,-8.321 35.084,-8.321c14.093,0 24.588,1.668 31.485,5.004c6.897,3.336 11.751,7.571 14.562,12.707c2.811,5.135 4.217,14.562 4.217,28.28l-0.337,36.884c-0,10.495 0.506,18.235 1.518,23.22c1.012,4.985 2.905,10.327 5.678,16.024l-31.26,0c-0.825,-2.099 -1.837,-5.21 -3.036,-9.333c-0.525,-1.874 -0.9,-3.111 -1.125,-3.711c-5.397,5.248 -11.17,9.183 -17.317,11.807c-6.147,2.624 -12.707,3.936 -19.678,3.936c-12.295,-0 -21.984,-3.336 -29.068,-10.008c-7.085,-6.672 -10.627,-15.106 -10.627,-25.301c0,-6.747 1.612,-12.763 4.836,-18.048c3.223,-5.285 7.74,-9.333 13.55,-12.144c5.809,-2.812 14.187,-5.267 25.132,-7.366c14.768,-2.774 25.001,-5.36 30.698,-7.759l0,-3.148c0,-6.073 -1.499,-10.402 -4.498,-12.988c-2.998,-2.586 -8.658,-3.88 -16.979,-3.88c-5.623,0 -10.008,1.106 -13.157,3.318c-3.148,2.211 -5.697,6.091 -7.646,11.638Zm42.28,25.638c-4.048,1.35 -10.457,2.961 -19.228,4.836c-8.771,1.874 -14.506,3.71 -17.205,5.51c-4.123,2.923 -6.185,6.634 -6.185,11.132c0,4.423 1.65,8.246 4.948,11.47c3.299,3.223 7.497,4.835 12.594,4.835c5.698,0 11.133,-1.874 16.305,-5.622c3.824,-2.849 6.335,-6.335 7.534,-10.458c0.825,-2.699 1.237,-7.834 1.237,-15.406l0,-6.297Z" style="fill:#b7b7b7;fill-rule:nonzero;"/><path d="M661.669,284.824l-31.598,0l-0,-119.42l29.349,-0l-0,16.979c5.023,-8.021 9.539,-13.306 13.55,-15.855c4.011,-2.549 8.565,-3.823 13.662,-3.823c7.197,0 14.131,1.987 20.803,5.96l-9.783,27.55c-5.322,-3.449 -10.27,-5.173 -14.843,-5.173c-4.423,0 -8.171,1.218 -11.245,3.655c-3.073,2.436 -5.491,6.84 -7.253,13.212c-1.761,6.372 -2.642,19.716 -2.642,40.032l-0,36.883Z" style="fill:#b7b7b7;fill-rule:nonzero;"/><path d="M790.198,246.816l31.485,5.286c-4.048,11.544 -10.439,20.334 -19.172,26.369c-8.734,6.034 -19.66,9.052 -32.779,9.052c-20.766,-0 -36.134,-6.785 -46.104,-20.353c-7.871,-10.87 -11.807,-24.589 -11.807,-41.157c-0,-19.79 5.173,-35.29 15.518,-46.497c10.345,-11.207 23.427,-16.811 39.244,-16.811c17.767,0 31.786,5.866 42.056,17.598c10.27,11.732 15.181,29.705 14.731,53.919l-79.164,0c0.225,9.371 2.774,16.661 7.647,21.871c4.872,5.211 10.945,7.816 18.216,7.816c4.948,-0 9.109,-1.35 12.482,-4.049c3.373,-2.698 5.922,-7.046 7.647,-13.044Zm1.799,-31.935c-0.225,-9.146 -2.587,-16.099 -7.085,-20.859c-4.498,-4.76 -9.97,-7.141 -16.417,-7.141c-6.897,0 -12.594,2.512 -17.092,7.534c-4.498,5.023 -6.71,11.845 -6.635,20.466l47.229,0Z" style="fill:#b7b7b7;fill-rule:nonzero;"/></g></g></svg>