<?xml version="1.0" encoding="UTF-8" standalone="no"?><!DOCTYPE svg PUBLIC "-//W3C//DTD SVG 1.1//EN" "http://www.w3.org/Graphics/SVG/1.1/DTD/svg11.dtd"><svg width="100%" height="100%" viewBox="0 0 1024 1024" version="1.1" xmlns="http://www.w3.org/2000/svg" xmlns:xlink="http://www.w3.org/1999/xlink" xml:space="preserve" xmlns:serif="http://www.serif.com/" style="fill-rule:evenodd;clip-rule:evenodd;stroke-linecap:round;stroke-linejoin:round;stroke-miterlimit:1.5;"><g id="PSButtons"><g id="Start"><path d="M807.323,303.953l-590.646,-183.411l0,437.777l590.646,-183.411l-0,-70.955Z" style="fill:#232323;stroke:#000;stroke-width:50px;"/><path d="M216.677,820.772l37.247,-3.621c2.242,12.502 6.79,21.684 13.644,27.547c6.855,5.863 16.102,8.794 27.741,8.794c12.33,0 21.62,-2.608 27.871,-7.824c6.251,-5.216 9.376,-11.316 9.376,-18.3c-0,-4.484 -1.315,-8.299 -3.945,-11.446c-2.629,-3.147 -7.22,-5.884 -13.773,-8.212c-4.484,-1.552 -14.7,-4.311 -30.651,-8.277c-20.52,-5.087 -34.919,-11.338 -43.196,-18.753c-11.64,-10.433 -17.459,-23.15 -17.459,-38.152c-0,-9.657 2.737,-18.688 8.212,-27.094c5.475,-8.407 13.364,-14.809 23.667,-19.206c10.303,-4.397 22.741,-6.596 37.312,-6.596c23.796,0 41.708,5.217 53.736,15.649c12.027,10.433 18.343,24.357 18.947,41.773l-38.282,1.682c-1.638,-9.743 -5.151,-16.748 -10.54,-21.016c-5.389,-4.268 -13.472,-6.402 -24.249,-6.402c-11.123,-0 -19.831,2.285 -26.125,6.854c-4.052,2.932 -6.078,6.855 -6.078,11.769c-0,4.484 1.897,8.321 5.69,11.511c4.828,4.052 16.554,8.277 35.178,12.674c18.623,4.397 32.397,8.945 41.32,13.644c8.924,4.699 15.908,11.122 20.952,19.27c5.043,8.148 7.565,18.214 7.565,30.198c0,10.864 -3.017,21.038 -9.053,30.522c-6.035,9.484 -14.571,16.533 -25.607,21.145c-11.036,4.613 -24.788,6.919 -41.256,6.92c-23.969,-0.001 -42.377,-5.54 -55.223,-16.619c-12.847,-11.079 -20.52,-27.224 -23.021,-48.434Z" style="fill:#b7b7b7;fill-rule:nonzero;"/><path d="M465.765,745.115l-0,28.969l-24.831,0l-0,55.353c-0,11.209 0.237,17.74 0.711,19.593c0.474,1.854 1.552,3.385 3.233,4.592c1.682,1.207 3.729,1.81 6.143,1.81c3.363,0 8.234,-1.164 14.615,-3.492l3.103,28.194c-8.449,3.621 -18.019,5.432 -28.711,5.432c-6.552,-0 -12.458,-1.099 -17.718,-3.298c-5.259,-2.199 -9.117,-5.044 -11.575,-8.536c-2.457,-3.492 -4.16,-8.212 -5.108,-14.161c-0.776,-4.225 -1.164,-12.761 -1.164,-25.607l-0,-59.88l-16.684,0l0,-28.969l16.684,-0l-0,-27.289l36.471,-21.21l-0,48.499l24.831,-0Z" style="fill:#b7b7b7;fill-rule:nonzero;"/><path d="M518.143,787.017l-32.979,-5.949c3.708,-13.278 10.088,-23.107 19.141,-29.487c9.053,-6.38 22.503,-9.57 40.351,-9.57c16.209,-0 28.28,1.918 36.212,5.755c7.932,3.837 13.515,8.708 16.748,14.614c3.233,5.906 4.85,16.748 4.85,32.526l-0.388,42.42c-0,12.071 0.582,20.973 1.746,26.707c1.164,5.733 3.341,11.876 6.531,18.429l-35.954,-0c-0.948,-2.414 -2.112,-5.992 -3.492,-10.734c-0.603,-2.156 -1.034,-3.578 -1.293,-4.268c-6.208,6.035 -12.847,10.562 -19.917,13.579c-7.07,3.018 -14.614,4.527 -22.632,4.527c-14.14,-0 -25.284,-3.837 -33.432,-11.51c-8.147,-7.674 -12.221,-17.374 -12.221,-29.099c-0,-7.76 1.853,-14.679 5.561,-20.758c3.707,-6.078 8.902,-10.734 15.584,-13.967c6.682,-3.234 16.317,-6.057 28.905,-8.471c16.985,-3.19 28.754,-6.165 35.307,-8.924l-0,-3.621c-0,-6.984 -1.725,-11.963 -5.173,-14.938c-3.449,-2.974 -9.959,-4.462 -19.529,-4.462c-6.466,0 -11.51,1.272 -15.131,3.816c-3.622,2.543 -6.553,7.005 -8.795,13.385Zm48.628,29.487c-4.656,1.552 -12.028,3.406 -22.115,5.561c-10.088,2.156 -16.684,4.268 -19.788,6.337c-4.742,3.363 -7.113,7.631 -7.113,12.804c0,5.087 1.897,9.484 5.691,13.192c3.793,3.707 8.622,5.561 14.484,5.561c6.553,-0 12.804,-2.156 18.753,-6.467c4.397,-3.276 7.286,-7.285 8.665,-12.027c0.949,-3.104 1.423,-9.01 1.423,-17.718l-0,-7.243Z" style="fill:#b7b7b7;fill-rule:nonzero;"/><path d="M673.079,882.462l-36.341,-0l-0,-137.347l33.755,-0l-0,19.528c5.776,-9.225 10.971,-15.304 15.584,-18.235c4.613,-2.932 9.85,-4.397 15.713,-4.397c8.277,-0 16.253,2.284 23.926,6.854l-11.251,31.686c-6.122,-3.966 -11.812,-5.949 -17.072,-5.949c-5.087,-0 -9.398,1.401 -12.933,4.203c-3.535,2.802 -6.315,7.867 -8.341,15.196c-2.027,7.329 -3.04,22.676 -3.04,46.041l0,42.42Z" style="fill:#b7b7b7;fill-rule:nonzero;"/><path d="M804.348,745.115l0,28.969l-24.831,0l0,55.353c0,11.209 0.237,17.74 0.711,19.593c0.475,1.854 1.552,3.385 3.234,4.592c1.681,1.207 3.729,1.81 6.143,1.81c3.362,0 8.234,-1.164 14.614,-3.492l3.104,28.194c-8.45,3.621 -18.02,5.432 -28.711,5.432c-6.553,-0 -12.459,-1.099 -17.718,-3.298c-5.26,-2.199 -9.118,-5.044 -11.575,-8.536c-2.457,-3.492 -4.16,-8.212 -5.109,-14.161c-0.776,-4.225 -1.164,-12.761 -1.164,-25.607l0,-59.88l-16.683,0l-0,-28.969l16.683,-0l0,-27.289l36.471,-21.21l0,48.499l24.831,-0Z" style="fill:#b7b7b7;fill-rule:nonzero;"/></g></g></svg>