<?xml version="1.0" encoding="UTF-8" standalone="no"?><!DOCTYPE svg PUBLIC "-//W3C//DTD SVG 1.1//EN" "http://www.w3.org/Graphics/SVG/1.1/DTD/svg11.dtd"><svg width="100%" height="100%" viewBox="0 0 1024 1024" version="1.1" xmlns="http://www.w3.org/2000/svg" xmlns:xlink="http://www.w3.org/1999/xlink" xml:space="preserve" xmlns:serif="http://www.serif.com/" style="fill-rule:evenodd;clip-rule:evenodd;stroke-linecap:round;stroke-linejoin:round;stroke-miterlimit:1.5;"><g id="PSButtons"><g id="Select"><rect x="153.855" y="150.7" width="716.289" height="377.461" style="fill:#232323;stroke:#000;stroke-width:50px;"/><path d="M128.216,820.772l37.247,-3.621c2.242,12.502 6.79,21.684 13.644,27.547c6.855,5.863 16.102,8.794 27.741,8.794c12.33,0 21.62,-2.608 27.871,-7.824c6.25,-5.216 9.376,-11.316 9.376,-18.3c-0,-4.484 -1.315,-8.299 -3.945,-11.446c-2.629,-3.147 -7.22,-5.884 -13.773,-8.212c-4.484,-1.552 -14.701,-4.311 -30.651,-8.277c-20.52,-5.087 -34.919,-11.338 -43.196,-18.753c-11.64,-10.433 -17.459,-23.15 -17.459,-38.152c-0,-9.657 2.737,-18.688 8.212,-27.094c5.475,-8.407 13.364,-14.809 23.667,-19.206c10.303,-4.397 22.741,-6.596 37.312,-6.596c23.796,0 41.708,5.217 53.736,15.649c12.027,10.433 18.343,24.357 18.947,41.773l-38.282,1.682c-1.638,-9.743 -5.151,-16.748 -10.54,-21.016c-5.389,-4.268 -13.472,-6.402 -24.249,-6.402c-11.123,-0 -19.831,2.285 -26.125,6.854c-4.052,2.932 -6.078,6.855 -6.078,11.769c-0,4.484 1.897,8.321 5.69,11.511c4.828,4.052 16.554,8.277 35.178,12.674c18.623,4.397 32.397,8.945 41.32,13.644c8.924,4.699 15.908,11.122 20.952,19.27c5.043,8.148 7.565,18.214 7.565,30.198c0,10.864 -3.017,21.038 -9.053,30.522c-6.035,9.484 -14.571,16.533 -25.607,21.145c-11.036,4.613 -24.788,6.919 -41.256,6.92c-23.969,-0.001 -42.377,-5.54 -55.223,-16.619c-12.847,-11.079 -20.521,-27.224 -23.021,-48.434Z" style="fill:#b7b7b7;fill-rule:nonzero;"/><path d="M393.858,838.749l36.212,6.078c-4.656,13.278 -12.006,23.387 -22.051,30.328c-10.044,6.941 -22.611,10.411 -37.699,10.411c-23.883,-0 -41.558,-7.803 -53.025,-23.409c-9.053,-12.502 -13.579,-28.28 -13.579,-47.334c-0,-22.762 5.949,-40.588 17.847,-53.478c11.898,-12.889 26.944,-19.334 45.136,-19.334c20.434,-0 36.557,6.746 48.369,20.24c11.812,13.493 17.459,34.164 16.942,62.013l-91.048,-0c0.259,10.777 3.19,19.162 8.795,25.154c5.604,5.993 12.588,8.989 20.951,8.989c5.691,-0 10.476,-1.552 14.356,-4.656c3.879,-3.104 6.811,-8.105 8.794,-15.002Zm2.069,-36.73c-0.258,-10.518 -2.974,-18.515 -8.148,-23.99c-5.173,-5.475 -11.467,-8.213 -18.882,-8.213c-7.932,0 -14.484,2.889 -19.658,8.665c-5.173,5.777 -7.716,13.623 -7.63,23.538l54.318,0Z" style="fill:#b7b7b7;fill-rule:nonzero;"/><rect x="461.626" y="692.866" width="36.341" height="189.596" style="fill:#b7b7b7;fill-rule:nonzero;"/><path d="M614.752,838.749l36.212,6.078c-4.656,13.278 -12.006,23.387 -22.051,30.328c-10.044,6.941 -22.611,10.411 -37.699,10.411c-23.883,-0 -41.558,-7.803 -53.025,-23.409c-9.053,-12.502 -13.579,-28.28 -13.579,-47.334c-0,-22.762 5.949,-40.588 17.847,-53.478c11.898,-12.889 26.944,-19.334 45.136,-19.334c20.434,-0 36.557,6.746 48.369,20.24c11.812,13.493 17.459,34.164 16.942,62.013l-91.048,-0c0.259,10.777 3.19,19.162 8.795,25.154c5.604,5.993 12.588,8.989 20.951,8.989c5.69,-0 10.476,-1.552 14.356,-4.656c3.879,-3.104 6.811,-8.105 8.794,-15.002Zm2.069,-36.73c-0.258,-10.518 -2.974,-18.515 -8.148,-23.99c-5.173,-5.475 -11.467,-8.213 -18.882,-8.213c-7.932,0 -14.484,2.889 -19.658,8.665c-5.173,5.777 -7.716,13.623 -7.63,23.538l54.318,0Z" style="fill:#b7b7b7;fill-rule:nonzero;"/><path d="M802.279,785.724l-35.824,6.466c-1.207,-7.156 -3.945,-12.545 -8.213,-16.166c-4.267,-3.621 -9.807,-5.432 -16.618,-5.432c-9.053,0 -16.274,3.126 -21.663,9.377c-5.389,6.251 -8.083,16.705 -8.083,31.362c0,16.295 2.737,27.806 8.212,34.531c5.475,6.725 12.826,10.087 22.051,10.087c6.898,0 12.545,-1.961 16.942,-5.884c4.397,-3.923 7.501,-10.67 9.312,-20.24l35.695,6.078c-3.708,16.382 -10.821,28.755 -21.34,37.118c-10.518,8.363 -24.615,12.545 -42.29,12.545c-20.089,-0 -36.105,-6.337 -48.046,-19.012c-11.941,-12.674 -17.912,-30.219 -17.912,-52.636c-0,-22.676 5.992,-40.33 17.977,-52.961c11.984,-12.631 28.193,-18.946 48.627,-18.946c16.727,-0 30.026,3.599 39.898,10.799c9.872,7.199 16.964,18.17 21.275,32.914Z" style="fill:#b7b7b7;fill-rule:nonzero;"/><path d="M892.809,745.115l0,28.969l-24.831,0l0,55.353c0,11.209 0.237,17.74 0.711,19.593c0.475,1.854 1.552,3.385 3.234,4.592c1.681,1.207 3.729,1.81 6.143,1.81c3.362,0 8.234,-1.164 14.614,-3.492l3.104,28.194c-8.45,3.621 -18.02,5.432 -28.711,5.432c-6.553,-0 -12.459,-1.099 -17.718,-3.298c-5.26,-2.199 -9.118,-5.044 -11.575,-8.536c-2.457,-3.492 -4.16,-8.212 -5.109,-14.161c-0.776,-4.225 -1.164,-12.761 -1.164,-25.607l0,-59.88l-16.683,0l-0,-28.969l16.683,-0l0,-27.289l36.471,-21.21l0,48.499l24.831,-0Z" style="fill:#b7b7b7;fill-rule:nonzero;"/></g></g></svg>