<?xml version="1.0" encoding="UTF-8" standalone="no"?><!DOCTYPE svg PUBLIC "-//W3C//DTD SVG 1.1//EN" "http://www.w3.org/Graphics/SVG/1.1/DTD/svg11.dtd"><svg width="100%" height="100%" viewBox="0 0 1024 1024" version="1.1" xmlns="http://www.w3.org/2000/svg" xmlns:xlink="http://www.w3.org/1999/xlink" xml:space="preserve" xmlns:serif="http://www.serif.com/" style="fill-rule:evenodd;clip-rule:evenodd;stroke-linecap:round;stroke-linejoin:round;stroke-miterlimit:1.5;"><g id="PSButtons"><path id="Touchpad" d="M965.38,202.175l-906.76,-0l-0,464.738c-0,85.498 69.414,154.912 154.912,154.912l596.936,0c85.498,0 154.912,-69.414 154.912,-154.912l0,-464.738Z" style="fill:#232323;"/><clipPath id="_clip1"><path id="Touchpad1" serif:id="Touchpad" d="M965.38,202.175l-906.76,-0l-0,464.738c-0,85.498 69.414,154.912 154.912,154.912l596.936,0c85.498,0 154.912,-69.414 154.912,-154.912l0,-464.738Z"/></clipPath><g clip-path="url(#_clip1)"><g><circle cx="152" cy="291.384" r="36" style="fill:#2c2c2c;"/><circle cx="296" cy="291.384" r="36" style="fill:#2c2c2c;"/><circle cx="440" cy="291.384" r="36" style="fill:#2c2c2c;"/><circle cx="584" cy="291.384" r="36" style="fill:#2c2c2c;"/><circle cx="728" cy="291.384" r="36" style="fill:#2c2c2c;"/><circle cx="872" cy="291.384" r="36" style="fill:#2c2c2c;"/><circle cx="152" cy="425.383" r="36" style="fill:#2c2c2c;"/><circle cx="296" cy="425.383" r="36" style="fill:#2c2c2c;"/><circle cx="440" cy="425.383" r="36" style="fill:#2c2c2c;"/><circle cx="584" cy="425.383" r="36" style="fill:#2c2c2c;"/><circle cx="728" cy="425.383" r="36" style="fill:#2c2c2c;"/><circle cx="872" cy="425.383" r="36" style="fill:#2c2c2c;"/><circle cx="152" cy="559.383" r="36" style="fill:#2c2c2c;"/><circle cx="296" cy="559.383" r="36" style="fill:#2c2c2c;"/><circle cx="440" cy="559.383" r="36" style="fill:#2c2c2c;"/><circle cx="584" cy="559.383" r="36" style="fill:#2c2c2c;"/><circle cx="728" cy="559.383" r="36" style="fill:#2c2c2c;"/><circle cx="872" cy="559.383" r="36" style="fill:#2c2c2c;"/><circle cx="152" cy="693.383" r="36" style="fill:#2c2c2c;"/><circle cx="296" cy="693.383" r="36" style="fill:#2c2c2c;"/><circle cx="440" cy="693.383" r="36" style="fill:#2c2c2c;"/><circle cx="584" cy="693.383" r="36" style="fill:#2c2c2c;"/><circle cx="728" cy="693.383" r="36" style="fill:#2c2c2c;"/><circle cx="872" cy="693.383" r="36" style="fill:#2c2c2c;"/></g></g><path id="Touchpad2" serif:id="Touchpad" d="M965.38,202.175l-906.76,-0l-0,464.738c-0,85.498 69.414,154.912 154.912,154.912l596.936,0c85.498,0 154.912,-69.414 154.912,-154.912l0,-464.738Z" style="fill:none;stroke:#000;stroke-width:50px;"/></g></svg>