<?xml version="1.0" encoding="UTF-8" standalone="no"?><!DOCTYPE svg PUBLIC "-//W3C//DTD SVG 1.1//EN" "http://www.w3.org/Graphics/SVG/1.1/DTD/svg11.dtd"><svg width="100%" height="100%" viewBox="0 0 1024 1024" version="1.1" xmlns="http://www.w3.org/2000/svg" xmlns:xlink="http://www.w3.org/1999/xlink" xml:space="preserve" xmlns:serif="http://www.serif.com/" style="fill-rule:evenodd;clip-rule:evenodd;stroke-linecap:round;stroke-linejoin:round;stroke-miterlimit:1.5;"><g id="SteamButtons"><path id="Trigger" d="M878,146.006l-732,-0l0,512.392c0,121.198 98.398,219.596 219.596,219.596l512.404,0l0,-731.988Z" style="fill:#232323;"/><clipPath id="_clip1"><path id="Trigger1" serif:id="Trigger" d="M878,146.006l-732,-0l0,512.392c0,121.198 98.398,219.596 219.596,219.596l512.404,0l0,-731.988Z"/></clipPath><g clip-path="url(#_clip1)"><path d="M333.352,657.703l-0,-287.843l49.652,0l0,238.946l123.46,-0l0,48.897l-173.112,0Z" style="fill:#b7b7b7;fill-rule:nonzero;"/><path d="M690.648,606.034l0,51.669l-165.228,0c1.789,-19.532 7.157,-38.042 16.103,-55.529c8.947,-17.487 26.616,-40.682 53.008,-69.585c21.247,-23.361 34.275,-39.198 39.084,-47.512c6.486,-11.483 9.729,-22.833 9.729,-34.051c0,-12.406 -2.823,-21.941 -8.471,-28.606c-5.647,-6.665 -13.447,-9.997 -23.4,-9.997c-9.841,-0 -17.669,3.497 -23.485,10.492c-5.815,6.995 -9.17,18.609 -10.064,34.842l-46.969,-5.543c2.796,-30.619 11.575,-52.593 26.336,-65.923c14.762,-13.33 33.214,-19.994 55.356,-19.994c24.267,-0 43.334,7.72 57.201,23.162c13.867,15.441 20.8,34.644 20.8,57.608c0,13.066 -1.985,25.505 -5.955,37.317c-3.97,11.812 -10.26,24.185 -18.871,37.118c-5.703,8.579 -15.992,20.919 -30.865,37.02c-14.873,16.101 -24.295,26.792 -28.265,32.071c-3.97,5.279 -7.185,10.426 -9.645,15.441l93.601,0Z" style="fill:#b7b7b7;fill-rule:nonzero;"/></g><path id="Trigger2" serif:id="Trigger" d="M878,146.006l-732,-0l0,512.392c0,121.198 98.398,219.596 219.596,219.596l512.404,0l0,-731.988Z" style="fill:none;stroke:#000;stroke-width:50px;"/></g></svg>