<?xml version="1.0" encoding="UTF-8" standalone="no"?><!DOCTYPE svg PUBLIC "-//W3C//DTD SVG 1.1//EN" "http://www.w3.org/Graphics/SVG/1.1/DTD/svg11.dtd"><svg width="100%" height="100%" viewBox="0 0 1024 1024" version="1.1" xmlns="http://www.w3.org/2000/svg" xmlns:xlink="http://www.w3.org/1999/xlink" xml:space="preserve" xmlns:serif="http://www.serif.com/" style="fill-rule:evenodd;clip-rule:evenodd;stroke-linecap:round;stroke-linejoin:round;stroke-miterlimit:1.5;"><g id="SteamButtons"><path id="Trigger" d="M878,146.006l-512.404,-0c-121.198,-0 -219.596,98.398 -219.596,219.596l0,512.392l732,0l0,-731.988Z" style="fill:#232323;"/><clipPath id="_clip1"><path id="Trigger1" serif:id="Trigger" d="M878,146.006l-512.404,-0c-121.198,-0 -219.596,98.398 -219.596,219.596l0,512.392l732,0l0,-731.988Z"/></clipPath><g clip-path="url(#_clip1)"><path d="M352.642,657.703l0,-287.843l49.653,0l-0,238.946l123.46,-0l0,48.897l-173.113,0Z" style="fill:#b7b7b7;fill-rule:nonzero;"/><path d="M671.358,657.703l-47.137,0l0,-209.646c-17.221,19.005 -37.519,33.06 -60.891,42.167l-0,-50.482c12.301,-4.751 25.665,-13.758 40.091,-27.022c14.426,-13.264 24.323,-28.738 29.691,-46.423l38.246,-0l-0,291.406Z" style="fill:#b7b7b7;fill-rule:nonzero;"/></g><path id="Trigger2" serif:id="Trigger" d="M878,146.006l-512.404,-0c-121.198,-0 -219.596,98.398 -219.596,219.596l0,512.392l732,0l0,-731.988Z" style="fill:none;stroke:#000;stroke-width:50px;"/></g></svg>