<?xml version="1.0" encoding="UTF-8" standalone="no"?><!DOCTYPE svg PUBLIC "-//W3C//DTD SVG 1.1//EN" "http://www.w3.org/Graphics/SVG/1.1/DTD/svg11.dtd"><svg width="100%" height="100%" viewBox="0 0 1024 1024" version="1.1" xmlns="http://www.w3.org/2000/svg" xmlns:xlink="http://www.w3.org/1999/xlink" xml:space="preserve" xmlns:serif="http://www.serif.com/" style="fill-rule:evenodd;clip-rule:evenodd;stroke-linecap:round;stroke-linejoin:round;stroke-miterlimit:1.5;"><g id="SteamButtons"><rect id="Trigger" x="146" y="146.006" width="732" height="731.988" style="fill:#232323;"/><g id="Trigger1" serif:id="Trigger"><path d="M332.094,657.703l-0,-287.843l49.652,0l0,238.946l123.46,-0l0,48.897l-173.112,0Z" style="fill:#b7b7b7;fill-rule:nonzero;"/><path d="M528.523,580.694l45.627,-6.533c1.453,13.726 5.367,24.218 11.742,31.477c6.374,7.259 14.09,10.888 23.148,10.888c9.73,0 17.921,-4.355 24.575,-13.065c6.654,-8.711 9.981,-20.457 9.981,-35.238c-0,-13.99 -3.187,-25.076 -9.562,-33.259c-6.374,-8.182 -14.146,-12.274 -23.316,-12.274c-6.039,0 -13.252,1.386 -21.639,4.157l5.2,-45.334c12.749,0.396 22.478,-2.87 29.188,-9.799c6.709,-6.929 10.064,-16.134 10.064,-27.617c0,-9.766 -2.46,-17.553 -7.381,-23.36c-4.92,-5.807 -11.462,-8.71 -19.626,-8.71c-8.051,-0 -14.929,3.299 -20.632,9.898c-5.704,6.599 -9.17,16.233 -10.401,28.903l-43.445,-8.71c3.019,-17.553 7.576,-31.576 13.671,-42.068c6.094,-10.492 14.594,-18.741 25.497,-24.746c10.903,-6.005 23.121,-9.007 36.652,-9.007c23.149,-0 41.713,8.71 55.692,26.131c11.518,14.254 17.277,30.355 17.277,48.304c0,25.472 -11.798,45.796 -35.394,60.974c14.091,3.563 25.358,11.548 33.801,23.954c8.443,12.406 12.664,27.385 12.664,44.938c0,25.472 -7.884,47.182 -23.652,65.131c-15.768,17.949 -35.394,26.924 -58.878,26.924c-22.254,-0 -40.706,-7.556 -55.356,-22.668c-14.65,-15.111 -23.149,-34.875 -25.497,-59.291Z" style="fill:#b7b7b7;fill-rule:nonzero;"/></g><rect id="Trigger2" serif:id="Trigger" x="146" y="146.006" width="732" height="731.988" style="fill:none;stroke:#000;stroke-width:50px;"/></g></svg>