<?xml version="1.0" encoding="UTF-8" standalone="no"?><!DOCTYPE svg PUBLIC "-//W3C//DTD SVG 1.1//EN" "http://www.w3.org/Graphics/SVG/1.1/DTD/svg11.dtd"><svg width="100%" height="100%" viewBox="0 0 1024 1024" version="1.1" xmlns="http://www.w3.org/2000/svg" xmlns:xlink="http://www.w3.org/1999/xlink" xml:space="preserve" xmlns:serif="http://www.serif.com/" style="fill-rule:evenodd;clip-rule:evenodd;stroke-linecap:round;stroke-linejoin:round;stroke-miterlimit:1.5;"><g id="SteamButtons"><circle id="ControllerHome" cx="512" cy="512" r="424.381" style="fill:#232323;"/><clipPath id="_clip1"><circle id="ControllerHome1" serif:id="ControllerHome" cx="512" cy="512" r="424.381"/></clipPath><g clip-path="url(#_clip1)"><path d="M155.291,649.407c-16.459,-42.65 -25.484,-88.983 -25.484,-137.407c-0,-4.97 0.095,-9.918 0.284,-14.843l276.327,116.213c33.215,13.969 48.84,52.277 34.871,85.492c-13.969,33.214 -52.277,48.84 -85.491,34.871l-200.507,-84.326Z" style="fill:#fff;"/><path d="M500.338,669.288c0.03,1.086 0.045,2.175 0.045,3.268c-0,64.335 -52.232,116.566 -116.567,116.566c-64.334,0 -116.566,-52.231 -116.566,-116.566c0,-64.335 52.232,-116.566 116.566,-116.566c2.299,-0 4.583,0.066 6.849,0.198l98.295,-144.341c-0.026,-1.18 -0.039,-2.363 -0.039,-3.548c0,-87.173 70.774,-157.947 157.947,-157.947c87.173,0 157.946,70.774 157.946,157.947c0,87.173 -70.773,157.946 -157.946,157.946c-1.385,0 -2.765,-0.018 -4.142,-0.053l-142.388,103.096Zm-116.522,-84.272c-48.314,0 -87.54,39.225 -87.54,87.54c0,48.315 39.226,87.54 87.54,87.54c48.315,0 87.541,-39.225 87.541,-87.54c-0,-48.315 -39.226,-87.54 -87.541,-87.54Zm263.052,-280.419c-57.235,0 -103.702,46.467 -103.702,103.702c0,57.234 46.467,103.701 103.702,103.701c57.234,-0 103.701,-46.467 103.701,-103.701c0,-57.235 -46.467,-103.702 -103.701,-103.702Zm-0,25.734c43.031,0 77.967,34.936 77.967,77.968c0,43.031 -34.936,77.967 -77.967,77.967c-43.032,0 -77.968,-34.936 -77.968,-77.967c0,-43.032 34.936,-77.968 77.968,-77.968Z" style="fill:#fff;"/></g><circle id="ControllerHome2" serif:id="ControllerHome" cx="512" cy="512" r="424.381" style="fill:none;stroke:#000;stroke-width:50px;"/></g></svg>