<?xml version="1.0" encoding="UTF-8" standalone="no"?><!DOCTYPE svg PUBLIC "-//W3C//DTD SVG 1.1//EN" "http://www.w3.org/Graphics/SVG/1.1/DTD/svg11.dtd"><svg width="100%" height="100%" viewBox="0 0 1024 1024" version="1.1" xmlns="http://www.w3.org/2000/svg" xmlns:xlink="http://www.w3.org/1999/xlink" xml:space="preserve" xmlns:serif="http://www.serif.com/" style="fill-rule:evenodd;clip-rule:evenodd;stroke-linecap:round;stroke-linejoin:round;stroke-miterlimit:1.5;"><g id="SteamButtons"><path id="ControllerBack" d="M981.087,512c-0,-144.034 -116.937,-260.971 -260.971,-260.971l-416.232,0c-144.034,0 -260.971,116.937 -260.971,260.971c0,144.034 116.937,260.971 260.971,260.971l416.232,-0c144.034,-0 260.971,-116.937 260.971,-260.971Z" style="fill:#232323;"/><clipPath id="_clip1"><path id="ControllerBack1" serif:id="ControllerBack" d="M981.087,512c-0,-144.034 -116.937,-260.971 -260.971,-260.971l-416.232,0c-144.034,0 -260.971,116.937 -260.971,260.971c0,144.034 116.937,260.971 260.971,260.971l416.232,-0c144.034,-0 260.971,-116.937 260.971,-260.971Z"/></clipPath><g clip-path="url(#_clip1)"><path d="M255.91,512l384.135,-179.383l0,358.766l-384.135,-179.383Z" style="fill:#b7b7b7;stroke:#b7b7b7;stroke-width:50px;"/></g><path id="ControllerBack2" serif:id="ControllerBack" d="M981.087,512c-0,-144.034 -116.937,-260.971 -260.971,-260.971l-416.232,0c-144.034,0 -260.971,116.937 -260.971,260.971c0,144.034 116.937,260.971 260.971,260.971l416.232,-0c144.034,-0 260.971,-116.937 260.971,-260.971Z" style="fill:none;stroke:#000;stroke-width:50px;"/></g></svg>