<?xml version="1.0" encoding="UTF-8" standalone="no"?><!DOCTYPE svg PUBLIC "-//W3C//DTD SVG 1.1//EN" "http://www.w3.org/Graphics/SVG/1.1/DTD/svg11.dtd"><svg width="100%" height="100%" viewBox="0 0 1024 1024" version="1.1" xmlns="http://www.w3.org/2000/svg" xmlns:xlink="http://www.w3.org/1999/xlink" xml:space="preserve" xmlns:serif="http://www.serif.com/" style="fill-rule:evenodd;clip-rule:evenodd;stroke-linecap:round;stroke-linejoin:round;stroke-miterlimit:1.5;"><g id="SteamButtons"><path id="ellipsis" d="M990.853,512c-0,-109 -88.495,-197.494 -197.495,-197.494l-562.716,-0c-109,-0 -197.495,88.494 -197.495,197.494c0,109 88.495,197.494 197.495,197.494l562.716,0c109,0 197.495,-88.494 197.495,-197.494Z" style="fill:#232323;"/><clipPath id="_clip1"><path id="ellipsis1" serif:id="ellipsis" d="M990.853,512c-0,-109 -88.495,-197.494 -197.495,-197.494l-562.716,-0c-109,-0 -197.495,88.494 -197.495,197.494c0,109 88.495,197.494 197.495,197.494l562.716,0c109,0 197.495,-88.494 197.495,-197.494Z"/></clipPath><g clip-path="url(#_clip1)"><circle cx="257.636" cy="512" r="71.037" style="fill:#b7b7b7;"/><circle cx="766.364" cy="512" r="71.037" style="fill:#b7b7b7;"/><circle cx="512" cy="512" r="71.037" style="fill:#b7b7b7;"/></g><path id="ellipsis2" serif:id="ellipsis" d="M990.853,512c-0,-109 -88.495,-197.494 -197.495,-197.494l-562.716,-0c-109,-0 -197.495,88.494 -197.495,197.494c0,109 88.495,197.494 197.495,197.494l562.716,0c109,0 197.495,-88.494 197.495,-197.494Z" style="fill:none;stroke:#000;stroke-width:50px;"/></g></svg>