<?xml version="1.0" encoding="UTF-8" standalone="no"?><!DOCTYPE svg PUBLIC "-//W3C//DTD SVG 1.1//EN" "http://www.w3.org/Graphics/SVG/1.1/DTD/svg11.dtd"><svg width="100%" height="100%" viewBox="0 0 1024 1024" version="1.1" xmlns="http://www.w3.org/2000/svg" xmlns:xlink="http://www.w3.org/1999/xlink" xml:space="preserve" xmlns:serif="http://www.serif.com/" style="fill-rule:evenodd;clip-rule:evenodd;stroke-linecap:round;stroke-linejoin:round;stroke-miterlimit:1.5;"><g id="SteamButtons"><rect id="Trigger" x="146" y="146.006" width="732" height="731.988" style="fill:#232323;"/><g id="Trigger1" serif:id="Trigger"><path d="M308.945,657.703l-0,-290.219l104.505,0c26.28,0 45.375,2.607 57.285,7.82c11.91,5.213 21.443,14.485 28.6,27.814c7.157,13.33 10.736,28.574 10.736,45.731c-0,21.776 -5.424,39.758 -16.271,53.946c-10.848,14.187 -27.063,23.129 -48.646,26.824c10.735,7.391 19.598,15.507 26.587,24.35c6.99,8.842 16.411,24.548 28.265,47.116l30.027,56.618l-59.382,0l-35.898,-63.151c-12.748,-22.568 -21.471,-36.789 -26.168,-42.662c-4.697,-5.873 -9.673,-9.898 -14.929,-12.076c-5.256,-2.177 -13.587,-3.266 -24.994,-3.266l-10.065,-0l0,121.155l-49.652,0Zm49.652,-167.479l36.736,-0c23.82,-0 38.694,-1.188 44.621,-3.564c5.927,-2.375 10.567,-6.467 13.922,-12.274c3.355,-5.807 5.033,-13.065 5.033,-21.776c-0,-9.766 -2.209,-17.652 -6.626,-23.657c-4.417,-6.005 -10.652,-9.799 -18.704,-11.383c-4.026,-0.66 -16.103,-0.99 -36.233,-0.99l-38.749,0l0,73.644Z" style="fill:#b7b7b7;fill-rule:nonzero;"/><path d="M638.899,657.703l0,-58.4l-100.647,0l0,-48.7l106.686,-184.306l39.588,-0l-0,184.109l30.529,-0l0,48.897l-30.529,0l-0,58.4l-45.627,0Zm0,-107.297l0,-99.182l-56.53,99.182l56.53,-0Z" style="fill:#b7b7b7;fill-rule:nonzero;"/></g><rect id="Trigger2" serif:id="Trigger" x="146" y="146.006" width="732" height="731.988" style="fill:none;stroke:#000;stroke-width:50px;"/></g></svg>