<?xml version="1.0" encoding="UTF-8" standalone="no"?><!DOCTYPE svg PUBLIC "-//W3C//DTD SVG 1.1//EN" "http://www.w3.org/Graphics/SVG/1.1/DTD/svg11.dtd"><svg width="100%" height="100%" viewBox="0 0 1024 1024" version="1.1" xmlns="http://www.w3.org/2000/svg" xmlns:xlink="http://www.w3.org/1999/xlink" xml:space="preserve" xmlns:serif="http://www.serif.com/" style="fill-rule:evenodd;clip-rule:evenodd;stroke-linecap:round;stroke-linejoin:round;stroke-miterlimit:1.5;"><g id="SteamButtons"><path id="Back" d="M962.439,437.436c0,-96.024 -77.959,-173.983 -173.982,-173.983l-552.914,0c-96.023,0 -173.982,77.959 -173.982,173.983l-0,149.128c-0,96.024 77.959,173.983 173.982,173.983l552.914,-0c96.023,-0 173.982,-77.959 173.982,-173.983l0,-149.128Z" style="fill:#232323;"/><clipPath id="_clip1"><path id="Back1" serif:id="Back" d="M962.439,437.436c0,-96.024 -77.959,-173.983 -173.982,-173.983l-552.914,0c-96.023,0 -173.982,77.959 -173.982,173.983l-0,149.128c-0,96.024 77.959,173.983 173.982,173.983l552.914,-0c96.023,-0 173.982,-77.959 173.982,-173.983l0,-149.128Z"/></clipPath><g clip-path="url(#_clip1)"><g><path d="M352.945,592.214l-106.98,-0l0,-237.847l365.029,-0l0,47.899" style="fill:none;stroke:#b7b7b7;stroke-width:50px;"/><rect x="428.48" y="473.29" width="365.029" height="196.343" style="fill:#b7b7b7;stroke:#b7b7b7;stroke-width:50px;"/></g></g><path id="Back2" serif:id="Back" d="M962.439,437.436c0,-96.024 -77.959,-173.983 -173.982,-173.983l-552.914,0c-96.023,0 -173.982,77.959 -173.982,173.983l-0,149.128c-0,96.024 77.959,173.983 173.982,173.983l552.914,-0c96.023,-0 173.982,-77.959 173.982,-173.983l0,-149.128Z" style="fill:none;stroke:#000;stroke-width:50px;"/></g></svg>