<?xml version="1.0" encoding="UTF-8" standalone="no"?><!DOCTYPE svg PUBLIC "-//W3C//DTD SVG 1.1//EN" "http://www.w3.org/Graphics/SVG/1.1/DTD/svg11.dtd"><svg width="100%" height="100%" viewBox="0 0 1024 1024" version="1.1" xmlns="http://www.w3.org/2000/svg" xmlns:xlink="http://www.w3.org/1999/xlink" xml:space="preserve" xmlns:serif="http://www.serif.com/" style="fill-rule:evenodd;clip-rule:evenodd;stroke-linecap:round;stroke-linejoin:round;stroke-miterlimit:1.5;"><g id="SteamButtons"><path id="Home" d="M990.853,512c-0,-109 -88.495,-197.494 -197.495,-197.494l-562.716,-0c-109,-0 -197.495,88.494 -197.495,197.494c0,109 88.495,197.494 197.495,197.494l562.716,0c109,0 197.495,-88.494 197.495,-197.494Z" style="fill:#232323;"/><clipPath id="_clip1"><path id="Home1" serif:id="Home" d="M990.853,512c-0,-109 -88.495,-197.494 -197.495,-197.494l-562.716,-0c-109,-0 -197.495,88.494 -197.495,197.494c0,109 88.495,197.494 197.495,197.494l562.716,0c109,0 197.495,-88.494 197.495,-197.494Z"/></clipPath><g clip-path="url(#_clip1)"><path d="M186.599,535.929l26.972,-2.623c1.624,9.054 4.917,15.703 9.881,19.949c4.964,4.245 11.66,6.368 20.089,6.368c8.928,0 15.656,-1.889 20.182,-5.666c4.527,-3.777 6.79,-8.195 6.79,-13.252c0,-3.247 -0.952,-6.01 -2.856,-8.288c-1.905,-2.279 -5.229,-4.262 -9.974,-5.947c-3.247,-1.124 -10.646,-3.122 -22.196,-5.994c-14.86,-3.684 -25.287,-8.211 -31.281,-13.58c-8.429,-7.555 -12.643,-16.764 -12.643,-27.628c-0,-6.993 1.982,-13.533 5.947,-19.621c3.965,-6.087 9.677,-10.723 17.139,-13.907c7.461,-3.184 16.467,-4.777 27.019,-4.777c17.232,0 30.203,3.778 38.913,11.333c8.71,7.554 13.283,17.638 13.72,30.25l-27.721,1.217c-1.187,-7.055 -3.731,-12.128 -7.633,-15.218c-3.902,-3.091 -9.756,-4.636 -17.56,-4.636c-8.055,-0 -14.361,1.654 -18.918,4.963c-2.935,2.123 -4.402,4.964 -4.402,8.523c-0,3.247 1.373,6.025 4.121,8.335c3.496,2.935 11.987,5.994 25.474,9.178c13.486,3.184 23.46,6.478 29.922,9.881c6.462,3.402 11.519,8.054 15.172,13.954c3.652,5.9 5.479,13.19 5.479,21.868c-0,7.867 -2.186,15.235 -6.556,22.103c-4.371,6.868 -10.552,11.972 -18.544,15.312c-7.991,3.34 -17.95,5.011 -29.875,5.011c-17.357,-0 -30.687,-4.012 -39.99,-12.035c-9.303,-8.023 -14.86,-19.714 -16.671,-35.073Z" style="fill:#b7b7b7;fill-rule:nonzero;"/><path d="M352.46,580.602l0,-114.071l-40.739,-0l-0,-23.226l109.107,-0l-0,23.226l-40.646,-0l-0,114.071l-27.722,-0Z" style="fill:#b7b7b7;fill-rule:nonzero;"/><path d="M438.716,580.602l-0,-137.297l101.802,-0l-0,23.226l-74.081,-0l0,30.438l68.93,-0l-0,23.132l-68.93,0l0,37.368l76.703,0l-0,23.133l-104.424,-0Z" style="fill:#b7b7b7;fill-rule:nonzero;"/><path d="M690.458,580.602l-30.157,-0l-11.988,-31.187l-54.881,-0l-11.332,31.187l-29.407,-0l53.476,-137.297l29.314,-0l54.975,137.297Zm-51.042,-54.32l-18.918,-50.948l-18.543,50.948l37.461,0Z" style="fill:#b7b7b7;fill-rule:nonzero;"/><path d="M704.787,580.602l-0,-137.297l41.489,-0l24.911,93.654l24.631,-93.654l41.583,-0l-0,137.297l-25.755,-0l0,-108.077l-27.253,108.077l-26.692,-0l-27.159,-108.077l-0,108.077l-25.755,-0Z" style="fill:#b7b7b7;fill-rule:nonzero;"/></g><path id="Home2" serif:id="Home" d="M990.853,512c-0,-109 -88.495,-197.494 -197.495,-197.494l-562.716,-0c-109,-0 -197.495,88.494 -197.495,197.494c0,109 88.495,197.494 197.495,197.494l562.716,0c109,0 197.495,-88.494 197.495,-197.494Z" style="fill:none;stroke:#000;stroke-width:50px;"/></g></svg>