<?xml version="1.0" encoding="UTF-8" standalone="no"?><!DOCTYPE svg PUBLIC "-//W3C//DTD SVG 1.1//EN" "http://www.w3.org/Graphics/SVG/1.1/DTD/svg11.dtd"><svg width="100%" height="100%" viewBox="0 0 1024 1024" version="1.1" xmlns="http://www.w3.org/2000/svg" xmlns:xlink="http://www.w3.org/1999/xlink" xml:space="preserve" xmlns:serif="http://www.serif.com/" style="fill-rule:evenodd;clip-rule:evenodd;stroke-linecap:round;stroke-linejoin:round;stroke-miterlimit:1.5;"><g id="SwitchButtons"><path id="SR" d="M953.684,468.586c-0,-95.842 -77.813,-173.654 -173.655,-173.654l-536.058,-0c-95.842,-0 -173.655,77.812 -173.655,173.654l0,86.828c0,95.842 77.813,173.654 173.655,173.654l536.058,0c95.842,0 173.655,-77.812 173.655,-173.654l-0,-86.828Z" style="fill:#232323;"/><clipPath id="_clip1"><path id="SR1" serif:id="SR" d="M953.684,468.586c-0,-95.842 -77.813,-173.654 -173.655,-173.654l-536.058,-0c-95.842,-0 -173.655,77.812 -173.655,173.654l0,86.828c0,95.842 77.813,173.654 173.655,173.654l536.058,0c95.842,0 173.655,-77.812 173.655,-173.654l-0,-86.828Z"/></clipPath><g clip-path="url(#_clip1)"><path d="M280.512,562.679l48.31,-5.543c2.908,19.137 8.807,33.193 17.698,42.167c8.89,8.975 20.884,13.462 35.981,13.462c15.992,-0 28.041,-3.992 36.149,-11.977c8.108,-7.985 12.161,-17.322 12.161,-28.012c0,-6.863 -1.705,-12.703 -5.116,-17.52c-3.411,-4.817 -9.366,-9.008 -17.865,-12.571c-5.815,-2.376 -19.067,-6.599 -39.755,-12.67c-26.616,-7.787 -45.291,-17.355 -56.027,-28.705c-15.097,-15.969 -22.646,-35.436 -22.646,-58.4c0,-14.782 3.551,-28.606 10.652,-41.474c7.101,-12.868 17.334,-22.667 30.698,-29.398c13.363,-6.731 29.495,-10.097 48.394,-10.097c30.865,0 54.098,7.985 69.698,23.954c15.6,15.97 23.792,37.284 24.575,63.944l-49.653,2.573c-2.125,-14.913 -6.682,-25.637 -13.671,-32.169c-6.989,-6.533 -17.474,-9.8 -31.452,-9.8c-14.426,0 -25.721,3.498 -33.885,10.492c-5.256,4.488 -7.884,10.493 -7.884,18.015c0,6.863 2.461,12.736 7.381,17.619c6.263,6.203 21.471,12.67 45.627,19.401c24.155,6.731 42.02,13.693 53.594,20.886c11.575,7.192 20.633,17.025 27.175,29.497c6.542,12.471 9.813,27.88 9.813,46.225c-0,16.629 -3.914,32.202 -11.742,46.72c-7.828,14.517 -18.899,25.307 -33.214,32.367c-14.314,7.061 -32.151,10.592 -53.51,10.592c-31.089,-0 -54.965,-8.48 -71.627,-25.439c-16.663,-16.959 -26.616,-41.672 -29.859,-74.139Z" style="fill:#b7b7b7;fill-rule:nonzero;"/><path d="M522.4,657.109l0,-290.218l104.505,-0c26.28,-0 45.375,2.606 57.285,7.819c11.91,5.213 21.444,14.485 28.601,27.814c7.157,13.33 10.735,28.574 10.735,45.731c0,21.776 -5.423,39.758 -16.271,53.946c-10.847,14.187 -27.063,23.129 -48.646,26.824c10.736,7.391 19.598,15.508 26.588,24.35c6.989,8.843 16.411,24.548 28.265,47.116l30.026,56.618l-59.382,0l-35.897,-63.151c-12.749,-22.568 -21.471,-36.789 -26.168,-42.662c-4.697,-5.873 -9.674,-9.898 -14.93,-12.076c-5.256,-2.177 -13.587,-3.266 -24.994,-3.266l-10.064,-0l-0,121.155l-49.653,0Zm49.653,-167.479l36.736,-0c23.82,-0 38.693,-1.188 44.62,-3.564c5.927,-2.375 10.568,-6.467 13.923,-12.274c3.355,-5.807 5.032,-13.065 5.032,-21.776c0,-9.766 -2.208,-17.652 -6.626,-23.657c-4.417,-6.005 -10.652,-9.799 -18.703,-11.383c-4.026,-0.66 -16.104,-0.99 -36.233,-0.99l-38.749,0l-0,73.644Z" style="fill:#b7b7b7;fill-rule:nonzero;"/></g><path id="SR2" serif:id="SR" d="M953.684,468.586c-0,-95.842 -77.813,-173.654 -173.655,-173.654l-536.058,-0c-95.842,-0 -173.655,77.812 -173.655,173.654l0,86.828c0,95.842 77.813,173.654 173.655,173.654l536.058,0c95.842,0 173.655,-77.812 173.655,-173.654l-0,-86.828Z" style="fill:none;stroke:#000;stroke-width:50px;"/></g></svg>