<?xml version="1.0" encoding="UTF-8" standalone="no"?><!DOCTYPE svg PUBLIC "-//W3C//DTD SVG 1.1//EN" "http://www.w3.org/Graphics/SVG/1.1/DTD/svg11.dtd"><svg width="100%" height="100%" viewBox="0 0 1024 1024" version="1.1" xmlns="http://www.w3.org/2000/svg" xmlns:xlink="http://www.w3.org/1999/xlink" xml:space="preserve" xmlns:serif="http://www.serif.com/" style="fill-rule:evenodd;clip-rule:evenodd;stroke-linecap:round;stroke-linejoin:round;stroke-miterlimit:1.5;"><g id="SwitchButtons"><path id="R" d="M953.684,468.586c-0,-95.842 -77.813,-173.654 -173.655,-173.654l-579.472,-0c-71.882,-0 -130.241,58.359 -130.241,130.241l0,303.895l883.368,0l-0,-260.482Z" style="fill:#232323;"/><clipPath id="_clip1"><path id="R1" serif:id="R" d="M953.684,468.586c-0,-95.842 -77.813,-173.654 -173.655,-173.654l-579.472,-0c-71.882,-0 -130.241,58.359 -130.241,130.241l0,303.895l883.368,0l-0,-260.482Z"/></clipPath><g clip-path="url(#_clip1)"><path d="M401.456,657.109l0,-290.218l104.505,-0c26.28,-0 45.375,2.606 57.285,7.819c11.91,5.213 21.443,14.485 28.601,27.814c7.157,13.33 10.735,28.574 10.735,45.731c0,21.776 -5.423,39.758 -16.271,53.946c-10.847,14.187 -27.063,23.129 -48.646,26.824c10.736,7.391 19.598,15.508 26.588,24.35c6.989,8.843 16.411,24.548 28.265,47.116l30.026,56.618l-59.382,0l-35.897,-63.151c-12.749,-22.568 -21.472,-36.789 -26.168,-42.662c-4.697,-5.873 -9.674,-9.898 -14.93,-12.076c-5.256,-2.177 -13.587,-3.266 -24.994,-3.266l-10.064,-0l-0,121.155l-49.653,0Zm49.653,-167.479l36.736,-0c23.82,-0 38.693,-1.188 44.62,-3.564c5.927,-2.375 10.568,-6.467 13.923,-12.274c3.355,-5.807 5.032,-13.065 5.032,-21.776c0,-9.766 -2.209,-17.652 -6.626,-23.657c-4.417,-6.005 -10.652,-9.799 -18.703,-11.383c-4.026,-0.66 -16.104,-0.99 -36.233,-0.99l-38.749,0l-0,73.644Z" style="fill:#b7b7b7;fill-rule:nonzero;"/></g><path id="R2" serif:id="R" d="M953.684,468.586c-0,-95.842 -77.813,-173.654 -173.655,-173.654l-579.472,-0c-71.882,-0 -130.241,58.359 -130.241,130.241l0,303.895l883.368,0l-0,-260.482Z" style="fill:none;stroke:#000;stroke-width:50px;"/></g></svg>