<?xml version="1.0" encoding="UTF-8" standalone="no"?><!DOCTYPE svg PUBLIC "-//W3C//DTD SVG 1.1//EN" "http://www.w3.org/Graphics/SVG/1.1/DTD/svg11.dtd"><svg width="100%" height="100%" viewBox="0 0 1024 1024" version="1.1" xmlns="http://www.w3.org/2000/svg" xmlns:xlink="http://www.w3.org/1999/xlink" xml:space="preserve" xmlns:serif="http://www.serif.com/" style="fill-rule:evenodd;clip-rule:evenodd;stroke-linecap:round;stroke-linejoin:round;stroke-miterlimit:1.5;"><g id="SwitchButtons"><path id="Capture" d="M936.381,214.934c-0,-70.267 -57.048,-127.315 -127.315,-127.315l-594.132,0c-70.267,0 -127.315,57.048 -127.315,127.315l0,594.132c0,70.267 57.048,127.315 127.315,127.315l594.132,-0c70.267,-0 127.315,-57.048 127.315,-127.315l-0,-594.132Z" style="fill:#232323;"/><clipPath id="_clip1"><path id="Capture1" serif:id="Capture" d="M936.381,214.934c-0,-70.267 -57.048,-127.315 -127.315,-127.315l-594.132,0c-70.267,0 -127.315,57.048 -127.315,127.315l0,594.132c0,70.267 57.048,127.315 127.315,127.315l594.132,-0c70.267,-0 127.315,-57.048 127.315,-127.315l-0,-594.132Z"/></clipPath><g clip-path="url(#_clip1)"><circle cx="512" cy="512" r="290.527"/></g><path id="Capture2" serif:id="Capture" d="M936.381,214.934c-0,-70.267 -57.048,-127.315 -127.315,-127.315l-594.132,0c-70.267,0 -127.315,57.048 -127.315,127.315l0,594.132c0,70.267 57.048,127.315 127.315,127.315l594.132,-0c70.267,-0 127.315,-57.048 127.315,-127.315l-0,-594.132Z" style="fill:none;stroke:#000;stroke-width:50px;"/></g></svg>