<?xml version="1.0" encoding="UTF-8" standalone="no"?><!DOCTYPE svg PUBLIC "-//W3C//DTD SVG 1.1//EN" "http://www.w3.org/Graphics/SVG/1.1/DTD/svg11.dtd"><svg width="100%" height="100%" viewBox="0 0 1024 1024" version="1.1" xmlns="http://www.w3.org/2000/svg" xmlns:xlink="http://www.w3.org/1999/xlink" xml:space="preserve" xmlns:serif="http://www.serif.com/" style="fill-rule:evenodd;clip-rule:evenodd;stroke-linecap:round;stroke-linejoin:round;stroke-miterlimit:1.5;"><g id="SwitchButtons"><path id="ZL" d="M953.684,294.932l-883.368,-0c0,239.606 194.531,434.136 434.137,434.136l188.748,0c143.764,0 260.483,-116.718 260.483,-260.482l-0,-173.654Z" style="fill:#232323;"/><clipPath id="_clip1"><path id="ZL1" serif:id="ZL" d="M953.684,294.932l-883.368,-0c0,239.606 194.531,434.136 434.137,434.136l188.748,0c143.764,0 260.483,-116.718 260.483,-260.482l-0,-173.654Z"/></clipPath><g clip-path="url(#_clip1)"><path d="M370.873,657.109l0,-52.857l129.164,-188.266l-114.57,0l-0,-49.095l179.99,-0l0,45.532l-134.699,195.789l139.899,-0l0,48.897l-199.784,0Z" style="fill:#b7b7b7;fill-rule:nonzero;"/><path d="M603.368,657.109l-0,-287.843l49.652,0l0,238.946l123.461,-0l-0,48.897l-173.113,0Z" style="fill:#b7b7b7;fill-rule:nonzero;"/></g><path id="ZL2" serif:id="ZL" d="M953.684,294.932l-883.368,-0c0,239.606 194.531,434.136 434.137,434.136l188.748,0c143.764,0 260.483,-116.718 260.483,-260.482l-0,-173.654Z" style="fill:none;stroke:#000;stroke-width:50px;"/></g></svg>