<?xml version="1.0" encoding="UTF-8" standalone="no"?><!DOCTYPE svg PUBLIC "-//W3C//DTD SVG 1.1//EN" "http://www.w3.org/Graphics/SVG/1.1/DTD/svg11.dtd"><svg width="100%" height="100%" viewBox="0 0 1024 1024" version="1.1" xmlns="http://www.w3.org/2000/svg" xmlns:xlink="http://www.w3.org/1999/xlink" xml:space="preserve" xmlns:serif="http://www.serif.com/" style="fill-rule:evenodd;clip-rule:evenodd;stroke-linecap:round;stroke-linejoin:round;stroke-miterlimit:1.5;"><g id="SwitchButtons"><circle id="A" cx="512" cy="512" r="424.381" style="fill:#232323;"/><clipPath id="_clip1"><circle id="A1" serif:id="A" cx="512" cy="512" r="424.381"/></clipPath><g clip-path="url(#_clip1)"><g transform="matrix(1.80019,0,0,1.80019,-564.781,-463.717)"><g transform="matrix(405.435,0,0,405.435,452.543,666.472)"><path d="M0.718,-0l-0.157,-0l-0.062,-0.163l-0.287,0l-0.059,0.163l-0.153,-0l0.279,-0.716l0.153,0l0.286,0.716Zm-0.266,-0.283l-0.098,-0.266l-0.097,0.266l0.195,-0Z" style="fill:#fff;fill-rule:nonzero;"/></g><path d="M743.752,694.247l-63.745,0c-11.495,0 -21.802,-7.08 -25.926,-17.809c0,-0 -18.494,-48.114 -18.494,-48.114l-77.469,0l-17.308,47.634c-3.99,10.98 -14.423,18.289 -26.105,18.289l-62.162,0c-9.171,0 -17.752,-4.528 -22.928,-12.099c-5.177,-7.571 -6.281,-17.21 -2.953,-25.756l113.039,-290.219c4.156,-10.669 14.432,-17.694 25.881,-17.694l61.964,-0c11.353,-0 21.564,6.91 25.784,17.45l116.207,290.219c3.426,8.558 2.384,18.258 -2.783,25.892c-5.166,7.634 -13.784,12.207 -23.002,12.207Zm0,-27.775l-116.206,-290.219l-61.964,0l-113.039,290.219l62.162,0l23.954,-65.922l116.008,-0l25.34,65.922l63.745,0Zm-107.892,-114.82l-79.186,-0l39.197,-107.694l39.989,107.694Z"/></g></g><circle id="A2" serif:id="A" cx="512" cy="512" r="424.381" style="fill:none;stroke:#000;stroke-width:50px;"/></g></svg>