<?xml version="1.0" encoding="UTF-8" standalone="no"?><!DOCTYPE svg PUBLIC "-//W3C//DTD SVG 1.1//EN" "http://www.w3.org/Graphics/SVG/1.1/DTD/svg11.dtd"><svg width="100%" height="100%" viewBox="0 0 1024 1024" version="1.1" xmlns="http://www.w3.org/2000/svg" xmlns:xlink="http://www.w3.org/1999/xlink" xml:space="preserve" xmlns:serif="http://www.serif.com/" style="fill-rule:evenodd;clip-rule:evenodd;stroke-linecap:round;stroke-linejoin:round;stroke-miterlimit:1.5;"><g id="SwitchButtons"><path id="L" d="M953.684,425.173c-0,-71.882 -58.359,-130.241 -130.241,-130.241l-579.472,-0c-95.842,-0 -173.655,77.812 -173.655,173.654l0,260.482l883.368,0l-0,-303.895Z" style="fill:#232323;"/><clipPath id="_clip1"><path id="L1" serif:id="L" d="M953.684,425.173c-0,-71.882 -58.359,-130.241 -130.241,-130.241l-579.472,-0c-95.842,-0 -173.655,77.812 -173.655,173.654l0,260.482l883.368,0l-0,-303.895Z"/></clipPath><g clip-path="url(#_clip1)"><path d="M425.444,657.703l-0,-287.843l49.652,0l0,238.946l123.46,-0l0,48.897l-173.112,0Z" style="fill:#b7b7b7;fill-rule:nonzero;"/></g><path id="L2" serif:id="L" d="M953.684,425.173c-0,-71.882 -58.359,-130.241 -130.241,-130.241l-579.472,-0c-95.842,-0 -173.655,77.812 -173.655,173.654l0,260.482l883.368,0l-0,-303.895Z" style="fill:none;stroke:#000;stroke-width:50px;"/></g></svg>