<?xml version="1.0" encoding="UTF-8" standalone="no"?><!DOCTYPE svg PUBLIC "-//W3C//DTD SVG 1.1//EN" "http://www.w3.org/Graphics/SVG/1.1/DTD/svg11.dtd"><svg width="100%" height="100%" viewBox="0 0 1024 1024" version="1.1" xmlns="http://www.w3.org/2000/svg" xmlns:xlink="http://www.w3.org/1999/xlink" xml:space="preserve" xmlns:serif="http://www.serif.com/" style="fill-rule:evenodd;clip-rule:evenodd;stroke-linecap:round;stroke-linejoin:round;stroke-miterlimit:1.5;"><g id="SwitchButtons"><path id="SL" d="M953.684,468.586c-0,-95.842 -77.813,-173.654 -173.655,-173.654l-536.058,-0c-95.842,-0 -173.655,77.812 -173.655,173.654l0,86.828c0,95.842 77.813,173.654 173.655,173.654l536.058,0c95.842,0 173.655,-77.812 173.655,-173.654l-0,-86.828Z" style="fill:#232323;"/><clipPath id="_clip1"><path id="SL1" serif:id="SL" d="M953.684,468.586c-0,-95.842 -77.813,-173.654 -173.655,-173.654l-536.058,-0c-95.842,-0 -173.655,77.812 -173.655,173.654l0,86.828c0,95.842 77.813,173.654 173.655,173.654l536.058,0c95.842,0 173.655,-77.812 173.655,-173.654l-0,-86.828Z"/></clipPath><g clip-path="url(#_clip1)"><path d="M303.912,562.679l48.311,-5.543c2.907,19.137 8.807,33.193 17.697,42.167c8.89,8.975 20.884,13.462 35.981,13.462c15.992,-0 28.042,-3.992 36.149,-11.977c8.108,-7.985 12.162,-17.322 12.162,-28.012c-0,-6.863 -1.706,-12.703 -5.116,-17.52c-3.411,-4.817 -9.366,-9.008 -17.865,-12.571c-5.815,-2.376 -19.067,-6.599 -39.756,-12.67c-26.615,-7.787 -45.291,-17.355 -56.027,-28.705c-15.097,-15.969 -22.645,-35.436 -22.645,-58.4c-0,-14.782 3.55,-28.606 10.652,-41.474c7.101,-12.868 17.333,-22.667 30.697,-29.398c13.364,-6.731 29.495,-10.097 48.394,-10.097c30.865,0 54.098,7.985 69.698,23.954c15.601,15.97 23.792,37.284 24.575,63.944l-49.652,2.573c-2.125,-14.913 -6.682,-25.637 -13.672,-32.169c-6.989,-6.533 -17.473,-9.8 -31.452,-9.8c-14.426,0 -25.721,3.498 -33.884,10.492c-5.256,4.488 -7.884,10.493 -7.884,18.015c-0,6.863 2.46,12.736 7.38,17.619c6.263,6.203 21.472,12.67 45.627,19.401c24.155,6.731 42.02,13.693 53.595,20.886c11.574,7.192 20.632,17.025 27.174,29.497c6.542,12.471 9.813,27.88 9.813,46.225c0,16.629 -3.914,32.202 -11.742,46.72c-7.828,14.517 -18.899,25.307 -33.213,32.367c-14.315,7.061 -32.151,10.592 -53.511,10.592c-31.089,-0 -54.964,-8.48 -71.627,-25.439c-16.663,-16.959 -26.616,-41.672 -29.859,-74.139Z" style="fill:#b7b7b7;fill-rule:nonzero;"/><path d="M546.975,657.109l-0,-287.843l49.652,0l0,238.946l123.461,-0l-0,48.897l-173.113,0Z" style="fill:#b7b7b7;fill-rule:nonzero;"/></g><path id="SL2" serif:id="SL" d="M953.684,468.586c-0,-95.842 -77.813,-173.654 -173.655,-173.654l-536.058,-0c-95.842,-0 -173.655,77.812 -173.655,173.654l0,86.828c0,95.842 77.813,173.654 173.655,173.654l536.058,0c95.842,0 173.655,-77.812 173.655,-173.654l-0,-86.828Z" style="fill:none;stroke:#000;stroke-width:50px;"/></g></svg>