<?xml version="1.0" encoding="UTF-8" standalone="no"?><!DOCTYPE svg PUBLIC "-//W3C//DTD SVG 1.1//EN" "http://www.w3.org/Graphics/SVG/1.1/DTD/svg11.dtd"><svg width="100%" height="100%" viewBox="0 0 1024 1024" version="1.1" xmlns="http://www.w3.org/2000/svg" xmlns:xlink="http://www.w3.org/1999/xlink" xml:space="preserve" xmlns:serif="http://www.serif.com/" style="fill-rule:evenodd;clip-rule:evenodd;stroke-linecap:round;stroke-linejoin:round;stroke-miterlimit:1.5;"><g id="XBButtons"><circle id="B" cx="512" cy="512" r="424.381" style="fill:#232323;"/><clipPath id="_clip1"><circle id="B1" serif:id="B" cx="512" cy="512" r="424.381"/></clipPath><g clip-path="url(#_clip1)"><g transform="matrix(1.80019,0,0,1.80019,-553.937,-426.553)"><g transform="matrix(405.435,0,0,405.435,452.543,666.472)"><path d="M0.073,-0.716l0.286,0c0.057,0 0.099,0.003 0.127,0.007c0.028,0.005 0.053,0.015 0.075,0.03c0.022,0.015 0.04,0.035 0.055,0.06c0.014,0.025 0.022,0.052 0.022,0.083c-0,0.034 -0.009,0.065 -0.027,0.093c-0.018,0.028 -0.043,0.049 -0.074,0.063c0.044,0.012 0.077,0.034 0.101,0.065c0.023,0.03 0.035,0.066 0.035,0.107c-0,0.033 -0.008,0.065 -0.023,0.095c-0.015,0.031 -0.036,0.056 -0.062,0.074c-0.026,0.019 -0.058,0.03 -0.097,0.034c-0.024,0.003 -0.082,0.004 -0.174,0.005l-0.244,0l0,-0.716Zm0.145,0.119l-0,0.166l0.094,-0c0.057,-0 0.092,-0.001 0.105,-0.003c0.025,-0.003 0.045,-0.011 0.059,-0.025c0.014,-0.014 0.021,-0.033 0.021,-0.056c0,-0.022 -0.006,-0.04 -0.018,-0.054c-0.012,-0.014 -0.031,-0.022 -0.055,-0.025c-0.014,-0.002 -0.055,-0.003 -0.123,-0.003l-0.083,0Zm-0,0.285l-0,0.191l0.134,0c0.052,0 0.085,-0.001 0.099,-0.004c0.021,-0.004 0.039,-0.013 0.052,-0.029c0.014,-0.015 0.02,-0.035 0.02,-0.06c0,-0.022 -0.005,-0.04 -0.015,-0.055c-0.011,-0.015 -0.026,-0.026 -0.045,-0.033c-0.02,-0.007 -0.063,-0.01 -0.129,-0.01l-0.116,-0Z" style="fill:#ff1624;fill-rule:nonzero;"/></g><path d="M482.238,348.479l116.009,-0c25.043,-0 43.71,1.174 56.016,3.261c15.392,2.61 29.135,8.128 41.286,16.409c12.195,8.311 22.44,19.3 30.57,33.12c8.409,14.295 12.743,30.283 12.743,48.034c0,19.067 -5.151,36.556 -15.424,52.476c-1.235,1.914 -2.523,3.77 -3.863,5.569c5.042,4.33 9.558,9.121 13.562,14.349c13.185,17.214 19.979,37.383 19.979,60.64c0,17.395 -3.97,34.329 -12.059,50.767c-8.303,16.873 -19.733,30.276 -34.107,40.364c-14.146,9.929 -31.475,16.348 -52.211,18.633c-0.019,0.002 -0.037,0.004 -0.056,0.006c-10.152,1.097 -34.638,1.865 -73.463,2.14c-0.066,0 -0.131,0 -0.196,0l-98.786,0c-15.339,0 -27.775,-12.435 -27.775,-27.775l0,-290.219c0,-15.339 12.436,-27.774 27.775,-27.774Zm0,27.774l0,290.219l98.786,0c37.349,-0.264 60.907,-0.923 70.674,-1.979c15.573,-1.716 28.672,-6.302 39.296,-13.759c10.624,-7.457 19.005,-17.421 25.142,-29.893c6.137,-12.472 9.205,-25.307 9.205,-38.504c0,-16.762 -4.751,-31.345 -14.253,-43.751c-9.503,-12.406 -23.097,-21.182 -40.782,-26.33c12.538,-5.675 22.47,-14.187 29.794,-25.537c7.325,-11.35 10.988,-23.822 10.988,-37.416c-0,-12.538 -2.97,-23.855 -8.909,-33.951c-5.939,-10.096 -13.363,-18.18 -22.271,-24.251c-8.909,-6.071 -19.005,-10.063 -30.289,-11.977c-11.284,-1.914 -28.408,-2.871 -51.372,-2.871l-116.009,0Zm58.598,48.304l33.655,0c27.583,0 44.278,0.33 50.085,0.99c9.767,1.188 17.124,4.586 22.073,10.195c4.95,5.609 7.424,12.901 7.424,21.876c0,9.37 -2.87,16.926 -8.611,22.667c-5.741,5.741 -13.627,9.205 -23.657,10.393c-5.543,0.66 -19.731,0.99 -42.563,0.99l-38.406,-0l0,-67.111Zm27.775,27.775l0,11.561l10.631,0c21.069,0 34.164,-0.186 39.279,-0.795l0.017,-0.002c2.983,-0.353 5.576,-0.743 7.284,-2.451c0.726,-0.725 0.476,-1.843 0.476,-3.027c0,-1.372 0.281,-2.642 -0.475,-3.499c-0.958,-1.086 -2.709,-0.77 -4.383,-0.975c-5.443,-0.618 -21.094,-0.812 -46.949,-0.812l-5.88,0Zm-27.775,87.64l47.314,-0c26.66,-0 43.982,1.386 51.967,4.157c7.984,2.772 14.088,7.193 18.311,13.264c4.224,6.071 6.335,13.462 6.335,22.172c0,10.294 -2.738,18.51 -8.215,24.647c-5.477,6.137 -12.571,9.997 -21.282,11.581c-5.675,1.188 -19.07,1.782 -40.187,1.782l-54.243,-0l0,-77.603Zm27.775,27.775l0,22.053l26.468,-0c18.12,-0 29.628,-0.174 34.497,-1.193c0.24,-0.05 0.481,-0.097 0.722,-0.141c2.219,-0.403 4.132,-1.184 5.528,-2.748c1.32,-1.479 1.163,-3.672 1.163,-6.153c-0,-2.439 -0.179,-4.611 -1.361,-6.311c-1.017,-1.462 -2.696,-2.218 -4.619,-2.886c-6.577,-2.283 -20.901,-2.621 -42.859,-2.621l-19.539,-0Z"/></g></g><circle id="B2" serif:id="B" cx="512" cy="512" r="424.381" style="fill:none;stroke:#000;stroke-width:50px;"/></g></svg>