<?xml version="1.0" encoding="UTF-8" standalone="no"?><!DOCTYPE svg PUBLIC "-//W3C//DTD SVG 1.1//EN" "http://www.w3.org/Graphics/SVG/1.1/DTD/svg11.dtd"><svg width="100%" height="100%" viewBox="0 0 1024 1024" version="1.1" xmlns="http://www.w3.org/2000/svg" xmlns:xlink="http://www.w3.org/1999/xlink" xml:space="preserve" xmlns:serif="http://www.serif.com/" style="fill-rule:evenodd;clip-rule:evenodd;stroke-linecap:round;stroke-linejoin:round;stroke-miterlimit:1.5;"><g id="XBButtons"><circle id="Home" cx="512" cy="512" r="424.381" style="fill:#232323;"/><clipPath id="_clip1"><circle id="Home1" serif:id="Home" cx="512" cy="512" r="424.381"/></clipPath><g clip-path="url(#_clip1)"><path d="M268.605,700.173c-40.303,-52.036 -64.3,-117.324 -64.3,-188.173c0,-83.574 33.392,-159.41 87.55,-214.884c47.287,-1.806 91.952,35.337 136.314,83.839c-100.785,133.816 -170.3,241.966 -159.564,319.218Zm71.962,-443.661c49.003,-32.963 107.989,-52.207 171.433,-52.207c63.444,0 122.43,19.244 171.433,52.207c-71.642,-2.587 -128.527,11.853 -171.433,42.423c-42.906,-30.57 -99.791,-45.01 -171.433,-42.423Zm391.578,40.604c54.158,55.474 87.55,131.31 87.55,214.884c-0,70.849 -23.997,136.137 -64.3,188.173c10.736,-77.252 -58.779,-185.402 -159.564,-319.218c44.362,-48.502 89.027,-85.645 136.314,-83.839Zm-8.736,438.37c-55.145,52.187 -129.567,84.209 -211.409,84.209c-81.842,-0 -156.264,-32.022 -211.409,-84.209c-3.807,-71.203 77.165,-156.232 211.409,-281.951c134.244,125.719 215.216,210.748 211.409,281.951Z" style="fill:#fff;"/></g><circle id="Home2" serif:id="Home" cx="512" cy="512" r="424.381" style="fill:none;stroke:#000;stroke-width:50px;"/></g></svg>