<?xml version="1.0" encoding="UTF-8" standalone="no"?><!DOCTYPE svg PUBLIC "-//W3C//DTD SVG 1.1//EN" "http://www.w3.org/Graphics/SVG/1.1/DTD/svg11.dtd"><svg width="100%" height="100%" viewBox="0 0 1024 1024" version="1.1" xmlns="http://www.w3.org/2000/svg" xmlns:xlink="http://www.w3.org/1999/xlink" xml:space="preserve" xmlns:serif="http://www.serif.com/" style="fill-rule:evenodd;clip-rule:evenodd;stroke-linecap:round;stroke-linejoin:round;stroke-miterlimit:1.5;"><g id="XBButtons"><path id="Shoulder" d="M943.94,561.259c-0,-163.12 -132.433,-295.553 -295.553,-295.553l-174.257,0c-217.493,0 -394.07,176.577 -394.07,394.07l0,98.518l863.88,-0l-0,-197.035Z" style="fill:#232323;"/><clipPath id="_clip1"><path id="Shoulder1" serif:id="Shoulder" d="M943.94,561.259c-0,-163.12 -132.433,-295.553 -295.553,-295.553l-174.257,0c-217.493,0 -394.07,176.577 -394.07,394.07l0,98.518l863.88,-0l-0,-197.035Z"/></clipPath><g clip-path="url(#_clip1)"><path d="M315.953,657.109l0,-287.843l58.598,0l0,238.946l145.704,-0l-0,48.897l-204.302,0Z" style="fill:#b7b7b7;fill-rule:nonzero;"/><path d="M562.224,366.891l116.008,-0c22.964,-0 40.088,0.956 51.372,2.87c11.284,1.914 21.381,5.906 30.289,11.977c8.909,6.071 16.333,14.155 22.272,24.251c5.939,10.096 8.908,21.413 8.908,33.951c0,13.594 -3.662,26.066 -10.987,37.416c-7.325,11.35 -17.256,19.862 -29.794,25.538c17.685,5.147 31.279,13.923 40.781,26.329c9.502,12.406 14.254,26.99 14.254,43.751c-0,13.197 -3.069,26.032 -9.206,38.504c-6.137,12.472 -14.517,22.436 -25.142,29.893c-10.624,7.457 -23.723,12.043 -39.296,13.759c-9.766,1.056 -33.324,1.716 -70.674,1.979l-98.785,0l-0,-290.218Zm58.598,48.303l-0,67.111l38.405,0c22.832,0 37.02,-0.33 42.563,-0.99c10.03,-1.188 17.916,-4.652 23.657,-10.393c5.741,-5.741 8.612,-13.297 8.612,-22.667c-0,-8.975 -2.475,-16.266 -7.424,-21.876c-4.949,-5.609 -12.307,-9.007 -22.073,-10.195c-5.807,-0.66 -22.503,-0.99 -50.086,-0.99l-33.654,0Zm-0,115.415l-0,77.603l54.243,-0c21.116,-0 34.512,-0.594 40.187,-1.782c8.71,-1.584 15.804,-5.444 21.281,-11.581c5.477,-6.137 8.216,-14.353 8.216,-24.647c-0,-8.71 -2.112,-16.101 -6.335,-22.172c-4.223,-6.071 -10.327,-10.492 -18.312,-13.264c-7.985,-2.771 -25.307,-4.157 -51.966,-4.157l-47.314,-0Z" style="fill:#b7b7b7;fill-rule:nonzero;"/></g><path id="Shoulder2" serif:id="Shoulder" d="M943.94,561.259c-0,-163.12 -132.433,-295.553 -295.553,-295.553l-174.257,0c-217.493,0 -394.07,176.577 -394.07,394.07l0,98.518l863.88,-0l-0,-197.035Z" style="fill:none;stroke:#000;stroke-width:50px;"/></g></svg>