<?xml version="1.0" encoding="UTF-8" standalone="no"?><!DOCTYPE svg PUBLIC "-//W3C//DTD SVG 1.1//EN" "http://www.w3.org/Graphics/SVG/1.1/DTD/svg11.dtd"><svg width="100%" height="100%" viewBox="0 0 1024 1024" version="1.1" xmlns="http://www.w3.org/2000/svg" xmlns:xlink="http://www.w3.org/1999/xlink" xml:space="preserve" xmlns:serif="http://www.serif.com/" style="fill-rule:evenodd;clip-rule:evenodd;stroke-linecap:round;stroke-linejoin:round;stroke-miterlimit:1.5;"><g id="XBButtons"><path id="Trigger" d="M943.94,146.006l-863.88,-0l0,200.37c0,293.408 238.21,531.618 531.618,531.618l112.665,0c121.199,0 219.597,-98.398 219.597,-219.596l-0,-512.392Z" style="fill:#232323;"/><clipPath id="_clip1"><path id="Trigger1" serif:id="Trigger" d="M943.94,146.006l-863.88,-0l0,200.37c0,293.408 238.21,531.618 531.618,531.618l112.665,0c121.199,0 219.597,-98.398 219.597,-219.596l-0,-512.392Z"/></clipPath><g clip-path="url(#_clip1)"><path d="M367.726,657.109l-0,-287.843l58.598,0l-0,238.946l145.703,-0l0,48.897l-204.301,0Z" style="fill:#b7b7b7;fill-rule:nonzero;"/><path d="M649.036,657.109l0,-241.123l-86.115,0l-0,-49.095l230.631,-0l-0,49.095l-85.918,0l0,241.123l-58.598,0Z" style="fill:#b7b7b7;fill-rule:nonzero;"/></g><path id="Trigger2" serif:id="Trigger" d="M943.94,146.006l-863.88,-0l0,200.37c0,293.408 238.21,531.618 531.618,531.618l112.665,0c121.199,0 219.597,-98.398 219.597,-219.596l-0,-512.392Z" style="fill:none;stroke:#000;stroke-width:50px;"/></g></svg>