<?xml version="1.0" encoding="UTF-8" standalone="no"?><!DOCTYPE svg PUBLIC "-//W3C//DTD SVG 1.1//EN" "http://www.w3.org/Graphics/SVG/1.1/DTD/svg11.dtd"><svg width="100%" height="100%" viewBox="0 0 1024 1024" version="1.1" xmlns="http://www.w3.org/2000/svg" xmlns:xlink="http://www.w3.org/1999/xlink" xml:space="preserve" xmlns:serif="http://www.serif.com/" style="fill-rule:evenodd;clip-rule:evenodd;stroke-linecap:round;stroke-linejoin:round;stroke-miterlimit:1.5;"><g id="XBButtons"><path id="Trigger" d="M943.94,146.006l-863.88,-0l0,512.392c0,121.198 98.398,219.596 219.597,219.596l58.692,0c323.197,0 585.591,-262.394 585.591,-585.59l-0,-146.398Z" style="fill:#232323;"/><clipPath id="_clip1"><path id="Trigger1" serif:id="Trigger" d="M943.94,146.006l-863.88,-0l0,512.392c0,121.198 98.398,219.596 219.597,219.596l58.692,0c323.197,0 585.591,-262.394 585.591,-585.59l-0,-146.398Z"/></clipPath><g clip-path="url(#_clip1)"><path d="M224.145,657.109l-0,-290.218l123.333,-0c31.015,-0 53.55,2.606 67.605,7.819c14.056,5.213 25.307,14.485 33.754,27.814c8.446,13.33 12.669,28.574 12.669,45.731c0,21.776 -6.4,39.758 -19.202,53.946c-12.802,14.187 -31.939,23.129 -57.411,26.824c12.67,7.391 23.13,15.508 31.378,24.35c8.249,8.843 19.368,24.548 33.358,47.116l35.436,56.618l-70.081,0l-42.364,-63.151c-15.046,-22.568 -25.34,-36.789 -30.883,-42.662c-5.543,-5.873 -11.416,-9.898 -17.619,-12.076c-6.203,-2.177 -16.036,-3.266 -29.497,-3.266l-11.878,-0l-0,121.155l-58.598,0Zm58.598,-167.479l43.354,-0c28.112,-0 45.665,-1.188 52.659,-3.564c6.995,-2.375 12.472,-6.467 16.432,-12.274c3.959,-5.807 5.939,-13.065 5.939,-21.776c-0,-9.766 -2.607,-17.652 -7.82,-23.657c-5.213,-6.005 -12.571,-9.799 -22.073,-11.383c-4.751,-0.66 -19.005,-0.99 -42.761,-0.99l-45.73,0l-0,73.644Z" style="fill:#b7b7b7;fill-rule:nonzero;"/><path d="M582.068,657.109l0,-241.123l-86.115,0l-0,-49.095l230.631,-0l-0,49.095l-85.918,0l0,241.123l-58.598,0Z" style="fill:#b7b7b7;fill-rule:nonzero;"/></g><path id="Trigger2" serif:id="Trigger" d="M943.94,146.006l-863.88,-0l0,512.392c0,121.198 98.398,219.596 219.597,219.596l58.692,0c323.197,0 585.591,-262.394 585.591,-585.59l-0,-146.398Z" style="fill:none;stroke:#000;stroke-width:50px;"/></g></svg>