<?xml version="1.0" encoding="UTF-8" standalone="no"?><!DOCTYPE svg PUBLIC "-//W3C//DTD SVG 1.1//EN" "http://www.w3.org/Graphics/SVG/1.1/DTD/svg11.dtd"><svg width="100%" height="100%" viewBox="0 0 1024 1024" version="1.1" xmlns="http://www.w3.org/2000/svg" xmlns:xlink="http://www.w3.org/1999/xlink" xml:space="preserve" xmlns:serif="http://www.serif.com/" style="fill-rule:evenodd;clip-rule:evenodd;stroke-linecap:round;stroke-linejoin:round;stroke-miterlimit:1.5;"><g id="XBButtons"><path id="Shoulder" d="M943.94,659.776c-0,-217.493 -176.577,-394.07 -394.07,-394.07l-174.257,0c-163.12,0 -295.553,132.433 -295.553,295.553l0,197.035l863.88,-0l-0,-98.518Z" style="fill:#232323;"/><clipPath id="_clip1"><path id="Shoulder1" serif:id="Shoulder" d="M943.94,659.776c-0,-217.493 -176.577,-394.07 -394.07,-394.07l-174.257,0c-163.12,0 -295.553,132.433 -295.553,295.553l0,197.035l863.88,-0l-0,-98.518Z"/></clipPath><g clip-path="url(#_clip1)"><path d="M218.344,657.109l-0,-290.218l123.333,-0c31.015,-0 53.55,2.606 67.605,7.819c14.056,5.213 25.307,14.485 33.754,27.814c8.446,13.33 12.67,28.574 12.67,45.731c-0,21.776 -6.401,39.758 -19.203,53.946c-12.802,14.187 -31.939,23.129 -57.411,26.824c12.67,7.391 23.13,15.508 31.378,24.35c8.249,8.843 19.368,24.548 33.358,47.116l35.436,56.618l-70.081,0l-42.364,-63.151c-15.046,-22.568 -25.34,-36.789 -30.883,-42.662c-5.543,-5.873 -11.416,-9.898 -17.619,-12.076c-6.203,-2.177 -16.036,-3.266 -29.497,-3.266l-11.878,-0l-0,121.155l-58.598,0Zm58.598,-167.479l43.354,-0c28.112,-0 45.665,-1.188 52.66,-3.564c6.994,-2.375 12.471,-6.467 16.431,-12.274c3.959,-5.807 5.939,-13.065 5.939,-21.776c-0,-9.766 -2.607,-17.652 -7.82,-23.657c-5.213,-6.005 -12.571,-9.799 -22.073,-11.383c-4.751,-0.66 -19.005,-0.99 -42.761,-0.99l-45.73,0l-0,73.644Z" style="fill:#b7b7b7;fill-rule:nonzero;"/><path d="M511.136,366.891l116.009,-0c22.964,-0 40.088,0.956 51.372,2.87c11.284,1.914 21.38,5.906 30.289,11.977c8.908,6.071 16.332,14.155 22.271,24.251c5.939,10.096 8.908,21.413 8.908,33.951c0,13.594 -3.662,26.066 -10.987,37.416c-7.324,11.35 -17.256,19.862 -29.794,25.538c17.685,5.147 31.279,13.923 40.781,26.329c9.503,12.406 14.254,26.99 14.254,43.751c0,13.197 -3.068,26.032 -9.205,38.504c-6.137,12.472 -14.518,22.436 -25.142,29.893c-10.624,7.457 -23.723,12.043 -39.296,13.759c-9.767,1.056 -33.325,1.716 -70.675,1.979l-98.785,0l0,-290.218Zm58.598,48.303l0,67.111l38.406,0c22.832,0 37.02,-0.33 42.563,-0.99c10.03,-1.188 17.916,-4.652 23.657,-10.393c5.741,-5.741 8.611,-13.297 8.611,-22.667c0,-8.975 -2.474,-16.266 -7.424,-21.876c-4.949,-5.609 -12.307,-9.007 -22.073,-10.195c-5.807,-0.66 -22.502,-0.99 -50.085,-0.99l-33.655,0Zm0,115.415l0,77.603l54.243,-0c21.117,-0 34.512,-0.594 40.187,-1.782c8.711,-1.584 15.805,-5.444 21.282,-11.581c5.477,-6.137 8.215,-14.353 8.215,-24.647c0,-8.71 -2.111,-16.101 -6.335,-22.172c-4.223,-6.071 -10.327,-10.492 -18.312,-13.264c-7.984,-2.771 -25.306,-4.157 -51.966,-4.157l-47.314,-0Z" style="fill:#b7b7b7;fill-rule:nonzero;"/></g><path id="Shoulder2" serif:id="Shoulder" d="M943.94,659.776c-0,-217.493 -176.577,-394.07 -394.07,-394.07l-174.257,0c-163.12,0 -295.553,132.433 -295.553,295.553l0,197.035l863.88,-0l-0,-98.518Z" style="fill:none;stroke:#000;stroke-width:50px;"/></g></svg>