<?xml version="1.0" encoding="UTF-8" standalone="no"?><!DOCTYPE svg PUBLIC "-//W3C//DTD SVG 1.1//EN" "http://www.w3.org/Graphics/SVG/1.1/DTD/svg11.dtd"><svg width="100%" height="100%" viewBox="0 0 1024 1024" version="1.1" xmlns="http://www.w3.org/2000/svg" xmlns:xlink="http://www.w3.org/1999/xlink" xml:space="preserve" xmlns:serif="http://www.serif.com/" style="fill-rule:evenodd;clip-rule:evenodd;stroke-linecap:round;stroke-linejoin:round;stroke-miterlimit:1.5;"><g id="XBButtons"><path id="Share" d="M981.087,512c-0,-144.034 -116.937,-260.971 -260.971,-260.971l-416.232,0c-144.034,0 -260.971,116.937 -260.971,260.971c0,144.034 116.937,260.971 260.971,260.971l416.232,-0c144.034,-0 260.971,-116.937 260.971,-260.971Z" style="fill:#232323;"/><clipPath id="_clip1"><path id="Share1" serif:id="Share" d="M981.087,512c-0,-144.034 -116.937,-260.971 -260.971,-260.971l-416.232,0c-144.034,0 -260.971,116.937 -260.971,260.971c0,144.034 116.937,260.971 260.971,260.971l416.232,-0c144.034,-0 260.971,-116.937 260.971,-260.971Z"/></clipPath><g clip-path="url(#_clip1)"><path d="M242.771,480.188l-0,170.986l538.458,-0l0,-170.916" style="fill:none;stroke:#b7b7b7;stroke-width:50px;"/><path d="M512,372.826l84.289,89.193l-168.578,-0l84.289,-89.193Z" style="fill:#b7b7b7;stroke:#b7b7b7;stroke-width:50px;"/><path d="M512,450.019l0,125.53" style="fill:none;stroke:#b7b7b7;stroke-width:50px;"/></g><path id="Share2" serif:id="Share" d="M981.087,512c-0,-144.034 -116.937,-260.971 -260.971,-260.971l-416.232,0c-144.034,0 -260.971,116.937 -260.971,260.971c0,144.034 116.937,260.971 260.971,260.971l416.232,-0c144.034,-0 260.971,-116.937 260.971,-260.971Z" style="fill:none;stroke:#000;stroke-width:50px;"/></g></svg>