<?xml version="1.0" encoding="UTF-8" standalone="no"?><!DOCTYPE svg PUBLIC "-//W3C//DTD SVG 1.1//EN" "http://www.w3.org/Graphics/SVG/1.1/DTD/svg11.dtd"><svg width="100%" height="100%" viewBox="0 0 1024 1024" version="1.1" xmlns="http://www.w3.org/2000/svg" xmlns:xlink="http://www.w3.org/1999/xlink" xml:space="preserve" xmlns:serif="http://www.serif.com/" style="fill-rule:evenodd;clip-rule:evenodd;stroke-linecap:round;stroke-linejoin:round;stroke-miterlimit:1.5;"><g id="XBButtons"><circle id="X" cx="512" cy="512" r="424.381" style="fill:#232323;"/><clipPath id="_clip1"><circle id="X1" serif:id="X" cx="512" cy="512" r="424.381"/></clipPath><g clip-path="url(#_clip1)"><g transform="matrix(1.80019,0,0,1.80019,-545.536,-431.553)"><g transform="matrix(405.435,0,0,405.435,452.543,666.472)"><path d="M0,-0l0.245,-0.374l-0.222,-0.342l0.169,0l0.143,0.23l0.141,-0.23l0.168,0l-0.223,0.348l0.245,0.368l-0.175,-0l-0.158,-0.248l-0.16,0.248l-0.173,-0Z" style="fill:#336dff;fill-rule:nonzero;"/></g><path d="M429.308,651.255c-0,0 89.271,-136.311 89.271,-136.311l-80.044,-123.592c-5.532,-8.542 -5.95,-19.426 -1.088,-28.367c4.862,-8.94 14.224,-14.506 24.401,-14.506l68.496,-0c9.582,-0 18.488,4.939 23.562,13.067c-0,0 34.397,55.106 34.397,55.106l33.562,-54.888c5.046,-8.253 14.022,-13.285 23.696,-13.285l67.902,-0c10.152,-0 19.495,5.538 24.367,14.444c4.872,8.906 4.497,19.761 -0.978,28.31l-80.5,125.693l89.153,134.175c5.665,8.525 6.182,19.475 1.345,28.496c-4.837,9.021 -14.243,14.65 -24.478,14.65l-70.674,0c-9.464,0 -18.276,-4.818 -23.383,-12.785l-40.992,-63.948l-41.14,63.98c-5.11,7.949 -13.912,12.753 -23.362,12.753l-70.278,0c-10.202,0 -19.583,-5.593 -24.434,-14.569c-4.851,-8.975 -4.391,-19.888 1.199,-28.423Zm23.235,15.217l70.278,0l64.538,-100.369l64.339,100.369l70.674,0l-99.182,-149.266l90.273,-140.953l-67.902,0l-57.015,93.243l-58.202,-93.243l-68.496,0l89.877,138.775l-99.182,151.444Z"/></g></g><circle id="X2" serif:id="X" cx="512" cy="512" r="424.381" style="fill:none;stroke:#000;stroke-width:50px;"/></g></svg>