<?xml version="1.0" encoding="UTF-8" standalone="no"?><!DOCTYPE svg PUBLIC "-//W3C//DTD SVG 1.1//EN" "http://www.w3.org/Graphics/SVG/1.1/DTD/svg11.dtd"><svg width="100%" height="100%" viewBox="0 0 1024 1024" version="1.1" xmlns="http://www.w3.org/2000/svg" xmlns:xlink="http://www.w3.org/1999/xlink" xml:space="preserve" xmlns:serif="http://www.serif.com/" style="fill-rule:evenodd;clip-rule:evenodd;stroke-linecap:round;stroke-linejoin:round;stroke-miterlimit:1.5;"><g id="XBButtons"><circle id="Y" cx="512" cy="512" r="424.381" style="fill:#232323;"/><clipPath id="_clip1"><circle id="Y1" serif:id="Y" cx="512" cy="512" r="424.381"/></clipPath><g clip-path="url(#_clip1)"><g transform="matrix(1.80019,0,0,1.80019,-545.893,-392.325)"><g transform="matrix(405.435,0,0,405.435,452.543,666.472)"><path d="M0.261,-0l-0,-0.301l-0.262,-0.415l0.169,0l0.168,0.283l0.165,-0.283l0.167,0l-0.263,0.416l-0,0.3l-0.144,-0Z" style="fill:#efab01;fill-rule:nonzero;"/></g><path d="M530.483,666.472l-0,-114.098l-102.007,-161.273c-5.412,-8.556 -5.74,-19.379 -0.856,-28.246c4.884,-8.868 14.206,-14.376 24.329,-14.376l68.695,-0c9.794,-0 18.864,5.158 23.871,13.575l44.182,74.278l43.161,-74.063c4.976,-8.539 14.114,-13.79 23.997,-13.79l67.507,-0c10.126,-0 19.45,5.511 24.333,14.383c4.882,8.872 4.549,19.698 -0.869,28.253l-102.394,161.664l0,113.693c0,15.34 -12.435,27.775 -27.774,27.775l-58.401,0c-15.339,0 -27.774,-12.435 -27.774,-27.775Zm27.774,0l58.401,0l-0,-121.749l106.704,-168.47l-67.507,0l-66.913,114.821l-68.298,-114.821l-68.695,0l106.308,168.074l0,122.145Z"/></g></g><circle id="Y2" serif:id="Y" cx="512" cy="512" r="424.381" style="fill:none;stroke:#000;stroke-width:50px;"/></g></svg>